<?xml version="1.0" encoding="UTF-8" standalone="no"?>
<!-- Created with Inkscape (http://www.inkscape.org/) -->

<svg
   version="1.1"
   id="svg1"
   width="1024"
   height="1024"
   viewBox="0 0 1024 1024"
   sodipodi:docname="bear2.svg"
   inkscape:version="1.4 (e7c3feb100, 2024-10-09)"
   xmlns:inkscape="http://www.inkscape.org/namespaces/inkscape"
   xmlns:sodipodi="http://sodipodi.sourceforge.net/DTD/sodipodi-0.dtd"
   xmlns="http://www.w3.org/2000/svg"
   xmlns:svg="http://www.w3.org/2000/svg">
  <defs
     id="defs1" />
  <sodipodi:namedview
     id="namedview1"
     pagecolor="#ffffff"
     bordercolor="#000000"
     borderopacity="0.25"
     inkscape:showpageshadow="2"
     inkscape:pageopacity="0.0"
     inkscape:pagecheckerboard="0"
     inkscape:deskcolor="#d1d1d1"
     inkscape:zoom="1.046875"
     inkscape:cx="512"
     inkscape:cy="512"
     inkscape:window-width="3830"
     inkscape:window-height="2131"
     inkscape:window-x="0"
     inkscape:window-y="0"
     inkscape:window-maximized="1"
     inkscape:current-layer="g1" />
  <g
     inkscape:groupmode="layer"
     inkscape:label="Image"
     id="g1">
    <path
       style="fill:#000000"
       d="m 571.658,978.5146 c 30.09173,-6.65226 62.86531,-29.74332 83.76055,-59.0146 10.27009,-14.38695 19.21053,-37.13385 20.43807,-52 0.3179,-3.85 0.27475,-6.72148 -0.0959,-6.38108 -0.37065,0.34041 -1.97672,5.74041 -3.56904,12 -3.22602,12.68178 -7.03212,22.47699 -12.60829,32.4481 -14.25933,25.49808 -40.60884,48.96293 -68.92965,61.38347 -27.08889,11.88026 -51.28498,11.68863 -77.2546,-0.61186 C 484.62181,952.70827 452.78524,919.37752 436.13007,885.4431 433.31104,879.6994 430.80551,875 430.56222,875 c -1.89295,0 6.06874,18.60358 13.0071,30.39286 7.79901,13.25164 17.69546,25.51486 31.20972,38.67362 19.79977,19.27892 38.20471,29.91081 59.69434,34.48335 8.44439,1.79679 28.98547,1.77733 37.18462,-0.0352 z m -0.5,-14.47329 c 19.43407,-4.15654 38.30041,-14.6695 50.44052,-28.10715 4.5167,-4.99945 3.95539,-6.36697 -0.8732,-2.12741 -10.79998,9.4825 -32.50033,20.66056 -47.04073,24.23111 -12.09042,2.96894 -30.58669,3.01131 -41.70202,0.0955 -16.75779,-4.39591 -35.59996,-14.89698 -49.61802,-27.65299 -3.46139,-3.14976 -6.50684,-5.51344 -6.76766,-5.25263 -1.23501,1.23502 16.98754,17.99951 26.21674,24.11903 22.28242,14.77465 45.73426,19.74424 69.34437,14.69454 z m 71.95649,-16.58819 c 14.50892,-10.68086 25.40031,-24.82778 31.06582,-40.35164 2.97721,-8.15775 3.89599,-13.41978 2.01468,-11.53847 -0.52965,0.52965 -3.17864,5.45715 -5.88664,10.95 -6.43468,13.05196 -13.04509,22.24283 -24.82514,34.51596 -5.28747,5.50879 -9.38789,10.24168 -9.11204,10.51753 0.27585,0.27585 3.31034,-1.56617 6.74332,-4.09338 z m 74.60103,-0.74242 c 0.62207,-1.62109 -1.06312,-12.01365 -6.17295,-38.06853 -1.92623,-9.82181 -3.25365,-18.10643 -2.94981,-18.41027 0.30384,-0.30383 3.22167,0.25575 6.48406,1.24352 6.20438,1.87853 9.08118,1.59772 9.08118,-0.88643 0,-0.81058 -2.25123,-7.87347 -5.00274,-15.69531 -2.75151,-7.82184 -4.7919,-14.43237 -4.53421,-14.69007 0.25769,-0.25769 7.06135,1.38524 15.11924,3.65095 14.3563,4.0367 16.41771,4.26453 16.41771,1.81451 0,-1.09726 -26.0034,-26.52121 -31.75536,-31.04775 -3.76946,-2.96639 -4.80034,-0.95213 -3.25048,6.35118 0.7093,3.34237 1.10756,6.25911 0.88503,6.48165 -0.22254,0.22253 -2.58584,-0.0606 -5.25177,-0.62919 -4.00236,-0.85362 -5.11537,-0.76558 -6.38608,0.50512 -1.38522,1.38523 -1.3677,2.65415 0.1754,12.70556 0.94287,6.14165 1.57233,11.29226 1.39879,11.44579 -0.17354,0.15353 -4.14053,-1.22463 -8.81553,-3.06257 -4.675,-1.83794 -9.52662,-3.35907 -10.78138,-3.38029 -5.01255,-0.0848 -5.07097,-0.25128 19.1054,54.46143 11.90998,26.95306 14.60127,31.46422 16.2335,27.2107 z m -22.23134,-53.48947 c -5.1294,-11.70332 -9.32618,-21.4795 -9.32618,-21.72485 0,-0.24534 3.6307,0.89261 8.06822,2.52877 9.14514,3.37192 11.46301,3.63882 12.31519,1.41807 0.32857,-0.85622 -0.0733,-6.33456 -0.89301,-12.17407 -0.81972,-5.83951 -1.4904,-10.94591 -1.4904,-11.34756 0,-0.40165 3.0375,-0.66082 6.75,-0.57593 l 6.75,0.15434 -0.3113,-3.89444 -0.31131,-3.89445 4.81131,4.0591 c 6.78221,5.72188 13.19839,12.66133 10.98269,11.87839 -5.50836,-1.94644 -18.28631,-4.71513 -20.54967,-4.45264 -3.96789,0.46016 -3.75098,3.60545 1.27957,18.55404 4.82977,14.35194 4.83943,14.30467 -2.40129,11.75 -9.21824,-3.25238 -9.52663,-2.16918 -5.40927,19 3.9077,20.09131 4.02856,21.59844 1.20283,15 -1.17766,-2.75 -6.33798,-14.57545 -11.46738,-26.27877 z m 70.67382,45.40089 c 0,-0.75783 -0.70774,-3.07174 -1.57276,-5.14202 -1.7712,-4.23908 -1.29562,-7.45183 1.73262,-11.7046 2.33275,-3.27604 1.78668,-6.39307 -0.91829,-5.24173 -6.381,2.71598 -8.89144,2.81414 -13.60576,0.53198 -2.57223,-1.2452 -5.35286,-2.00457 -6.17917,-1.68749 -1.33451,0.5121 -1.33222,0.98376 0.0205,4.22125 2.10902,5.04759 1.90308,9.64741 -0.57284,12.79503 -2.59606,3.30036 -1.85447,6.12219 1.35786,5.1668 6.29042,-1.87087 9.68397,-1.79068 13.24959,0.31308 4.15344,2.4506 6.48826,2.71966 6.48826,0.7477 z m -13,-7.61165 c -1.10546,-0.0124 -1.50713,-1.20526 -1.52712,-4.53512 -0.0204,-3.40416 0.30797,-4.38969 1.33179,-3.99681 0.7474,0.2868 2.56284,0.52146 4.03432,0.52146 2.56487,0 2.66034,0.18961 2.31049,4.58846 -0.32856,4.13108 -0.57848,4.53116 -2.50721,4.01365 -1.17825,-0.31614 -2.81727,-0.58238 -3.64227,-0.59164 z m -297.01063,5.30762 c -0.006,-0.44995 -1.82931,-3.06809 -4.05214,-5.81809 -7.54463,-9.33393 -16.73773,-22.99247 -20.43804,-30.36558 -2.60452,-5.18969 -3.99921,-7.0344 -4.75039,-6.28322 -1.41489,1.41489 2.03319,11.52023 6.44338,18.88369 5.03122,8.40038 22.83927,26.82242 22.79719,23.5832 z m -51.56585,-9.48493 c 0.23351,-0.73324 0.93177,-2.98466 1.55168,-5.00317 1.37439,-4.4752 2.93685,-5.87105 8.83826,-7.89577 2.51005,-0.86117 4.74349,-2.10508 4.96321,-2.76422 0.21971,-0.65915 -1.32765,-1.91018 -3.43859,-2.78008 -5.19949,-2.14264 -8.1102,-5.02202 -8.86086,-8.7655 C 406.51451,894.0356 406.04482,893 404.63075,893 c -0.76586,0 -1.89892,1.69039 -2.51792,3.75643 -1.69159,5.64602 -3.36745,7.35206 -9.14249,9.3071 -2.89325,0.97946 -5.42211,2.26579 -5.61968,2.8585 -0.19757,0.5927 1.59713,1.91624 3.98822,2.94118 5.3866,2.30896 6.44671,3.56651 8.6035,10.20581 1.68941,5.20058 3.80744,7.37568 4.63914,4.76414 z m -3.4701,-19.73691 2.54658,-2.62849 2.65245,3.01612 2.65246,3.01612 -2.65068,2.66489 -2.65068,2.66489 -2.54836,-3.05251 -2.54835,-3.05252 z M 570.658,925.82919 c 22.64655,-1.92335 44.71576,-15.36999 53.11357,-32.3618 3.37976,-6.83849 3.58303,-7.78775 3.24015,-15.1318 -0.43732,-9.367 -2.72838,-14.4571 -9.82826,-21.83559 l -4.8112,-5 -0.45406,-10.23119 c -0.38906,-8.76642 -0.22543,-10.29562 1.14287,-10.68114 0.87831,-0.24746 4.27349,-0.98132 7.54484,-1.63079 19.205,-3.81281 46.71531,-14.99635 63.37202,-25.7621 l 6.18297,-3.99625 8.39966,1.83557 c 23.49353,5.13399 39.12421,11.97606 63.59744,27.8387 17.54293,11.37068 22.6321,13.47149 33.82488,13.9629 8.11521,0.3563 10.40983,0.0565 17.68846,-2.31123 20.45232,-6.65304 38.03464,-21.49862 50.95594,-43.02447 8.82668,-14.70453 11.46357,-33.79728 6.37449,-46.15528 -1.39412,-3.38541 -3.6168,-7.49182 -4.93927,-9.12537 -3.43821,-4.24693 -10.52768,-8.88247 -16.87834,-11.03612 -5.22666,-1.77247 -5.67938,-2.21364 -10.02568,-9.76976 -7.18053,-12.48348 -10.82144,-17.38965 -18.72561,-25.23302 -7.87102,-7.81048 -22.29458,-17.75397 -30.96724,-21.34859 -4.51562,-1.87162 -5.3469,-2.63685 -5.71511,-5.26102 -2.04903,-14.60328 -4.22989,-24.61512 -7.6554,-35.14431 -4.46264,-13.71704 -14.75058,-35.22936 -23.33041,-48.78442 -3.08369,-4.87184 -5.60671,-9.19563 -5.60671,-9.60842 0,-0.41279 2.5875,-2.45941 5.75,-4.54803 12.9628,-8.56109 26.50272,-19.72913 39.38382,-32.4847 19.49845,-19.30843 30.77849,-35.30291 37.73134,-53.50096 6.46071,-16.90994 5.34904,-36.2851 -2.7866,-48.56769 -3.73183,-5.63403 -9.3927,-10.25231 -16.85227,-13.74849 -5.19638,-2.43546 -6.79051,-2.67997 -17.22629,-2.64219 -10.38697,0.0376 -12.45652,0.36864 -21.38294,3.42037 -5.43562,1.8583 -15.48986,6.21038 -22.34276,9.67128 -8.50963,4.29759 -12.22652,5.74949 -11.72397,4.57963 2.63177,-6.12627 7.57339,-21.92679 8.88861,-28.42075 1.79696,-8.8726 2.05694,-27.64226 0.50362,-36.3585 -2.95796,-16.59809 -9.61425,-32.12776 -19.68797,-45.93366 -2.80923,-3.85 -6.02515,-9.33962 -7.1465,-12.19915 -3.20096,-8.16269 -11.73623,-24.72107 -17.77524,-34.48384 -4.90526,-7.92995 -9.96774,-14.65265 -20.41724,-27.11301 l -3.1834,-3.79599 2.75084,-5.0542 c 7.40456,-13.60462 7.36299,-32.3571 -0.10441,-47.0933 -4.05881,-8.00969 -16.19975,-19.89654 -24.63209,-24.1166 -16.44173,-8.22845 -32.8226,-8.9242 -47.42861,-2.01445 -7.88239,3.72896 -16.37698,12.05133 -20.70245,20.28272 -3.64444,6.93539 -3.64833,6.93879 -6.86787,6.01544 -14.46498,-4.1485 -50.78177,-5.43675 -72.24762,-2.56281 -31.29462,4.18986 -62.65143,15.16361 -87.67265,30.68226 l -7.83479,4.85929 -4.41037,-4.70318 c -15.85525,-16.90789 -41.14767,-20.91502 -63.46287,-10.05457 -7.8052,3.79867 -19.31024,14.49041 -24.045,22.34523 -9.60828,15.93985 -10.66656,38.53688 -2.55451,54.54526 3.31147,6.53486 11.5255,15.2104 19.14317,20.21873 4.27153,2.80837 6.28485,4.74149 5.97665,5.73858 -0.25562,0.82697 -1.39851,4.06392 -2.53976,7.19322 -6.98123,19.14249 -10.41563,40.37855 -10.4006,64.31037 0.019,30.33319 5.62526,55.32274 17.8629,79.62346 1.96141,3.89483 3.38828,7.25942 3.17083,7.47687 -0.21745,0.21745 -3.73383,-0.75049 -7.81418,-2.15098 -16.8449,-5.78164 -25.86129,-7.57733 -40.91882,-8.1493 -16.62654,-0.63158 -22.92564,0.3233 -31.98009,4.84787 -19.71,9.8492 -28.65442,29.60324 -23.47808,51.85208 7.82694,33.64157 53.87452,78.00525 109.5609,105.5544 l 9.60272,4.75065 0.58607,16.59748 c 1.02429,29.00772 6.60262,60.67781 15.15407,86.03484 12.16113,36.06057 25.40963,58.58552 48.56087,82.56263 5.84161,6.05 12.80632,14.15 15.47713,18 11.14532,16.06612 34.31282,41.73214 51.16348,56.68127 29.07362,25.79278 47.13346,33.74731 71.85293,31.64792 z M 550.6181,914.47413 C 534.7357,910.40802 519.7547,900.35339 497.86353,879.06746 482.52987,864.15774 471.72268,851.98667 459.17817,835.5 c -4.60337,-6.05 -12.46011,-15.2885 -17.45943,-20.53 -39.33419,-41.23966 -59.11185,-93.76797 -63.14898,-167.72 -0.75245,-13.78343 -1.12963,-13.20453 6.99717,-10.73918 6.06896,1.84109 6.59107,1.84511 6.59107,0.0508 0,-0.8555 -6.58505,-4.7638 -16.25,-9.64456 -22.5373,-11.38123 -32.26792,-16.90722 -46.75,-26.54916 -28.15335,-18.74406 -48.38459,-37.88451 -61.41576,-58.10446 -7.48508,-11.61431 -9.93804,-19.025 -10.01727,-30.26344 -0.0599,-8.50271 0.22152,-10.04726 2.68117,-14.71308 3.7663,-7.14448 7.72378,-11.40951 13.50787,-14.55761 14.14118,-7.69659 34.05145,-7.58586 61.68578,0.34308 21.80411,6.25611 44.23462,16.37307 69.52232,31.35705 7.95527,4.71381 14.81777,8.57056 15.25,8.57056 1.99083,0 0.26619,-2.14578 -5.96411,-7.42051 -8.87538,-7.51411 -20.79241,-15.43708 -32.45005,-21.57423 l -9.43784,-4.96853 -6.25533,-10.92866 C 339.10257,430.6531 334.85214,378.66943 353.7518,325.0715 c 2.41039,-6.83568 4.27535,-12.5075 4.14436,-12.60406 -0.13099,-0.0966 -3.58072,-1.91403 -7.66607,-4.03885 -20.67241,-10.75185 -30.41676,-32.15152 -24.04048,-52.79551 6.64317,-21.50809 27.87787,-36.91179 48.71239,-35.33608 14.69901,1.11168 26.69308,9.09256 36.8335,24.50908 0.11073,0.16835 5.08859,-2.93598 11.06192,-6.8985 58.70005,-38.93986 141.42067,-44.77964 202.86058,-14.32124 17.18764,8.52065 29.50463,17.39748 43.5659,31.39785 17.00664,16.93298 26.26476,30.62116 37.83303,55.93634 3.85709,8.44058 9.71369,19.44893 13.01466,24.46299 14.35144,21.79933 19.81557,42.83672 17.04285,65.61648 -3.86981,31.79305 -23.60086,62.75349 -57.07016,89.55012 -6.53745,5.23411 -11.88628,9.94499 -11.88628,10.46862 0,0.52364 2.3625,0.0311 5.25,-1.09453 13.29971,-5.18462 29.8062,-17.58428 41.17089,-30.92754 5.837,-6.8532 8.65602,-9.15601 18,-14.70393 23.38601,-13.88526 39.82757,-21.18019 52.49957,-23.29346 13.32338,-2.2219 24.07653,0.78222 31.01496,8.66469 9.89851,11.24531 11.20512,24.7161 4.16087,42.89748 -9.8859,25.51574 -38.51888,57.24603 -71.81922,79.58812 -10.05399,6.74549 -10.68043,7.0191 -11.98323,5.234 C 730.99543,559.9072 711.55439,536 710.93111,536 c -1.37569,0 -0.8235,2.9798 1.35089,7.28984 1.1682,2.31559 7.87269,12.53516 14.89888,22.71016 16.75546,24.26451 22.25084,33.21657 28.54479,46.5 10.18888,21.50371 15.60401,38.58064 17.59917,55.5 0.61614,5.225 1.4787,9.90054 1.9168,10.39009 0.4381,0.48956 4.20678,2.373 8.37484,4.18543 20.09424,8.73775 38.21327,26.00972 48.04152,45.79557 4.30506,8.66679 5.1328,9.34422 14.78651,12.10143 3.29048,0.9398 7.34885,3.02445 9.40846,4.83281 3.64218,3.19787 8.27708,11.60294 8.29526,15.04287 0.009,1.75462 -0.15479,1.7441 -3.24023,-0.20774 -2.51348,-1.59003 -3.41478,-3.01085 -3.97711,-6.2696 C 856.13221,749.24251 851.90459,744 848.97091,744 c -2.32734,0 -2.29797,0.1964 0.68709,4.59514 1.375,2.02617 2.5,4.67964 2.5,5.89658 0,1.92967 -0.79925,2.35387 -6.25,3.31712 -3.4375,0.60747 -7.19363,1.38347 -8.34695,1.72443 -1.66139,0.49118 -2.35315,10e-4 -3.3304,-2.35789 -2.40217,-5.79933 -8.94938,-9.80064 -14.16283,-8.65557 -3.86256,0.84836 -4.54936,3.31036 -1.12452,4.03109 5.14678,1.08309 8.71981,3.22432 10.49639,6.29024 l 1.78168,3.07473 -3.28168,1.6681 c -5.91844,3.00838 -16.50143,11.36156 -22.44651,17.71708 -13.70546,14.65166 -22.24111,32.63237 -21.03562,44.31242 0.67874,6.57638 1.14996,6.7109 -15.77631,-4.5035 -14.8052,-9.80909 -37.69471,-21.67651 -48.05331,-24.91397 -3.86654,-1.20844 -10.61654,-2.95276 -15,-3.87627 -4.38347,-0.9235 -8.11896,-1.78476 -8.3011,-1.9139 -0.18213,-0.12915 1.73037,-2.7658 4.25,-5.85923 4.35204,-5.34312 6.09611,-9.51309 3.33116,-7.96456 -0.6875,0.38503 -5.32937,3.78299 -10.31527,7.55101 -21.48509,16.23705 -47.62915,28.2217 -74.91394,34.34118 -6.46007,1.44887 -11.84362,2.49739 -11.96345,2.33004 -0.11984,-0.16735 -1.04913,-3.45427 -2.06509,-7.30427 -2.34442,-8.88419 -9.43476,-23.11708 -13.41416,-26.9271 -1.68148,-1.6099 -3.28614,-2.69819 -3.56591,-2.41841 -0.27978,0.27977 1.29735,4.67269 3.50472,9.76205 7.01401,16.17159 9.92993,30.79537 9.96329,49.96729 l 0.0198,11.38384 6.86753,7.22972 c 5.54424,5.83664 7.0994,8.19629 8.0709,12.24597 1.35986,5.6685 0.46902,10.50597 -2.96336,16.09195 l -2.04944,3.33531 -3.09318,-6.19001 c -2.33563,-4.674 -4.21132,-6.89911 -7.6586,-9.08531 -2.51098,-1.59242 -5.68437,-2.8953 -7.05198,-2.8953 -2.24918,0 -1.94877,0.50121 3.14667,5.25 6.03259,5.62218 8.73146,10.60595 8.73146,16.12364 0,2.99186 -0.61626,3.84721 -4.75,6.5929 -5.99054,3.97899 -16.14351,8.86216 -20.05077,9.64361 -2.9123,0.58246 -3.01724,0.46568 -4.09423,-4.55615 -1.4391,-6.71031 -3.30757,-10.20522 -7.21275,-13.49121 -2.18685,-1.84012 -3.50202,-2.35302 -4.21229,-1.64275 -0.71027,0.71027 -0.52123,1.59788 0.60547,2.84287 2.33924,2.58482 5.36829,10.01885 6.10662,14.98709 l 0.63159,4.25 h -8.30172 c -4.56595,0 -10.98377,-0.68664 -14.26182,-1.52587 z M 499.158,769.99403 c 0,-1.10328 -3.88105,-7.96255 -8.62456,-15.24282 -4.74351,-7.28026 -8.82774,-13.76632 -9.07608,-14.41346 -0.33886,-0.88308 2.89858,-1.03616 12.97681,-0.6136 19.57695,0.82082 19.52543,0.28269 -1.50539,-15.72415 -8.31019,-6.325 -21.44574,-16.331 -29.19011,-22.23556 -7.74437,-5.90457 -14.84161,-10.74207 -15.77165,-10.75 -4.01405,-0.0343 -3.97527,0.0529 13.91495,31.28906 0.25311,0.44193 -5.20624,0.48867 -12.13189,0.10388 -12.23444,-0.67976 -12.59208,-0.64172 -12.59208,1.33937 0,1.40904 3.16676,4.46316 10.25,9.88539 5.6375,4.31552 18.98109,14.71373 29.65242,23.10713 10.67133,8.3934 20.00883,15.26073 20.75,15.26073 0.74117,0 1.34758,-0.90269 1.34758,-2.00597 z m -31.71935,-27.13846 c -22.48296,-17.6111 -21.4389,-16.21712 -11.53395,-15.39947 9.23243,0.76214 12.25764,0.20042 12.24406,-2.27349 -0.005,-0.92543 -2.6575,-6.18261 -5.89428,-11.68261 -3.23677,-5.5 -5.72106,-10.17405 -5.52064,-10.38678 0.20041,-0.21273 3.41534,2.06817 7.14428,5.06866 3.72893,3.0005 12.62988,9.87786 19.77988,15.28303 7.15,5.40518 13.45,10.25919 14,10.78671 0.63988,0.61372 -3.09924,0.83115 -10.38291,0.60375 -14.63688,-0.45696 -15.09343,0.0402 -8.9052,9.69692 5.2185,8.14348 7.05248,11.44771 6.35395,11.44771 -0.2775,0 -8.05583,-5.91499 -17.28519,-13.14443 z m 263.15901,-71.75795 c 0.30674,-0.4963 -3.19848,-9.6088 -7.78937,-20.25 -5.6437,-13.08151 -7.93614,-19.44737 -7.07828,-19.65561 0.69783,-0.1694 5.45502,0.83912 10.57152,2.24115 8.22671,2.2543 9.47447,2.37741 10.78751,1.06437 1.31304,-1.31304 -1.28315,-4.26151 -22.44549,-25.49116 C 701.48191,595.80287 690.34922,585 689.90426,585 c -2.33022,0 -1.56316,4.29018 2.61649,14.63418 2.55049,6.31206 4.63725,12.07726 4.63725,12.81156 0,1.0083 -2.38651,0.63187 -9.75,-1.53787 -11.20177,-3.30074 -14.25,-3.58845 -14.25,-1.345 0,2.02666 53.71128,62.43713 55.51319,62.43713 0.75283,0 1.61974,-0.40607 1.92647,-0.90238 z m -44.09903,-54.90734 c 0.83494,-0.17035 3.88155,0.39215 6.77023,1.25 6.45129,1.91583 9.7894,1.9832 10.46935,0.2113 0.28459,-0.74163 -0.80896,-4.67913 -2.43011,-8.75 -1.62114,-4.07087 -2.76745,-7.58974 -2.54735,-7.81971 0.36163,-0.37786 26.36016,26.18314 26.02715,26.59024 -0.0774,0.0947 -3.11469,-0.53945 -6.74947,-1.40913 -7.27596,-1.74089 -9.88043,-1.31921 -9.88043,1.59967 0,1.05898 2.25,7.01527 5,13.2362 2.75,6.22094 5,11.67805 5,12.12691 0,0.44886 -7.46493,-7.63081 -16.58873,-17.95482 -10.88898,-12.3214 -16.06713,-18.87736 -15.07064,-19.08066 z m -148.44491,28.89533 c 1.909,-1.20877 1.70137,-1.61802 -10.95112,-21.58414 -6.13981,-9.68886 -11.00159,-17.76724 -10.80395,-17.95196 0.19764,-0.18472 5.52726,0.4615 11.84358,1.43605 12.25937,1.8915 14.29635,1.75054 13.81864,-0.95626 -0.51594,-2.92347 -66.19116,-60.39944 -68.23738,-59.71826 -2.42751,0.8081 -1.2788,3.98095 5.71065,15.77324 4.04742,6.82865 8.84587,15.04129 10.6632,18.25032 l 3.30425,5.8346 -9.3718,-0.80539 c -14.48795,-1.24507 -17.27726,-1.12094 -17.65388,0.78566 -0.30277,1.53271 5.168,6.34788 48.68481,42.85053 4.26195,3.575 10.55073,8.8625 13.97506,11.75 6.62764,5.58863 6.86149,5.70106 9.01794,4.33561 z M 500.61753,609.94365 C 488.26479,599.46266 478.158,590.7059 478.158,590.48417 c 0,-0.22172 4.6125,-0.30887 10.25,-0.19365 9.98632,0.20409 10.25834,0.15071 10.5741,-2.07522 0.20578,-1.45065 -2.1302,-6.379 -6.39885,-13.5 -3.69761,-6.16842 -6.94269,-11.6097 -7.21126,-12.09175 -0.27967,-0.50194 0.14134,-0.50194 0.98524,0 1.92049,1.14227 43.89322,38.63219 43.5573,38.90524 -0.14109,0.11469 -4.53153,-0.35549 -9.75653,-1.04483 -14.32541,-1.88997 -14.53775,-1.23344 -4.62784,14.30848 C 522.3205,625.4419 524.36631,629 523.69909,629 c -0.34212,0 -10.72882,-8.57536 -23.08156,-19.05635 z m -202.14716,-75.5483 c 3.38045,-1.83254 12.26071,-15.09617 13.70953,-20.47667 2.70806,-10.05697 -7.23446,-17.03376 -19.28303,-13.53114 -10.77956,3.1337 -15.74367,13.20438 -12.31777,24.98905 2.72758,9.38255 10.23716,13.16803 17.89127,9.01876 z m -10.77772,-5.76979 c -3.39134,-3.39134 -4.26859,-10.41523 -2.0322,-16.27116 1.40454,-3.67772 2.542,-4.92491 5.86984,-6.43608 4.74487,-2.15465 8.81284,-2.41644 11.94345,-0.76862 5.26829,2.77302 5.00545,7.35245 -0.94852,16.52557 -6.2179,9.57975 -10.2934,11.48946 -14.83257,6.95029 z m -14.10608,1.80301 c 2.12179,-2.12179 1.98626,-6.74318 -0.25731,-8.77358 -3.82713,-3.46351 -10.17126,-0.86021 -10.17126,4.17375 0,4.9332 7.00531,8.0231 10.42857,4.59983 z M 268.158,526 c 0,-2.10908 1.45488,-2.69104 2.5,-1 0.7292,1.17987 -0.21667,3 -1.55902,3 -0.51754,0 -0.94098,-0.9 -0.94098,-2 z m 6.34501,-13.82874 c 3.73422,-4.12626 0.50945,-11.18715 -5.09501,-11.15595 -3.33537,0.0186 -4.58014,0.78142 -6.1557,3.77246 -2.3024,4.3709 1.0201,9.21223 6.32214,9.21223 1.9014,0 3.9673,-0.76655 4.92857,-1.82874 z m -7.00918,-3.73848 c -0.33077,-0.86197 -0.0884,-2.08018 0.53853,-2.70714 1.40744,-1.40744 4.74172,1.4685 3.68495,3.1784 -0.9981,1.61495 -3.53139,1.33229 -4.22348,-0.47126 z m 17.16417,-9.62773 c 4.11717,-2.3347 4.64313,-6.08208 1.42742,-10.17019 -2.53576,-3.2237 -7.0499,-3.51238 -9.92742,-0.63486 -2.70273,2.70273 -2.51846,6.57245 0.45455,9.54545 2.66811,2.66812 4.93556,3.02311 8.04545,1.2596 z m -5.16417,-5.37227 c -0.33077,-0.86197 -0.17996,-1.98865 0.33513,-2.50374 1.26285,-1.26285 4.85524,1.41053 3.9228,2.91926 -1.02725,1.66212 -3.55533,1.41542 -4.25793,-0.41552 z m 25.44166,1.01052 c 2.80187,-1.96251 3.02104,-7.41066 0.39377,-9.78831 -2.82997,-2.56109 -7.81167,-2.13343 -9.75844,0.83772 -2.19263,3.34637 -1.13142,7.08433 2.55201,8.9891 3.64908,1.88702 4.06696,1.88465 6.81266,-0.0385 z m -5.27749,-5.457 c 0,-2.1435 2.90567,-1.8339 3.32712,0.35451 0.25736,1.3364 -0.14991,1.74367 -1.48631,1.48631 -1.01244,-0.19498 -1.84081,-1.02335 -1.84081,-1.84082 z m 501.14713,-7.45169 c 4.97419,-3.48406 6.79284,-13.15251 3.81473,-20.28013 -3.04148,-7.27929 -8.03669,-10.54019 -16.14596,-10.54019 -10.92811,0 -17.38484,8.55533 -12.89436,17.08537 1.5186,2.88469 9.46512,10.83287 13.55097,13.5538 3.06472,2.04092 8.89037,2.13131 11.67462,0.18115 z m -12.4138,-7.44441 c -9.20559,-7.2766 -11.34243,-12.04737 -7.1468,-15.95619 4.975,-4.63491 14.15506,-3.06666 17.88784,3.05581 2.67527,4.38798 2.65423,10.74133 -0.047,14.17532 -2.80847,3.57039 -4.87614,3.32388 -10.69409,-1.27494 z m -187.51937,3.51736 c 9.66497,-3.15428 18.82999,-10.87298 23.28941,-19.61417 5.04058,-9.88035 6.11229,-25.31748 3.50546,-50.49339 -0.7973,-7.7 -1.46295,-14.75941 -1.47923,-15.68759 -0.0177,-1.00953 1.96267,-2.77191 4.92887,-4.38633 4.8817,-2.65695 8.97016,-7.36564 10.92544,-12.58282 1.67761,-4.47634 2.33335,-14.1058 1.2749,-18.72184 l -1.004,-4.37859 5.30989,0.62408 c 15.37558,1.80709 31.58738,-7.42346 38.21139,-21.75652 2.55707,-5.53301 2.82391,-7.1498 2.82391,-17.11039 0,-9.84136 -0.28229,-11.60229 -2.68006,-16.71807 -7.40379,-15.79644 -25.20663,-25.53483 -41.79633,-22.86313 -17.78939,2.86489 -30.33994,15.34657 -33.06014,32.87871 -0.61066,3.93576 -0.82569,7.6164 -0.47786,8.17921 0.78318,1.26721 1.33725,1.30364 -6.98598,-0.45936 -19.02898,-4.03065 -45.07433,0.0756 -61.28406,9.66185 -3.08837,1.82644 -8.90029,6.52014 -12.91539,10.43045 l -7.30018,7.10967 v -3.14957 c 0,-5.29241 -2.93663,-14.79591 -6.09094,-19.71148 -4.24336,-6.61271 -12.02027,-13.55179 -18.69099,-16.67739 -5.16185,-2.4186 -6.83673,-2.6793 -17.21807,-2.68005 -10.56728,-7.7e-4 -11.96167,0.22587 -17.19221,2.79444 -21.07977,10.35167 -29.15647,34.4038 -18.9074,56.30555 5.89242,12.59182 18.65781,21.28613 32.56355,22.17855 13.19528,0.84682 24.99976,-3.35064 33.32076,-11.84825 l 4.85287,-4.95589 1.19747,7.76238 c 2.18571,14.16859 8.97221,23.50441 20.58494,28.31762 l 5.29837,2.19605 0.62645,8.82545 c 1.26098,17.76473 6.90216,37.18001 14.02136,48.25735 4.47348,6.96065 11.58311,13.29498 18.45869,16.44579 6.85874,3.14309 19.19095,4.0137 25.88911,1.82768 z m -24.29958,-7.8704 c -10.21368,-5.23024 -18.64493,-16.83528 -23.31571,-32.0925 -1.15427,-3.77043 -2.09867,-7.22176 -2.09867,-7.66963 0,-0.96277 7.34276,-3.39567 14.79922,-4.90346 11.25076,-2.27505 23.36983,-0.53902 34.1199,4.8876 6.78865,3.4269 16.84449,12.32981 19.50358,17.26743 1.78309,3.311 1.7762,3.46321 -0.34495,7.621 -4.04942,7.93751 -10.01198,13.35613 -18.57775,16.88297 -5.16056,2.12478 -18.14157,1.05043 -24.08562,-1.99341 z m -36.61965,-74.29144 c -6.38425,-2.17533 -12.18445,-7.50267 -15.48378,-14.22147 -2.48845,-5.06751 -2.80888,-6.81418 -2.79288,-15.22425 0.0233,-12.26163 2.65627,-18.40262 11.71289,-27.31874 11.61295,-11.43278 26.44569,-17.90547 45.46252,-19.8389 29.06032,-2.95453 50.17945,8.83581 57.34239,32.01298 4.79435,15.51309 0.61875,28.43782 -10.56761,32.70993 -5.52929,2.11166 -10.59948,1.42878 -18.93746,-2.55057 -8.94891,-4.27092 -10.20762,-6.04304 -10.75548,-15.14244 -0.4479,-7.43911 -0.3924,-7.66724 2.24398,-9.22459 3.67948,-2.17352 9.78811,-8.50201 11.69095,-12.11171 2.05704,-3.90223 1.98548,-9.82519 -0.15823,-13.09691 -4.87107,-7.4342 -22.06488,-8.65893 -35.22587,-2.50916 -9.21822,4.30741 -12.32615,7.38918 -12.32615,12.2224 0,7.17847 11.23629,15.72998 22.93179,17.45249 2.51252,0.37005 4.89882,1.17285 5.3029,1.78402 1.57263,2.37859 0.80306,12.81405 -1.18183,16.02567 -4.15061,6.71583 -19.95148,17.41471 -28.79878,19.49986 -6.04538,1.42479 -15.54084,1.2073 -20.45935,-0.46861 z m -75.02751,-22.77118 c -6.84537,-3.34913 -14.06617,-10.93362 -17.57144,-18.45647 -2.2603,-4.85097 -2.66671,-7.08604 -2.68005,-14.7391 -0.0143,-8.19074 0.28621,-9.63435 3.26484,-15.68482 6.35124,-12.90118 17.70132,-19.94169 32.21943,-19.98584 12.66596,-0.0385 22.98312,5.13238 30.11671,15.09433 5.22821,7.30111 7.25165,14.45588 6.66657,23.57267 -1.00392,15.6431 -9.29613,26.07308 -25.27022,31.78498 -7.49107,2.6786 -19.48305,1.9676 -26.74584,-1.58575 z m 24.23734,-4.96696 c 5.51726,-1.56013 13.07857,-6.63894 16.43452,-11.03882 4.03217,-5.28646 5.56092,-10.09101 5.56092,-17.47692 0,-5.66923 -0.53718,-7.94739 -3.06834,-13.01269 -9.18372,-18.37824 -31.4511,-22.69654 -46.43228,-9.00459 -6.95203,6.35377 -9.91207,12.98741 -9.96197,22.32544 -0.029,5.43269 0.48516,8.00756 2.29653,11.5 6.91844,13.3392 21.90531,20.45862 35.17062,16.70758 z M 471.40595,357.4874 c -8.89706,-5.25563 -11.39631,-20.03915 -5.10788,-30.21404 5.74432,-9.2945 20.54759,-11.77559 30.13257,-5.05034 9.91015,6.95341 9.16066,25.45431 -1.24626,30.76352 -13.22315,6.74595 -26.89168,-4.45996 -21.18264,-17.3662 2.12147,-4.79592 6.08978,-7.62034 10.7066,-7.62034 3.4431,0 9.44966,5.88927 9.44966,9.26514 0,6.67259 -9.61652,10.86537 -12.1529,5.29863 -1.51029,-3.31473 -0.4108,-5.78282 2.39843,-5.38391 1.50619,0.21388 2.15694,0.90098 1.96063,2.07014 -0.37673,2.2437 3.33004,2.40104 4.18327,0.17756 1.4089,-3.67154 -3.51386,-7.9364 -7.89224,-6.8375 -5.87133,1.47361 -7.36308,9.30861 -2.74719,14.42889 5.39876,5.98872 14.59923,4.17616 17.81018,-3.50873 1.98054,-4.7401 1.81215,-7.34808 -0.81018,-12.54833 -5.06905,-10.05224 -19.17395,-10.82795 -26.32843,-1.44795 -2.24666,2.94553 -2.92494,5.02762 -3.23764,9.93851 -0.56799,8.92001 2.71638,14.73398 11.43211,20.23708 3.02796,1.91186 -3.91801,-0.16412 -7.36809,-2.20213 z m 171.88753,-10.14763 c -1.49956,-0.4014 -3.0326,-2.12513 -4.19084,-4.71217 -1.00449,-2.24358 -1.73985,-4.16573 -1.63414,-4.27143 0.10571,-0.10571 2.66659,0.46522 5.69085,1.26873 16.98267,4.51209 33.91373,-8.50661 33.9759,-26.1249 0.0389,-11.02043 -7.65825,-22.762 -17.97725,-27.42332 -6.41609,-2.8983 -15.94907,-2.77936 -22.52095,0.28097 -10.85539,5.05502 -16.45331,14.20358 -16.46928,26.9154 l -0.01,7.77306 -2.61912,-1.71612 c -2.50115,-1.63881 -2.59853,-2.03395 -2.16219,-8.77305 0.56921,-8.79106 3.24842,-15.00384 9.22627,-21.39464 15.86638,-16.96245 44.60613,-13.09773 55.76089,7.49834 8.71258,16.08684 3.28334,37.10798 -11.87904,45.99372 -7.91559,4.63885 -18.21133,6.55378 -25.19133,4.68541 z m -61.89386,-12.104 C 580.81355,333.46225 587.2231,331 592.42588,331 c 6.16732,0 8.9854,3.13746 4.48212,4.99009 -3.30083,1.35795 -14.99838,0.78899 -15.50838,-0.75432 z m 57.20576,-4.87585 c -12.64101,-6.53609 -13.30267,-26.67211 -1.11121,-33.81678 7.83035,-4.58889 16.88909,-3.06491 22.02792,3.70581 5.00968,6.60055 4.30771,15.3251 -1.63541,20.3259 -2.71695,2.28616 -3.80659,2.57604 -8.12386,2.1612 -6.56807,-0.63111 -10.60482,-4.7531 -10.60482,-10.82875 0,-4.91793 4.2648,-9.9073 8.46853,-9.9073 5.37894,0 9.83209,8.29938 6.33147,11.8 -1.80686,1.80686 -5.60031,1.44163 -6.71801,-0.6468 -1.30917,-2.44621 0.61925,-4.64604 2.61838,-2.98691 1.82802,1.51713 2.98543,0.14516 1.65708,-1.96425 -2.55236,-4.05314 -8.35745,-1.30742 -8.35745,3.95295 0,3.94722 3.19432,6.84501 7.54545,6.84501 7.50171,0 10.94063,-8.41019 6.45035,-15.77493 -3.13781,-5.14648 -10.0954,-6.77628 -15.96662,-3.74016 -7.84786,4.05829 -10.1909,15.68108 -4.63069,22.97089 5.14207,6.7416 13.74637,8.4165 21.68126,4.22043 4.98807,-2.63776 7.71517,-6.67193 9.5105,-14.06876 l 1.23966,-5.10747 0.0686,6 c 0.0951,8.32103 -2.65111,12.97702 -9.90202,16.78791 -4.5964,2.41575 -6.40575,2.82529 -11.0491,2.50091 -3.05395,-0.21334 -7.32895,-1.30634 -9.5,-2.4289 z m 180.98119,140.06865 c 2.33247,-2.33247 1.98823,-7.02322 -0.65108,-8.87187 -2.93731,-2.05737 -4.37057,-1.96362 -6.77749,0.4433 -3.80602,3.80602 -1.63813,10 3.5,10 1.29643,0 3.06429,-0.70714 3.92857,-1.57143 z M 815.008,466.5 c 0,-0.5225 0.48375,-1.11125 1.075,-1.30833 0.59125,-0.19709 1.075,0.39166 1.075,1.30833 0,0.91667 -0.48375,1.50542 -1.075,1.30833 -0.59125,-0.19708 -1.075,-0.78583 -1.075,-1.30833 z m 0.49501,-11.32874 c 1.92906,-2.13159 2.18805,-7.2382 0.45499,-8.97126 -3.32286,-3.32286 -10.8,0.29702 -10.8,5.22857 0,5.09545 6.8711,7.58132 10.34501,3.74269 z m -5.89886,-3.25839 c -1.03052,-1.66742 1.28721,-3.57951 2.66672,-2.2 1.15392,1.15392 0.43172,3.28713 -1.11287,3.28713 -0.48508,0 -1.18431,-0.48921 -1.55385,-1.08713 z m -26.08101,-4.98545 c 3.3646,-2.64659 3.56337,-7.16366 0.41235,-9.37072 -3.04913,-2.13569 -4.46272,-1.96238 -7.32294,0.89785 -3.07214,3.07214 -3.17173,6.92971 -0.23204,8.98875 2.91785,2.04374 3.98675,1.96654 7.14263,-0.51588 z M 779.158,442.5 c 0,-0.825 0.675,-1.5 1.5,-1.5 0.825,0 1.5,0.675 1.5,1.5 0,0.825 -0.675,1.5 -1.5,1.5 -0.825,0 -1.5,-0.675 -1.5,-1.5 z m 22.81144,3.46104 c 2.35007,-2.18942 2.82468,-5.90392 1.15338,-9.02678 -1.60953,-3.00744 -7.29207,-2.60498 -9.89224,0.7006 -2.60615,3.31318 -2.62781,5.80991 -0.0726,8.36514 2.56416,2.56416 6.03379,2.54882 8.81144,-0.039 z M 796.34837,441.25 c 0.18536,-0.9625 0.99969,-1.75 1.80963,-1.75 0.80994,0 1.62427,0.7875 1.80963,1.75 0.23646,1.22785 -0.30348,1.75 -1.80963,1.75 -1.50615,0 -2.04609,-0.52215 -1.80963,-1.75 z m -425.07859,-151 c 3.79619,-6.25772 12.86766,-18.33063 19.56016,-26.03195 3.48043,-4.00507 6.32806,-7.80799 6.32806,-8.45094 0,-2.37082 -11.45602,-12.3062 -15.61602,-13.54319 -12.40086,-3.68745 -24.2211,1.75898 -30.3243,13.97256 -5.47967,10.9658 -3.76792,22.15917 4.57111,29.89099 3.79896,3.52234 10.64836,7.91253 12.34481,7.91253 0.4737,0 1.88499,-1.6875 3.13618,-3.75 z m -11.85294,-7.54835 c -3.3549,-3.04429 -6.25884,-9.79488 -6.25884,-14.54949 0,-7.79419 4.93994,-15.55039 12.29339,-19.30183 5.86603,-2.99263 15.00452,-2.30188 20.56972,1.55481 6.38859,4.42729 6.26415,5.65671 -1.39432,13.77509 -3.68117,3.90223 -9.16109,10.8813 -12.1776,15.50903 l -5.48456,8.41406 -2.65331,-1.68401 c -1.45933,-0.9262 -3.66184,-2.59915 -4.89448,-3.71766 z M 497.408,277.9199 c 3.80158,-2.21422 1.57203,-7.94972 -4.2436,-10.91663 -6.84781,-3.4935 -15.0064,-2.06151 -15.0064,2.6339 0,6.25336 13.07518,11.87924 19.25,8.28273 z m -13.90194,-6.08779 c -3.46851,-3.83266 2.14811,-4.5684 8.90194,-1.16609 2.8618,1.44166 3.6578,3.86471 1.50531,4.58221 -2.16111,0.72037 -8.56656,-1.38218 -10.40725,-3.41612 z m 138.33812,-11.78234 c 8.71783,-5.31564 6.37679,-16.80378 -2.66137,-13.06005 -5.88974,2.43961 -10.60672,10.39927 -8.01403,13.52327 1.72012,2.07262 6.88402,1.84855 10.6754,-0.46322 z m -6.97963,-1.67655 c -1.08383,-1.08383 2.00815,-5.88257 4.72834,-7.33838 1.85434,-0.99241 2.91471,-1.08524 3.67796,-0.32199 1.49813,1.49813 -0.44425,4.8595 -3.88799,6.72835 -3.11595,1.69096 -3.64934,1.80099 -4.51831,0.93202 z m 177.80602,572.45801 c -2.6194,-2.06043 -2.73326,-2.49758 -2.2789,-8.75 1.19046,-16.38175 15.98815,-37.43273 35.06926,-49.88901 17.96088,-11.72499 32.32515,-13.11326 36.33687,-3.51188 1.43,3.42247 1.42421,4.26881 -0.0658,9.62799 -4.9388,17.76387 -22.64405,38.68908 -40.84337,48.27132 -12.28562,6.46858 -23.29151,8.12682 -28.21809,4.25158 z m -130.5411,-591.994 -6.76969,-5.16277 2.14087,-4.08723 c 2.74544,-5.24146 2.86607,-14.56312 0.25348,-19.58723 -2.52815,-4.86173 -7.36163,-9.78245 -12.09613,-12.31445 -3.06107,-1.63706 -5.78056,-2.14463 -11.5855,-2.16237 -6.77926,-0.0207 -8.03485,0.28822 -11.81322,2.90664 -2.32525,1.6114 -5.36704,4.8739 -6.75953,7.25 -1.39249,2.3761 -2.81787,4.32018 -3.16751,4.32018 -0.34964,0 -4.56475,-1.40545 -9.36691,-3.12323 l -8.73119,-3.12323 1.50597,-3.62677 c 5.42004,-13.0528 17.56825,-21.90372 31.42441,-22.89512 18.60586,-1.33125 37.32438,9.54258 45.74092,26.57146 3.1531,6.37957 3.80866,8.82222 4.10373,15.29075 0.23016,5.04565 -0.19331,9.54316 -1.22895,13.05223 -1.57134,5.3242 -5.00695,11.85391 -6.23695,11.85391 -0.35426,0 -3.69048,-2.32325 -7.4138,-5.16277 z M 638.158,222.77444 c -5.225,-3.05103 -11.8625,-6.55384 -14.75,-7.78403 -2.99367,-1.27542 -5.25,-2.879 -5.25,-3.7312 0,-2.67679 7.34894,-9.00681 11.86993,-10.22419 10.27493,-2.76675 21.21763,3.9721 24.1126,14.84927 1.16787,4.38801 0.90795,7.18958 -1.14986,12.39365 -1.00571,2.54338 -1.27721,2.66251 -3.21556,1.41088 -1.16441,-0.75188 -6.39211,-3.86335 -11.61711,-6.91438 z m -280,678.41551 c 11.825,-7.57097 26.225,-16.89843 32,-20.72768 15.61503,-10.35391 14.55629,-13.3194 -2.66417,-7.46227 -4.85114,1.65 -9.33998,3 -9.9752,3 -0.63521,0 1.97456,-5.46242 5.7995,-12.13871 9.41385,-16.43153 14.02609,-25.75097 13.31428,-26.9027 -1.04834,-1.69625 -5.54143,-1.04365 -21.28619,3.09173 -8.4815,2.22768 -15.59138,3.87986 -15.79973,3.67151 -0.20835,-0.20835 5.24401,-9.73496 12.11635,-21.17024 6.87234,-11.43528 12.48827,-21.07496 12.47985,-21.42151 -0.008,-0.34654 -0.39223,-1.22454 -0.85291,-1.9511 -0.66659,-1.05132 -4.05148,-0.37321 -16.57986,3.3215 -8.65824,2.55338 -15.93661,4.44816 -16.17414,4.21063 -0.23754,-0.23753 0.22651,-4.20721 1.03121,-8.82149 0.90958,-5.21567 1.10897,-8.74902 0.52705,-9.33962 -1.66074,-1.6855 -2.82542,0.71551 -5.50877,11.35643 -3.68209,14.6015 -3.77552,14.54278 14.61693,9.18539 7.82906,-2.28046 14.36525,-4.0157 14.52487,-3.85609 0.15961,0.15962 -5.31163,9.50938 -12.15831,20.77724 -6.84669,11.26787 -12.32293,21.16203 -12.16943,21.98703 0.48123,2.58636 4.15942,2.2451 20.86946,-1.93624 8.92433,-2.23313 16.38435,-3.90196 16.57781,-3.7085 0.19346,0.19346 -2.83671,6.1137 -6.73371,13.15609 -12.0946,21.85651 -13.31291,24.5592 -11.76743,26.10468 1.05343,1.05344 2.19141,1.11814 5.17522,0.29427 2.10368,-0.58085 3.9774,-0.90355 4.16384,-0.71711 0.18644,0.18643 -7.61515,5.35984 -17.33686,11.49647 -9.72172,6.13662 -17.81416,11.01917 -17.98321,10.85012 -0.16905,-0.16905 4.66534,-9.49489 10.74309,-20.72408 6.07775,-11.2292 11.05046,-21.12639 11.05046,-21.99377 0,-4.61216 -4.0268,-4.47607 -23.85637,0.80625 -5.146,1.37083 -9.52036,2.32842 -9.7208,2.12798 -0.20044,-0.20044 5.04371,-9.31669 11.65368,-20.25834 12.87665,-21.31505 14.04028,-24.69605 8.71107,-25.31062 -1.49183,-0.17203 -6.14454,0.65026 -10.33935,1.82733 -4.1948,1.17706 -7.79767,1.96936 -8.00636,1.76067 -0.2087,-0.2087 0.72083,-3.05599 2.0656,-6.32732 2.78091,-6.76488 3.0258,-8.44788 1.22924,-8.44788 -1.39564,0 -10.73671,16.79614 -10.73671,19.30564 0,2.84423 1.81316,2.81205 12.18552,-0.21625 5.63521,-1.64525 10.39475,-2.84245 10.57676,-2.66044 0.18201,0.18201 -5.53736,9.94745 -12.70971,21.70099 -7.17236,11.75353 -13.04333,22.10942 -13.04661,23.01307 -0.003,0.90366 0.61147,1.87994 1.36611,2.16952 0.75464,0.28959 8.29214,-1.22642 16.75,-3.36889 17.12235,-4.33729 16.87793,-4.29307 16.87793,-3.0539 0,0.82794 -6.9342,13.62826 -20.37426,37.61026 -5.91237,10.54986 -6.76492,13.51453 -3.87574,13.47768 0.9625,-0.0123 11.425,-6.21676 23.25,-13.78773 z m 446.67592,-7.22026 c 15.01234,-1.51623 33.1935,-7.44326 44.25822,-14.42811 2.34015,-1.47728 4.01668,-2.92409 3.72563,-3.21515 -0.29106,-0.29105 -5.03027,1.31652 -10.53159,3.57238 -15.34085,6.29067 -28.31093,9.1906 -43.946,9.82571 -17.81209,0.72354 -32.13036,-1.37496 -50.56606,-7.411 -1.33598,-0.43741 -1.74861,-0.20915 -1.41878,0.78484 0.73173,2.20516 12.4072,6.58457 23.32937,8.75074 12.4192,2.46307 24.52627,3.1935 35.14921,2.12059 z m 8.32408,-15.0074 c 39.42918,-3.16684 74.25063,-25.59733 90.75781,-58.46229 4.44052,-8.84085 8.94499,-22.26087 10.81646,-32.22512 2.31085,-12.30358 1.53872,-35.71541 -1.52615,-46.27488 -8.42275,-29.01907 -30.28903,-56.64794 -60.0105,-75.82552 -8.89731,-5.74092 -20.09836,-11.44708 -20.8989,-10.64653 -0.61172,0.61172 -0.96208,0.3677 8.6327,6.01262 48.69806,28.65063 76.01666,74.49625 70.29727,117.9717 -2.53662,19.28189 -8.0587,34.73826 -17.45754,48.86384 -17.4238,26.18634 -45.21594,42.15691 -81.2562,46.69332 -9.26411,1.16608 -38.64276,0.77255 -45.85495,-0.61424 -2.31145,-0.44445 -2.62795,-0.33853 -1.37897,0.46149 4.53912,2.90752 32.56485,5.27559 47.87897,4.04561 z m 34,-21.38618 c 28.9619,-11.83312 48.16388,-34.03417 56.70784,-65.56478 2.17278,-8.01845 2.57731,-11.63026 2.57731,-23.01133 0,-11.47187 -0.39786,-14.96997 -2.64833,-23.28465 -3.31057,-12.23139 -6.94358,-20.2949 -14.17737,-31.46683 -7.08734,-10.94577 -23.84549,-27.66722 -35.46851,-35.39083 -12.64832,-8.40494 -33.03245,-18.14952 -34.62809,-16.55387 -0.27674,0.27673 4.8687,3.27973 11.4343,6.67333 32.28638,16.68803 56.39272,42.5084 66.05438,70.75106 2.62758,7.68088 5.14847,21.76863 5.14847,28.77179 0,19.27098 -9.61199,45.10535 -23,61.81764 -8.37992,10.46068 -17.11276,17.46895 -29.17552,23.41391 -5.32153,2.62265 -9.70903,5.10595 -9.75,5.51845 -0.10539,1.06127 0.71855,0.86213 6.92552,-1.67389 z M 293.26857,822.39057 c 39.82586,-27.12179 54.27701,-37.17136 56.70592,-39.43423 4.51938,-4.21044 2.96629,-5.1456 -15.59851,-9.39226 -9.49127,-2.17111 -17.1356,-4.28945 -16.98741,-4.70742 0.14818,-0.41796 10.39443,-7.26955 22.76943,-15.22575 27.79991,-17.87326 26.4913,-16.90823 25.70535,-18.95638 -0.46178,-1.20336 -1.84725,-1.67666 -4.92397,-1.68208 -2.35476,-0.004 -7.13401,-0.47045 -10.62055,-1.0362 -7.56672,-1.22784 -4.40749,-2.79633 -47.16083,23.41434 -23.49006,14.40099 -28.5,17.8616 -28.5,19.68636 0,1.9569 1.68348,2.78608 14.5,7.14183 7.975,2.71033 14.85556,5.27744 15.29014,5.70469 0.43458,0.42725 -4.96542,7.51226 -12,15.74446 -25.98273,30.40625 -27.51275,32.32957 -26.92889,33.85109 0.31679,0.82554 1.20236,1.50098 1.96794,1.50098 0.76558,0 12.3672,-7.47424 25.78138,-16.60943 z m -9.11057,-0.78399 c 0,-0.21638 6.07183,-7.52888 13.49295,-16.25 7.42113,-8.72112 13.49613,-16.49615 13.5,-17.27784 0.0143,-2.88635 -3.28182,-4.83593 -15.47919,-9.15557 -6.86932,-2.43274 -12.47891,-4.64817 -12.46575,-4.92317 0.0223,-0.46533 33.30611,-21.00544 52.84577,-32.61217 7.82021,-4.64528 9.04004,-5.0699 13.35622,-4.64931 2.6125,0.25458 4.75,0.80359 4.75,1.22004 0,0.41644 -2.8125,2.49023 -6.25,4.60842 -13.55519,8.35273 -37.37132,24.27181 -38.69057,25.86141 -2.64309,3.18472 1.2782,5.11866 17.44057,8.6015 8.25,1.7778 15.37757,3.57343 15.83905,3.99028 0.84323,0.76171 -1.20132,2.24231 -37.7299,27.32279 -19.33151,13.27301 -20.60915,14.09527 -20.60915,13.26362 z m -62.47666,-69.59499 c 1.11284,-0.42869 16.86284,-9.45323 35,-20.05453 18.13716,-10.60129 37.01221,-21.62086 41.94454,-24.48793 13.75442,-7.99517 13.86895,-9.50632 1.0948,-14.4449 -4.75198,-1.83715 -8.8255,-3.64046 -9.05225,-4.00736 -0.22676,-0.3669 9.35313,-5.16055 21.28864,-10.65256 C 337.4578,666.6304 337.63235,666.42078 326.41604,661 c -3.98308,-1.925 -7.24558,-3.72577 -7.25,-4.00172 -0.004,-0.27594 2.01696,-1.57597 4.49196,-2.88896 2.86616,-1.5205 4.5,-3.06294 4.5,-4.24828 0,-1.02357 -0.46283,-1.86104 -1.02852,-1.86104 -1.63835,0 -12.57647,5.74784 -14.39083,7.5622 -2.22169,2.2217 -0.85162,3.76742 6.73286,7.59606 3.26325,1.64728 5.54017,3.36882 5.05983,3.82565 -0.48034,0.45683 -3.57334,1.95812 -6.87334,3.3362 -3.3,1.37809 -12.66537,5.72101 -20.81193,9.65094 -18.6325,8.9884 -18.8241,9.65306 -4.45837,15.46592 5.35134,2.16533 9.62634,4.02844 9.5,4.14026 C 300.76426,700.57152 238.09116,737 237.50398,737 c -0.42628,0 7.46282,-8.28169 17.53134,-18.40377 12.775,-12.84295 18.2031,-18.96161 17.96454,-20.25 -0.21388,-1.15504 -3.58726,-3.53094 -9.01057,-6.34623 -4.76778,-2.475 -8.97467,-4.80689 -9.34863,-5.18197 -0.37396,-0.37508 1.52575,-1.33698 4.22157,-2.13756 10.98857,-3.26325 47.89406,-16.91046 49.20987,-18.19722 1.83749,-1.79692 0.24547,-3.85104 -5.0972,-6.57666 -2.0993,-1.07098 -3.8169,-2.15551 -3.8169,-2.41007 0,-0.25455 2.19384,-1.57453 4.87521,-2.93328 5.12325,-2.59615 6.80847,-4.80807 4.81535,-6.32035 -0.65481,-0.49683 -5.24056,-2.37735 -10.19056,-4.17893 -35.06551,-12.76226 -59.37225,-27.1958 -79.1969,-47.02775 -34.79986,-34.81267 -43.53717,-77.18978 -23.14777,-112.26981 8.90502,-15.32112 20.92933,-27.62179 37.84467,-38.71446 5.225,-3.42643 10.05304,-6.68709 10.72899,-7.24591 3.06941,-2.53757 -1.01849,-4.65588 -25.68938,-13.312 -13.77178,-4.83201 -25.03961,-9.15407 -25.03961,-9.60457 0,-0.4505 1.0125,-1.34848 2.25,-1.99552 1.2375,-0.64703 6.4125,-3.85913 11.5,-7.138 7.98862,-5.14863 9.25,-6.33756 9.25,-8.71876 0,-2.29153 -3.39434,-5.94751 -20.09801,-21.64718 -30.78094,-28.93083 -39.60569,-37.57228 -37.19016,-36.4177 3.83754,1.83427 86.06766,51.77065 88.00949,53.44606 0.12173,0.10502 -4.62235,3.40269 -10.54239,7.32815 -12.38888,8.21482 -14.51352,10.21798 -13.53693,12.76294 0.60149,1.56745 21.08914,12.07468 37.858,19.41573 l 5,2.1889 -7,3.7033 c -3.85,2.03682 -9.025,5.12074 -11.5,6.85315 -5.37707,3.76375 -13.61331,12.0495 -12.79295,12.86985 0.32027,0.32027 3.6672,-1.65694 7.43763,-4.39381 7.15868,-5.19632 18.15912,-11.24029 27.10532,-14.89248 5.7158,-2.33341 6.63098,-4.34906 3,-6.60741 -1.2375,-0.76968 -11.35964,-5.61756 -22.49364,-10.77305 -11.134,-5.1555 -20.24245,-9.59863 -20.24101,-9.87363 0.001,-0.275 5.62359,-4.22943 12.49364,-8.78761 6.87006,-4.55819 12.49101,-8.87595 12.49101,-9.59502 0,-0.71907 -0.7875,-1.98181 -1.75,-2.8061 -2.19895,-1.88318 -35.32377,-22.12331 -71.25,-43.5356 -15.125,-9.01461 -31.95117,-19.08814 -37.39148,-22.38563 -9.45175,-5.7289 -12.60852,-6.61978 -12.60852,-3.55827 0,0.767 2.3625,3.56916 5.25,6.22701 6.13123,5.64361 55.89753,52.57783 66.5,62.71564 3.9875,3.81275 7.25,7.22412 7.25,7.58082 0,0.3567 -5.2875,3.99485 -11.75,8.08478 -14.07875,8.91002 -15.26636,9.85376 -14.59656,11.59924 0.62244,1.62206 9.48839,5.05275 34.76595,13.45274 15.1405,5.03134 18.60397,6.50891 17.3402,7.39756 -0.86855,0.61074 -5.68812,3.99037 -10.71015,7.51028 -11.46598,8.03645 -26.006,23.25922 -32.42915,33.9519 -9.15159,15.23477 -14.52468,36.00482 -13.08987,50.59981 2.88339,29.32999 18.41063,56.14943 45.46958,78.53738 16.46554,13.6232 47.44556,31.12043 66.74951,37.69951 4.53723,1.54636 8.24973,3.13991 8.25,3.54124 2.7e-4,0.40132 -1.91201,1.69927 -4.24951,2.88433 -4.02535,2.04077 -5.70014,3.52248 -5.73469,5.07358 -0.008,0.37817 2.27966,1.93667 5.08463,3.46332 l 5.09993,2.77573 -2.84993,1.19392 c -1.56747,0.65665 -12.29994,4.46379 -23.84994,8.4603 -30.64748,10.60459 -30,10.34666 -30,11.95045 0,0.85933 4.45924,3.75062 10.74784,6.96869 5.91131,3.025 10.74881,5.78431 10.75,6.13179 10e-4,0.34749 -10.68534,11.53904 -23.74784,24.8701 -13.0625,13.33107 -23.9047,24.90706 -24.09378,25.72443 -0.4969,2.14804 1.03117,3.18515 3.36712,2.28527 z m 60.55059,-3.30965 c 2.43434,-1.84104 7.23857,-5.2439 10.67607,-7.5619 6.90558,-4.65664 8.0423,-6.7485 3.13366,-5.76677 -6.28425,1.25685 -21.49179,12.30235 -20.60418,14.96517 0.69014,2.07043 2.45495,1.64536 6.79445,-1.6365 z m 59.35464,-38.27337 c 2.11656,-2.11656 1.97967,-4.74915 -0.35691,-6.86372 -3.43861,-3.1119 -9.00693,0.73997 -7.39102,5.11271 1.31971,3.57116 5.07834,4.4206 7.74793,1.75101 z m 539,-56 c 0.86429,-0.86428 1.57143,-2.21428 1.57143,-3 0,-1.63094 -3.49782,-5.42857 -5,-5.42857 -1.33034,0 -5,3.71791 -5,5.06574 0,4.39498 5.28701,6.50439 8.42857,3.36283 z m -673.03576,-0.60466 c 3.13769,-10.74048 5.66147,-13.63171 13.85719,-15.8747 5.42963,-1.48598 4.67577,-3.50953 -2.52354,-6.77386 -6.48913,-2.94231 -8.48093,-5.57959 -10.18967,-13.49179 -0.94828,-4.39094 -3.44466,-2.89397 -5.53062,3.31644 -2.01685,6.00468 -4.61168,8.53256 -11.29139,11.00002 -5.36866,1.98317 -5.40634,4.12278 -0.10216,5.80187 5.46224,1.72912 9.40145,6.0346 10.88946,11.90195 1.18405,4.66882 4.03002,7.06633 4.89073,4.12007 z m -5.80903,-15.54404 -2.90072,-3.22013 3.80375,-3.91925 3.80375,-3.91926 3.75448,3.94677 3.75447,3.94677 -4.14975,3.88137 c -2.28237,2.13475 -4.37825,3.57143 -4.65751,3.19261 -0.27926,-0.37881 -1.81307,-2.13781 -3.40847,-3.90888 z m 624.74955,1.05346 c 0.36667,-0.36666 0.66667,-1.73112 0.66667,-3.03212 0,-5.11621 2.70797,-9.18199 7.69141,-11.54797 6.16659,-2.92771 6.16064,-4.77764 -0.0205,-6.35445 -6.00606,-1.53216 -8.03252,-3.32457 -9.57346,-8.46776 -1.12251,-3.74662 -3.40734,-5.95451 -4.76108,-4.60076 -0.31755,0.31754 -0.97415,2.70132 -1.45913,5.29729 -1.04189,5.57693 -2.55962,7.47452 -7.90691,9.88581 -5.09759,2.29869 -5.37406,5.13267 -0.58831,6.03048 5.68533,1.06658 9.23894,3.89685 11.13877,8.87149 1.62646,4.25882 3.19483,5.53568 4.81251,3.91799 z m -8.068,-15.2173 c -1.61094,-0.91302 -1.62508,-1.11489 -0.16163,-2.30827 0.88203,-0.71927 2.24219,-2.27427 3.02257,-3.45556 l 1.41887,-2.14781 3.25888,2.91181 3.25889,2.91182 -2.74721,3.44296 c -2.68126,3.36032 -2.78968,3.39739 -4.51612,1.54427 -0.97291,-1.04429 -2.56332,-2.34894 -3.53425,-2.89922 z M 252.158,610.69477 c 0,-0.28557 -2.84037,-2.54606 -6.31194,-5.02332 -13.33291,-9.51417 -28.05491,-27.52631 -35.2805,-43.16515 -5.8398,-12.63948 -7.68366,-21.17965 -7.77393,-36.0063 -0.0906,-14.87597 1.82018,-23.49387 7.87469,-35.51652 4.14579,-8.23244 4.29116,-9.08318 1.02829,-6.01788 -2.9077,2.73165 -9.64964,16.2262 -12.0077,24.0344 -5.53663,18.33336 -1.25159,43.72307 10.88466,64.49376 5.11049,8.7464 21.50564,25.47217 31.17486,31.80354 7.10746,4.65393 10.41157,6.36682 10.41157,5.39747 z m 667.78778,-2.44411 c 22.65174,-0.24473 26.37009,-0.49848 26.88279,-1.83455 0.32725,-0.8528 0.17178,-1.97376 -0.34547,-2.49101 -0.51726,-0.51726 -11.4428,-3.8528 -24.27898,-7.41231 -12.83617,-3.55951 -23.50722,-6.64056 -23.71344,-6.84678 -0.20622,-0.20622 1.45569,-4.3562 3.69314,-9.22217 2.2586,-4.91196 3.93601,-9.98072 3.77114,-11.39553 -0.37138,-3.18697 -0.2588,-3.18992 -31.92809,0.83753 -23.32326,2.96607 -23.75645,2.98438 -33.25,1.40574 -5.29038,-0.87971 -9.61887,-1.9204 -9.61887,-2.31264 0,-0.39224 1.6875,-1.84751 3.75,-3.23393 11.26479,-7.57223 27.27523,-24.23881 35.7787,-37.24501 14.62112,-22.36322 21.4462,-44.4705 20.15604,-65.28796 -0.73833,-11.91348 -2.65204,-19.29998 -7.69788,-29.71204 -10.72401,-22.12894 -32.24443,-40.22251 -58.20617,-48.93758 -8.31591,-2.79156 -9.78069,-3.03716 -9.78069,-1.63997 0,0.50734 1.6875,1.46504 3.75,2.12822 5.39572,1.73493 20.74115,9.50466 27.074,13.70817 8.24949,5.4757 21.29646,18.32687 26.53894,26.14065 10.90202,16.24919 14.11229,27.60208 13.31864,47.10051 -0.62353,15.31895 -2.70127,23.02577 -10.64909,39.5 -9.65585,20.01466 -23.55191,36.57944 -42.28249,50.40281 -11.63476,8.58658 -12.33624,10.45325 -4.5,11.97474 2.8875,0.56063 8.625,1.69207 12.75,2.51429 7.17292,1.42976 8.60332,1.36146 32.79906,-1.56604 13.91449,-1.68355 25.50566,-2.85441 25.75817,-2.6019 0.2525,0.2525 -1.14666,3.93454 -3.10924,8.18231 -5.73885,12.42098 -5.88178,12.2284 13.04432,17.57553 l 15.99232,4.51826 -24.99232,0.61525 c -13.74577,0.33839 -25.11835,0.51235 -25.27239,0.38659 -0.15404,-0.12577 1.50661,-3.9233 3.69033,-8.43896 2.18372,-4.51567 3.72412,-8.85213 3.42309,-9.63659 -0.71362,-1.85966 -8.91511,-1.84021 -33.83334,0.0802 -24.87967,1.91748 -22.95703,1.98405 -21.0567,-0.72905 1.78759,-2.55214 2.0245,-5.37034 0.52915,-6.29452 -0.56515,-0.34928 -7.20265,-1.18654 -14.75,-1.86058 l -13.72245,-1.22548 6.5,-3.33793 c 12.56909,-6.45456 30.43897,-19.95329 28.70717,-21.6851 -0.34231,-0.3423 -2.77895,0.92487 -5.41477,2.81594 -8.47369,6.07944 -19.49169,12.11591 -31.7924,17.41822 -11.98795,5.16749 -15.09669,7.81736 -10.31644,8.79365 1.27404,0.26021 9.72157,0.96891 18.77228,1.5749 9.05071,0.60599 16.6341,1.28007 16.85199,1.49796 0.21789,0.21789 -0.32473,1.42539 -1.20583,2.68334 -0.8811,1.25794 -1.602,3.31204 -1.602,4.56467 0,2.04947 0.47556,2.27811 4.75,2.28366 2.6125,0.003 14.99963,-0.73448 27.52695,-1.63972 12.52732,-0.90524 23.01826,-1.40458 23.31319,-1.10965 0.29493,0.29494 -1.32168,4.23145 -3.59246,8.74782 -2.27078,4.51636 -3.88834,8.83793 -3.59457,9.60347 0.42317,1.10277 3.08536,1.34358 12.81551,1.15925 6.75476,-0.12797 24.11088,-0.36047 38.56916,-0.51668 z M 929.20953,571.25 c 2.50588,-6.87721 3.38076,-8.44488 5.75526,-10.31266 1.39484,-1.09718 4.48393,-2.48535 6.86464,-3.08482 5.89622,-1.48469 5.83184,-4.0067 -0.16068,-6.29526 -5.49321,-2.09788 -8.06567,-5.21843 -10.11601,-12.27134 -1.89608,-6.52228 -4.22262,-6.81209 -6.19949,-0.77226 -1.85048,5.65368 -5.77701,9.30888 -11.91747,11.09396 -3.12594,0.90874 -5.27778,2.105 -5.27778,2.93404 0,0.76986 2.45168,2.55958 5.44817,3.97715 5.64358,2.66984 8.77541,6.38067 10.11177,11.98119 1.40291,5.87944 3.89634,7.12807 5.49159,2.75 z M 926.158,561.03333 c 0,-0.53166 -1.50005,-2.46672 -3.33346,-4.30012 l -3.33345,-3.33345 4.50923,-3.92256 c 3.12004,-2.71411 4.64748,-3.50779 4.95799,-2.57627 0.24682,0.74045 1.68091,2.72529 3.18688,4.41077 l 2.73813,3.06449 -3.61266,3.6622 c -3.78105,3.83291 -5.11266,4.61295 -5.11266,2.99494 z m -73.29031,-30.11921 c 9.77588,-10.5382 20.36499,-29.76185 23.91415,-43.41412 2.53649,-9.75695 2.55228,-29.70674 0.0301,-38 -4.43693,-14.58908 -12.3907,-26.53905 -23.71112,-35.62428 -6.3791,-5.11955 -17.94282,-11.58474 -17.94282,-10.0317 0,0.48005 2.5875,2.58069 5.75,4.66809 17.35239,11.4534 29.11428,29.83973 32.32449,50.53005 2.89682,18.67046 -4.98396,46.03146 -19.31161,67.04725 -2.40375,3.52582 -4.71031,6.97309 -5.12569,7.66059 -1.48401,2.45623 0.3442,1.18316 4.0725,-2.83588 z M 166.05848,454.98066 C 169.68696,452.52291 171.47482,452 176.24946,452 c 3.18478,0 6.03549,-0.39639 6.33492,-0.88088 0.29942,-0.48448 -0.83934,-2.62198 -2.53059,-4.75 -2.92262,-3.67739 -3.04183,-4.17883 -2.4058,-10.11912 0.77335,-7.22273 0.17774,-7.6208 -5.23681,-3.5 -3.22646,2.45554 -4.34362,2.72491 -10.43327,2.51569 -4.06123,-0.13952 -6.81991,0.17253 -6.81991,0.77144 0,0.55316 1.16989,2.77357 2.59975,4.93423 2.24015,3.38511 2.55137,4.78656 2.25,10.13206 -0.20132,3.5708 0.0747,6.34241 0.65025,6.53073 0.55,0.17994 2.98022,-1.01413 5.40048,-2.65349 z m -0.90048,-8.5464 c 0,-1.41116 -0.46583,-3.43616 -1.03518,-4.5 -0.91485,-1.7094 -0.69185,-1.93426 1.91821,-1.93426 1.62437,0 3.60775,-0.2511 4.40752,-0.558 0.95112,-0.36498 1.62676,0.24037 1.95319,1.75 0.27449,1.2694 0.83008,3.0955 1.23465,4.058 0.57923,1.37802 0.23459,1.75325 -1.6214,1.76531 -1.29635,0.008 -3.03199,0.45153 -3.85699,0.98469 -2.36013,1.52523 -3,1.19127 -3,-1.56574 z m 749.47636,1.3989 c 0.26258,-0.73324 1.05107,-3.12948 1.75221,-5.32499 1.12375,-3.51885 1.92325,-4.25032 6.74762,-6.17351 3.01005,-1.19992 5.63427,-2.66603 5.83159,-3.25801 0.19733,-0.59198 -1.5912,-1.91809 -3.9745,-2.9469 -5.48571,-2.36805 -7.57009,-4.71259 -8.60104,-9.67458 -1.22796,-5.9102 -3.65741,-5.70189 -5.714,0.48992 -1.5908,4.78943 -4.49982,8.05491 -7.17565,8.05491 -0.66681,0 -2.35809,0.43559 -3.75839,0.96799 -3.49142,1.32743 -2.35289,3.74794 2.35982,5.01694 4.66305,1.25563 6.74826,3.51367 8.34839,9.04039 1.26853,4.38141 3.31242,6.24156 4.18395,3.80784 z m -3.94952,-18.10259 2.82653,-2.43128 2.21411,2.57406 2.21411,2.57405 -2.14079,2.67986 -2.1408,2.67986 -2.89984,-2.82263 -2.89985,-2.82264 z M 301.17477,414.4559 c 0.53199,-1.39926 1.24643,-3.65638 1.58762,-5.01582 0.79351,-3.16159 4.60037,-6.14886 9.52616,-7.47523 5.39598,-1.45299 4.89065,-3.53845 -1.54732,-6.38562 -5.95704,-2.63449 -8.0847,-5.16075 -9.12054,-10.82923 -0.85376,-4.67203 -4.09351,-5.31937 -5.00473,-1 -1.6187,7.67301 -4.64245,10.93455 -11.70796,12.62871 -4.31728,1.03519 -3.6653,4.29774 1.11613,5.58524 4.77995,1.28711 8.78875,5.1606 9.6859,9.35898 1.25625,5.8788 3.85444,7.36836 5.46474,3.13297 z M 295.858,402.5 l -3.5,-3.5 3.4,-3.4 3.4,-3.4 3.40711,3.40711 3.40711,3.40711 -3.15711,3.36565 c -1.73641,1.85111 -3.22461,3.42291 -3.30711,3.49289 -0.0825,0.07 -1.725,-1.44776 -3.65,-3.37276 z m 493.23025,-12.75 c 0.48806,-1.2375 1.40808,-3.65234 2.04451,-5.36631 1.16676,-3.14225 3.02753,-4.48315 8.52524,-6.14344 4.57822,-1.3826 4.38863,-3.89373 -0.40234,-5.32914 -5.09073,-1.52522 -7.78264,-4.3845 -9.40575,-9.99058 -1.60834,-5.55508 -3.76125,-5.72024 -5.48175,-0.42053 -0.71421,2.2 -2.29117,4.99261 -3.50436,6.2058 -1.21319,1.21319 -4.0058,2.79015 -6.2058,3.50436 -5.07557,1.64773 -5.10063,3.70753 -0.0663,5.45046 5.39149,1.86658 7.21241,3.75782 9.10537,9.45699 1.74897,5.26565 3.93223,6.33169 5.39119,2.63239 z m -6.49436,-13.13623 c -1.38597,-0.53185 -1.20688,-1.11231 1.21981,-3.95346 l 2.8443,-3.33009 2.61624,3.05596 2.61624,3.05595 -2.59941,3.25773 -2.5994,3.25773 -1.23665,-2.36022 c -0.68015,-1.29812 -1.96766,-2.64074 -2.86113,-2.9836 z m 98.99268,-2.1852 c 2.10676,-2.10675 1.97915,-4.02085 -0.42857,-6.42857 -2.40751,-2.40751 -2.91734,-2.44663 -5.77749,-0.4433 -2.41791,1.69357 -2.93181,5.334 -1.02251,7.2433 1.68275,1.68275 5.36352,1.49362 7.22857,-0.37143 z m -616.04383,-3.07442 c 5.70079,-2.41819 6.03488,-2.44711 10.6879,-0.92518 8.48434,2.77508 9.29397,2.17013 5.92736,-4.42897 -2.3892,-4.68322 -2.51372,-7.83472 -0.5,-12.65424 2.83216,-6.77831 1.44568,-7.92843 -5.23882,-4.34576 -2.05236,1.1 -4.76865,2 -6.03621,2 -1.26755,0 -4.06879,-0.9 -6.22497,-2 -7.18459,-3.66531 -8.66531,-2.18459 -5,5 2.44679,4.79611 2.50082,7.13028 0.30675,13.25181 -2.3023,6.42347 -1.17991,7.18102 6.07799,4.10234 z m 0.0646,-10.73657 -0.0506,-5.38046 4.80064,0.0724 c 4.72754,0.0713 4.80065,0.12157 4.80065,3.29965 0,1.77498 0.30053,4.01039 0.66784,4.96759 0.5638,1.46925 0.2133,1.65949 -2.25,1.22126 -2.21141,-0.39342 -7.91784,0.40029 -7.91784,1.1013 0,0.0543 -0.0228,-2.3225 -0.0507,-5.28176 z M 223.158,359.58156 c 0,-0.78014 -1.575,-2.39184 -3.5,-3.58156 -3.29556,-2.03677 -3.5,-2.47618 -3.5,-7.52254 0,-5.38294 -1.46942,-7.9244 -3.09649,-5.35558 -0.48009,0.75797 -0.87978,3.30474 -0.8882,5.6595 -0.0194,5.42812 -1.82261,6.23012 -6.31077,2.80683 -3.3801,-2.57813 -7.70454,-3.47753 -7.70454,-1.6024 0,0.5422 1.76623,2.15465 3.92494,3.58322 2.15872,1.42857 4.19121,3.29127 4.51664,4.13933 0.45799,1.19351 1.49644,1.39726 4.59553,0.9017 2.71408,-0.434 4.94764,-0.15218 6.93371,0.87485 3.65532,1.89024 5.02918,1.91664 5.02918,0.0967 z M 832.64282,348.5689 c 9.09998,-7.43561 14.23494,-11.02233 14.70089,-10.26842 0.39383,0.63724 1.01542,2.96781 1.3813,5.17906 0.83037,5.01835 2.10933,7.52046 3.84411,7.52046 0.73741,0 5.59839,-5.2875 10.80217,-11.75 23.65126,-29.37217 33.78671,-42.50094 33.78671,-43.765 0,-4.05964 -2.40029,-2.72145 -21.36788,11.91289 -7.62734,5.88482 -14.10315,10.46441 -14.3907,10.17687 -0.28755,-0.28755 -1.247,-4.24701 -2.13212,-8.79879 -1.33562,-6.86856 -1.94942,-8.32302 -3.6093,-8.55266 -1.44874,-0.20043 -2.82127,1.03992 -4.97958,4.5 -1.63877,2.62718 -10.10233,15.27521 -18.80791,28.10673 -14.59994,21.51945 -16.93772,25.93348 -14.21251,26.83505 0.55,0.18196 7.29317,-4.81133 14.98482,-11.09619 z m 16.81653,-16.68656 c -1.3657,-1.34404 -3.78192,-0.0394 -11.30135,6.10236 -5.00779,4.09026 -7.61465,5.80215 -6.73048,4.41981 0.3182,-0.49748 5.53196,-8.26688 11.58613,-17.26534 l 11.00758,-16.36082 1.08524,4.36082 c 0.59688,2.39846 1.43111,5.70774 1.85384,7.35396 1.11942,4.35929 3.57213,4.21431 9.9971,-0.59091 3.13532,-2.34491 7.2529,-5.41968 9.15017,-6.83284 1.89728,-1.41316 3.04553,-1.89438 2.55169,-1.06938 -1.18013,1.97147 -14.64714,19.03475 -20.42999,25.88566 l -4.54602,5.38566 -1.51263,-5.10467 c -0.83195,-2.80756 -2.05202,-5.6355 -2.71128,-6.28431 z m -36.30135,10.7485 c 0,-0.89696 -0.36399,-1.63084 -0.80887,-1.63084 -0.44488,0 -1.59639,-0.57585 -2.55891,-1.27966 -1.65795,-1.21232 -1.6417,-1.53242 0.30887,-6.08291 2.39444,-5.586 2.63164,-8.63743 0.67143,-8.63743 -0.76312,0 -2.63461,2.93437 -4.15887,6.52082 -2.19584,5.16661 -3.3095,6.63768 -5.36252,7.08352 -4.52802,0.98333 -5.09113,1.29918 -5.09113,2.85561 0,1.17108 1.09693,1.4879 4.75,1.37195 2.6125,-0.0829 6.4375,0.20485 8.5,0.63951 3.12344,0.65823 3.75,0.51779 3.75,-0.84057 z M 255.46023,329.36443 c 1.63622,-1.63622 0.0765,-3.98663 -11.29753,-17.02413 -6.59741,-7.56234 -11.65991,-14.03832 -11.25,-14.39106 0.40992,-0.35274 4.4578,-1.67315 8.9953,-2.93424 6.49263,-1.80448 8.25,-2.68272 8.25,-4.12293 0,-2.57997 -54.08332,-43.18106 -56.35753,-42.30837 -0.90336,0.34665 -1.64247,1.08301 -1.64247,1.63634 0,0.55333 6.75,8.82346 15,18.37806 8.25,9.55459 15,17.73231 15,18.17269 0,0.44038 -4.0309,1.61549 -8.95755,2.61134 -9.52889,1.92614 -12.18379,3.53771 -10.05454,6.10331 1.27297,1.53383 48.04113,33.20474 50.3304,34.08321 0.70739,0.27145 1.60015,0.17955 1.98392,-0.20422 z m -31.06529,-24.81956 c -7.20578,-4.92532 -12.91787,-9.25212 -12.69353,-9.6151 0.22433,-0.36299 3.23134,-1.20585 6.68224,-1.87304 6.377,-1.23291 10.77435,-3.30816 10.77435,-5.08477 0,-0.82912 -4.58685,-6.44554 -15.41086,-18.87001 -2.99871,-3.44211 -0.82378,-2.004 14.72592,9.73713 7.53108,5.68649 13.48662,10.67279 13.23455,11.08065 -0.25208,0.40787 -3.06636,1.31936 -6.25397,2.02553 -7.26402,1.60925 -9.2983,2.66958 -9.28563,4.83992 0.005,0.94315 3.00455,5.2645 6.66455,9.603 3.66,4.3385 6.20662,7.7135 5.65917,7.5 -0.54745,-0.2135 -6.89101,-4.41799 -14.09679,-9.34331 z m 66.76306,14.40547 c 0,-0.57731 -0.74639,-2.48981 -1.65865,-4.25 -0.91225,-1.76019 -2.88413,-6.55763 -4.38195,-10.66099 -4.13788,-11.33597 -6.77599,-10.52501 -3.34788,1.02915 2.24919,7.58067 6.141,14.9315 7.90533,14.9315 0.81573,0 1.48315,-0.47235 1.48315,-1.04966 z m 499.96696,-19.55969 c 15.65472,-6.2814 28.88728,-11.84489 29.4057,-12.36331 0.5901,-0.5901 0.43337,-1.55613 -0.41912,-2.58332 -1.13908,-1.37251 -2.55446,-1.52898 -8.65762,-0.95706 -4.01276,0.37602 -7.29592,0.32066 -7.29592,-0.12302 0,-0.44369 9.9,-10.74248 22,-22.8862 12.1,-12.14372 22,-22.63322 22,-23.31 0,-0.67678 -0.5625,-1.41235 -1.25,-1.63461 -0.6875,-0.22225 -11.4875,-0.70822 -24,-1.07993 -12.5125,-0.37171 -22.75,-1.04804 -22.75,-1.50294 0,-0.45491 6.3555,-10.86732 14.12332,-23.13868 30.77785,-48.62187 36.87668,-58.65978 36.87668,-60.69446 0,-1.16442 -0.57932,-2.11712 -1.28738,-2.11712 -0.70806,0 -8.94759,7.7625 -18.31007,17.25 -14.45462,14.64765 -27.56208,28.43267 -73.60836,77.41345 -3.18681,3.38989 -5.79419,6.86882 -5.79419,7.73094 0,2.04882 1.329,2.29585 22,4.08932 9.625,0.83509 19.43292,1.77352 21.79538,2.0854 l 4.29539,0.56705 -3.29539,4.34058 c -1.81246,2.38733 -10.60788,13.80059 -19.54538,25.36281 -15.09263,19.52495 -17.47187,23.28726 -15.49809,24.50712 0.41356,0.25559 13.56033,-4.67462 29.21505,-10.95602 z m -1.53473,-20.87386 c 9.66227,-12.47456 17.56777,-23.26396 17.56777,-23.97645 0,-2.76459 -3.30374,-3.51613 -23.90828,-5.43873 -11.72164,-1.09374 -21.5399,-2.21646 -21.81837,-2.49493 -0.27847,-0.27846 10.67447,-12.34139 24.33986,-26.80649 27.86522,-29.49593 46.01295,-48.04924 44.79902,-45.80019 -0.4453,0.825 -7.75466,12.525 -16.24303,26 -8.48836,13.475 -16.72394,26.57477 -18.30129,29.1106 -3.45521,5.55477 -3.60018,7.63218 -0.61791,8.85437 1.2375,0.50715 11.37247,1.28501 22.52215,1.72856 L 838.2023,240.5 818.15637,261.36018 c -11.02527,11.4731 -20.50604,21.7199 -21.0684,22.77067 -1.39491,2.60642 -0.37372,3.86915 3.12905,3.86915 1.61754,0 2.93687,0.3375 2.93184,0.75 -0.009,0.73442 -30.18317,13.16132 -30.80863,12.68818 -0.17478,-0.13222 7.58772,-10.44684 17.25,-22.92139 z M 274.8232,303.43008 c 0.33134,-0.86346 -0.34136,-4.8181 -1.49489,-8.78809 -4.08447,-14.05713 -5.43323,-25.11569 -4.89594,-40.14199 0.62173,-17.38781 2.58307,-26.20778 8.67261,-39 6.32185,-13.28026 12.07086,-20.77327 22.0868,-28.78701 18.44205,-14.75547 39.69392,-21.48557 64.58856,-20.4541 15.2503,0.63188 27.55734,3.51208 41.91729,9.80987 5.24739,2.30132 9.77355,3.9514 10.05812,3.66683 1.71676,-1.71677 -16.06411,-10.43055 -28.83689,-14.13196 -19.79394,-5.73606 -39.59699,-5.75585 -57.78827,-0.0578 -36.21434,11.34349 -58.72523,37.15464 -64.02703,73.41385 -1.70637,11.66992 -0.67191,36.99934 1.97922,48.46281 1.13493,4.90739 1.86189,9.12414 1.61547,9.37055 -0.24641,0.24641 -2.22103,-0.95622 -4.38804,-2.67253 -4.64845,-3.68164 -5.14215,-3.7981 -4.4217,-1.04309 C 260.4384,295.18025 271.43615,305 273.2413,305 c 0.53871,0 1.25057,-0.70646 1.5819,-1.56992 z M 737.11578,282.75 c 0.50319,-1.2375 1.17734,-3.87572 1.49811,-5.86271 0.63622,-3.94095 2.61623,-6.17849 7.72506,-8.72979 4.38848,-2.19156 4.19385,-4.15338 -0.57586,-5.80469 -5.68636,-1.96867 -6.60509,-3.08234 -6.60509,-8.00664 0,-5.40538 -1.92559,-6.51663 -6.03169,-3.48086 -3.48916,2.57965 -4.33127,2.62407 -8.05421,0.42488 -3.85502,-2.27722 -5.20468,-0.92645 -3.87739,3.88059 1.25021,4.52788 0.13332,7.66691 -3.95062,11.10333 -4.77487,4.01779 -4.12115,5.72589 2.1914,5.72589 6.52565,0 8.99106,1.62304 12.25779,8.06961 2.75346,5.4337 4.04362,6.07144 5.4225,2.68039 z m -10.5262,-14.77258 c -3.43908,-1.135 -3.49409,-1.23307 -1.98436,-3.53721 0.85403,-1.30341 1.55278,-3.4262 1.55278,-4.7173 0,-2.10482 0.43929,-2.34102 4.25,-2.28518 3.61185,0.0529 4.29759,0.39712 4.56694,2.29234 0.17432,1.22655 1.40726,3.08773 2.73988,4.13596 2.15326,1.69376 2.24977,2.0496 0.86712,3.19709 -0.8557,0.71017 -2.22705,2.58924 -3.04745,4.17572 l -1.49163,2.8845 -1.95807,-2.48928 c -1.07693,-1.3691 -3.54978,-3.01459 -5.49521,-3.65664 z M 280.3261,252.92028 c 3.17353,-22.03013 9.70946,-36.02756 22.84273,-48.92028 4.20196,-4.125 10.16266,-8.99873 13.24601,-10.83052 14.81861,-8.80361 32.95549,-14.13116 48.19316,-14.15634 6.35982,-0.0105 7.70004,-0.26317 6.70033,-1.26314 -0.87493,-0.87516 -5.20811,-1.2462 -14.45,-1.23732 -15.93489,0.0153 -22.05012,1.44162 -36.36346,8.48142 -17.20326,8.46115 -30.72405,22.93174 -37.15773,39.76798 -3.86054,10.1026 -5.41293,19.63156 -5.0076,30.73792 l 0.32846,9 z M 248.05882,246.75 c 1.45707,-3.91977 -0.48071,-6.70649 -4.68304,-6.73469 -3.65943,-0.0246 -4.97976,6.03571 -1.79072,8.21938 2.25547,1.54441 5.63597,0.76913 6.47376,-1.48469 z m 484.77722,-12.5 c 1.23549,-8.64282 0.89252,-31.7535 -0.59731,-40.25 -1.66312,-9.48475 -6.98192,-25.8803 -10.93813,-33.71751 -4.09285,-8.10788 -13.86907,-20.91787 -20.79417,-27.24702 -27.97084,-25.56378 -68.10611,-33.566193 -105.50534,-21.0363 -10.6825,3.57896 -24.16802,10.30386 -32.79081,16.35198 -3.54624,2.48737 -6.75876,4.33026 -7.13892,4.09531 -0.38016,-0.23496 -1.01473,-5.81191 -1.41016,-12.39323 -0.72867,-12.12753 -1.84646,-15.70571 -4.52958,-14.49974 -0.81049,0.36428 -5.29862,4.83944 -9.97362,9.94479 -4.675,5.10535 -8.77396,8.99429 -9.10881,8.64208 -0.50295,-0.52902 -3.20386,-19.99972 -6.50758,-46.912805 -1.12757,-9.185471 -2.23375,-8.625916 -14.37676,7.272445 -5.04101,6.6 -9.49521,12.121806 -9.89821,12.27068 -0.40299,0.148874 -4.45992,-14.926126 -9.01539,-33.5 C 476.22117,6.0662575 476.91299,8.5 474.68208,8.5 c -1.24758,0 -2.24325,0.9215189 -2.70117,2.5 -1.10192,3.798446 -9.84569,77.822473 -9.83354,83.25 0.0133,5.96419 2.43341,6.57679 3.95046,1 0.56106,-2.0625 1.97767,-7.35 3.14803,-11.75 2.60729,-9.802239 3.45376,-11.586893 4.22741,-8.912894 0.3044,1.052092 3.3251,16.762894 6.71267,34.912894 3.38757,18.15 6.53687,33.39725 6.99843,33.88278 1.72901,1.81881 4.0037,-0.59534 13.09015,-13.89264 7.30155,-10.68524 9.4794,-13.25635 10.01423,-11.82249 0.37591,1.00779 1.18434,11.15666 1.7965,22.55305 0.61217,11.39638 1.37711,21.40888 1.69988,22.25 1.28432,3.34687 4.24344,1.03948 12.7608,-9.95031 4.88837,-6.30736 9.21448,-11.26611 9.61359,-11.01945 0.3991,0.24666 1.29658,5.40529 1.9944,11.46362 1.88022,16.32384 2.06155,16.40151 12.68672,5.43398 9.21298,-9.50982 19.77771,-17.83917 29.62669,-23.35799 11.54521,-6.46929 2.09185,-3.96941 -11.09674,2.93447 -4.37476,2.29006 -11.59779,7.4706 -16.68997,11.97044 -4.93755,4.36322 -9.07151,7.83898 -9.18657,7.72393 -0.11506,-0.11506 -0.87601,-5.31602 -1.69101,-11.55769 -0.815,-6.24166 -1.98093,-11.84759 -2.59096,-12.45762 -1.72296,-1.72296 -3.73841,0.0148 -12.55408,10.82442 l -8,9.80946 -0.66351,-4.89398 c -0.36493,-2.69169 -1.15712,-12.95352 -1.76042,-22.80407 -1.25931,-20.56173 -2.34841,-23.43408 -6.99453,-18.44706 -1.098,1.17857 -5.6615,7.5076 -10.1411,14.06452 -4.47961,6.55691 -8.33833,11.72807 -8.57494,11.49147 -0.23661,-0.23661 -3.33453,-15.58382 -6.88428,-34.104903 -3.54974,-18.521085 -6.94716,-34.596032 -7.54981,-35.722104 -0.83595,-1.561987 -1.69762,-1.896342 -3.63437,-1.410248 -2.2555,0.566093 -2.47933,0.380704 -2.0069,-1.662214 0.29246,-1.264654 1.55818,-9.716876 2.81271,-18.782716 l 2.28098,-16.483345 4.19437,16.983345 c 2.30691,9.34084 6.53732,26.658345 9.40093,38.483345 2.86361,11.825 5.8265,22.14565 6.5842,22.93477 2.25479,2.3483 5.17605,-0.06 13.93667,-11.489517 4.4,-5.740442 8.28565,-10.438986 8.63478,-10.44121 0.34912,-0.0022 0.93734,2.583457 1.30713,5.745957 2.04686,17.50456 5.78141,40.81416 6.72031,41.94546 2.08967,2.5179 4.37225,1.23085 12.93799,-7.29521 l 8.63978,-8.59975 0.57415,3.34975 c 0.31578,1.84236 0.85994,6.94975 1.20925,11.34975 0.75917,9.56277 1.2304,11.5 2.79736,11.5 0.65229,0 4.93268,-2.67289 9.51197,-5.93974 C 583.10213,118.99941 606.38625,111 629.11291,111 c 44.73242,0 82.24587,26.99319 95.37212,68.626 4.64921,14.746 6.03383,24.52468 6.10602,43.12269 0.0368,9.48679 0.37207,17.24929 0.74499,17.25 0.37293,7.2e-4 1.04793,-2.58619 1.5,-5.74869 z M 719.82089,199.5 c -1.79873,-23.36878 -13.22417,-46.62043 -29.57814,-60.19379 -8.03225,-6.66655 -23.63712,-14.43749 -35.08475,-17.47155 -11.74412,-3.11265 -31.81766,-3.09091 -43.46376,0.0471 -4.38007,1.18019 -8.43007,2.64018 -9,3.24443 -0.74129,0.78593 -0.44905,0.92205 1.02676,0.47821 5.17137,-1.55525 22.0105,-2.37572 31.62482,-1.5409 18.32559,1.59124 33.02475,6.57368 46.60912,15.79865 16.46341,11.18008 30.75137,34.65393 35.67384,58.60892 0.90087,4.38407 1.90118,8.20907 2.22291,8.5 0.32174,0.29093 0.30787,-3.07103 -0.0308,-7.47103 z m 38.26209,-5.72803 c 0.57468,-0.69958 2.20558,-2.7213 3.62422,-4.49271 2.58729,-3.23066 7.45898,-5.26294 12.64178,-5.27368 3.86681,-0.008 4.35916,-1.69258 1.24814,-4.27048 -6.68075,-5.53592 -7.25435,-6.40806 -7.96727,-12.11414 -0.38808,-3.10607 -1.11286,-5.89909 -1.61063,-6.20673 -0.49776,-0.30764 -2.82946,1.56627 -5.18155,4.16423 -3.96525,4.37975 -4.69151,4.75798 -9.97809,5.19638 -6.73604,0.55861 -7.55296,2.48026 -2.60846,6.13588 3.58833,2.65297 6.85331,9.18787 6.88492,13.78026 0.0247,3.58409 1.37444,4.99526 2.94694,3.08099 z m -1.26254,-13.94939 c -0.90251,-2.29758 -1.53327,-4.24128 -1.40169,-4.31933 0.13159,-0.0781 1.92699,-1.10818 3.98979,-2.28917 l 3.75054,-2.14726 1.39742,3.34451 c 0.76859,1.83948 1.91174,3.66238 2.54034,4.05087 0.69473,0.42936 -0.53973,1.60102 -3.14797,2.98783 -2.35998,1.25481 -4.56011,2.34188 -4.88918,2.41572 -0.32907,0.0738 -1.33673,-1.74559 -2.23925,-4.04317 z m -300.0679,-12.20836 c 0.29248,-0.76218 -0.39664,-3.11802 -1.53138,-5.23519 -2.44229,-4.55678 -2.62459,-9.09957 -0.56316,-14.03327 2.84513,-6.80935 1.46562,-7.89935 -5.5,-4.34576 -2.15618,1.1 -4.7431,2 -5.74872,2 -1.00562,0 -3.59369,-0.9 -5.75128,-2 -4.27351,-2.17876 -7.5,-2.59514 -7.5,-0.96788 0,0.56766 0.71036,2.70516 1.57858,4.75 2.02675,4.7734 2.03392,9.13275 0.0214,13.0245 -3.4757,6.72127 -1.47026,8.70843 5.74576,5.69338 4.81952,-2.01372 7.97102,-1.8892 12.65424,0.5 4.6324,2.36327 5.87882,2.47936 6.59454,0.61422 z m -18.58987,-9.6305 c 0.42519,-1.48255 0.56445,-3.78689 0.30947,-5.12075 -0.4425,-2.31477 -0.22116,-2.42844 4.86113,-2.49638 l 5.32473,-0.0712 0.071,5.11443 0.071,5.11442 -5.70517,0.0775 -5.70517,0.0775 z m -37.63441,1.10852 c -4.81894,-4.38689 -15.22632,-7.42356 -25.44608,-7.42465 -4.7167,-5.1e-4 -9.11154,0.33017 -9.76631,0.73484 -2.19783,1.35834 -0.078,2.59757 4.44331,2.59757 5.49562,0 18.00435,2.50816 25.36416,5.08584 7.73084,2.70762 9.17836,2.44152 5.40492,-0.9936 z m 1.22559,-21.96631 c 0.93988,-5.87767 4.46467,-11.32027 8.92453,-13.78028 5.91462,-3.26244 6.80912,-4.2437 5.40772,-5.93229 C 415.44095,116.63601 413.98529,116 412.85128,116 c -1.13401,0 -3.94824,-0.9132 -6.25386,-2.02933 -3.28419,-1.58984 -4.88747,-3.33409 -7.40324,-8.05416 -1.76616,-3.31366 -3.73432,-5.85331 -4.37369,-5.64368 -0.63937,0.20964 -1.70019,2.52515 -2.35737,5.14557 -1.73076,6.90116 -3.79614,9.45923 -9.88983,12.24901 -7.26474,3.32591 -7.01615,4.81172 1.19733,7.15649 4.96599,1.41768 8.77979,5.04357 12.01016,11.4184 2.96744,5.85595 5.12688,6.17541 5.97307,0.88363 z M 391.908,117.27206 c 1.7875,-1.87796 3.25,-4.10979 3.25,-4.95962 0,-1.07648 1.16149,-0.52406 3.8292,1.8212 2.10606,1.8515 4.6321,3.82663 5.61342,4.38919 1.64006,0.94019 1.5368,1.28769 -1.27798,4.30092 -1.6842,1.80294 -3.34408,4.16625 -3.68861,5.25178 -0.56493,1.77994 -1.13445,1.51413 -5.80123,-2.70765 l -5.1748,-4.68136 z"
       id="path1" />
  </g>
</svg>
