<?xml version="1.0" encoding="UTF-8" standalone="no"?>
<!-- Created with Inkscape (http://www.inkscape.org/) -->

<svg
   version="1.1"
   id="svg1"
   width="1024"
   height="1024"
   viewBox="0 0 1024 1024"
   sodipodi:docname="bear.svg"
   inkscape:version="1.4 (e7c3feb100, 2024-10-09)"
   xmlns:inkscape="http://www.inkscape.org/namespaces/inkscape"
   xmlns:sodipodi="http://sodipodi.sourceforge.net/DTD/sodipodi-0.dtd"
   xmlns="http://www.w3.org/2000/svg"
   xmlns:svg="http://www.w3.org/2000/svg">
  <defs
     id="defs1" />
  <sodipodi:namedview
     id="namedview1"
     pagecolor="#ffffff"
     bordercolor="#000000"
     borderopacity="0.25"
     inkscape:showpageshadow="2"
     inkscape:pageopacity="0.0"
     inkscape:pagecheckerboard="0"
     inkscape:deskcolor="#d1d1d1"
     inkscape:zoom="1.046875"
     inkscape:cx="547.8209"
     inkscape:cy="512"
     inkscape:window-width="3830"
     inkscape:window-height="2131"
     inkscape:window-x="0"
     inkscape:window-y="0"
     inkscape:window-maximized="1"
     inkscape:current-layer="g1" />
  <g
     inkscape:groupmode="layer"
     inkscape:label="Image"
     id="g1">
    <path
       style="fill:#212121;stroke:none"
       d="m 443,46 c -8.83875,-6.782043 -25.98087,-6.632446 -26.60187,8 -0.35516,8.368652 6.03516,15.493408 8.60187,23 l -28,11 c -0.22574,-7.232605 0.29031,-20.981873 -4.78705,-26.65741 -6.52829,-7.297363 -27.05075,-0.549194 -31.20831,6.662049 -4.23679,7.348632 -0.10169,18.203186 1.23611,25.995361 3.76801,21.9472 5.41611,61.60333 25.75925,74.93518 19.8363,12.9997 46.53534,2.80115 66,-5.66205 5.78815,-2.51666 14.50342,-5.10821 18.37036,-10.4259 4.65558,-6.40216 -0.46332,-19.42127 -4.86111,-24.78241 -10.4625,-12.75433 -32.65576,4.44403 -44.50925,7.79626 -3.35654,0.94922 -9.33282,4.18726 -12.67593,2.23151 C 405.63638,135.35028 405.04019,126.55634 403,122 c 10.99042,-4.45874 21.94632,-9.00519 33,-13.33795 5.19791,-2.03742 11.45114,-4.172 13.84259,-9.680544 3.05835,-7.044677 -1.37186,-12.878173 -1.52313,-19.722229 C 448.24628,75.948853 449.9856,72.539001 450,69 c 3.57733,2.045898 6.73306,3.984375 11,3.962952 C 483.97797,72.847717 475.73123,40.893127 463,32.625 452.17575,25.595337 443.03564,35.497131 443,46 m 13.98148,-7.398132 c 9.10012,1.149048 17.02093,30.001465 3.15741,27.162048 -8.10202,-1.659424 -16.6402,-28.864441 -3.15741,-27.162048 M 687,38 c -1.8291,5.616638 -1.02655,11.646973 -4.15741,17 -13.75384,23.515869 -35.92767,9.351257 -55.84259,8 1.48273,9.670166 8.85046,18.385559 11.58795,28 4.92987,17.31458 4.41205,33.29932 4.41205,51 7.28613,-1.89447 5,-13.0564 5,-19 0,-19.19305 -4.13879,-37.407104 -14,-54 18.84863,4.155945 53.95038,10.339111 55,-20 11.22784,9.746948 21.01514,32.185791 40,28 V 75 L 704.41669,60.865723 687,38 M 554.00464,41.754639 C 544.62494,45.59729 544.82312,60.573792 543.95831,69 c -1.64819,16.059204 -3.6596,32.05847 -6.36572,48 -1.28455,7.56708 -5.46167,17.36877 -4.13885,25 1.56463,9.02661 17.52502,10.56189 24.54162,7.43054 8.086,-3.60858 10.67658,-17.67908 12.86572,-25.43054 4.56214,-16.15381 7.24665,-32.566956 10.53705,-49 1.29853,-6.485107 5.13886,-14.385254 4.43061,-21 -1.12452,-10.502808 -23.34278,-15.719971 -31.8241,-12.245361 m -122.00928,6.911987 c 8.21262,0.371704 18.36627,26.893249 5.00464,27.09729 -8.98779,0.137207 -20.57715,-27.802124 -5.00464,-27.09729 M 557,49 c 4.08636,0.784546 16.65009,1.214661 18.51849,5.34259 2.07837,4.591858 -1.77954,14.833191 -2.71759,19.65741 -3.22424,16.581055 -6.07098,32.73938 -10.8009,49 -1.44141,4.95538 -2.46582,16.23895 -7.19446,19.09723 -3.77441,2.28149 -10.10357,0.37775 -10.72223,-4.12036 -1.2846,-9.34003 1.1615,-19.78357 2.67597,-28.97687 1.31463,-7.98047 2.28027,-16.006226 3.49536,-24 C 552.05048,73.185425 552.97095,60.290466 557,49 M 501,59.430542 C 488.3306,61.859802 490,73.953186 490,84 c 0,18.07288 1.69427,40.85394 26,35.52777 C 528.74133,116.73572 526.07245,105.43372 526,95 525.8761,77.155945 525.22302,54.78595 501,59.430542 M 392,98 c 6.95264,-2.30658 13.29904,-5.705383 20,-8.587952 7.37692,-3.17334 17.63446,-9.3432 25.93518,-8.324096 5.63791,0.692199 6.8877,12.711975 3.58798,16.347229 -6.76178,7.449339 -25.28146,9.823239 -34.52316,13.837949 -3.5097,1.52466 -9.17398,2.83985 -10.69907,6.79169 -1.61392,4.18207 1.01184,9.89795 2.06943,13.93518 0.90799,3.46619 1.94513,7.0603 4.19446,9.93518 4.94055,6.31458 12.93561,3.50086 19.43518,1.65277 9.06665,-2.578 18.18387,-5.85284 27,-9.1759 3.38681,-1.27661 8.33432,-3.57044 11.84259,-1.52313 4.26843,2.4909 5.00876,9.78094 6.15741,14.11108 -19.25558,11.80939 -56.53177,27.57245 -76.99536,11.52313 C 373.50821,145.58521 373.91904,111.13135 370.19907,92 369.16434,86.678528 364.48538,73.694031 369.21759,69.611084 371.0625,68.019287 373.69305,67.503052 376,67.004639 392.48169,63.443726 387.73749,86.513733 392,98 M 500.34259,67.476868 C 519.29181,58.42511 517.15057,85.961609 518.13428,96 c 0.48694,4.96893 2.67083,12.67194 -3.21295,15.38892 C 497.29178,119.52979 499.16266,92.494324 498.13428,82 497.79382,78.525879 496.48624,69.31897 500.34259,67.476868 M 737,108 717,105 C 716.74176,96.900879 713.72998,85.653625 706.93982,80.569458 699.74164,75.179749 680.591,76.177368 676.21759,85.004639 673.88062,89.721558 675.66925,95.076172 676,100 c -4.91479,-0.316956 -10.37433,-1.719421 -14.98151,0.87036 -8.10351,4.55512 -9.57483,20.59784 -2.86108,26.80554 C 664.86633,133.87909 679.42169,132 688,132 v 14 c -8.46545,-2.75684 -20.04523,-1.69708 -29,-2.01849 -3.62561,-0.13013 -7.53802,-1.47492 -11.04169,-0.009 -8.38171,3.50604 -10.41046,20.71863 -3.8009,26.53711 8.75891,7.71057 23.29346,3.54846 33.84259,5.07867 3.08118,0.44696 8.14514,-0.48907 10.52313,1.88892 2.47125,2.47125 1.30304,7.37921 1.61115,10.52313 0.80041,8.1676 -1.19141,24.09814 3.49536,30.93518 7.52795,10.98169 31.52856,11.4928 36.45831,-1.93518 3.87512,-10.55524 -2.35205,-26.04449 -3.08795,-37 7.23651,2.38116 21.57849,6.91748 28.99536,4.38892 10.29926,-3.5113 16.11121,-24.38025 7.84723,-32.17597 C 756.66113,145.43842 734.61383,146.40558 725,146 v -8 c 9.77618,0.66333 21.21442,6.19781 31,3.50464 11.55823,-3.18103 11.51514,-21.54938 4,-28.50464 v -1 l 6,-5 c 3.90277,8.92218 19.68719,9.94641 24.37964,0.98151 3.38067,-6.45874 3.22119,-22.81287 -1.00928,-28.916691 C 784.14233,71.521729 770.8349,69.779724 765,77 758.79968,71.754578 743.28479,65.393921 736.47687,73.337952 730.61707,80.175598 733.20648,100.79443 737,108 m 7.34259,-29.523132 c 15.09717,-7.21167 18.75232,22.156372 9.5,27.634212 C 741.15009,113.62567 741.98743,93.534119 742,87 c 0.005,-2.683899 -0.61255,-7.111511 2.34259,-8.523132 m 29.74072,2.06018 c 12.3855,-3.986877 14.77716,21.897342 6.75928,24.523132 -12.98175,4.2514 -14.88495,-21.90747 -6.75928,-24.523132 M 335,151 c -7.31027,-13.88568 -7.83347,-33.72095 -11.62964,-49 -1.31457,-5.290955 -1.68683,-13.631287 -5.71295,-17.65741 C 308.92258,75.607788 285.54315,82.23877 285.51852,95 c -0.0359,18.60101 7.08576,38.9165 11.06943,57 3.05084,13.849 4.73718,30.82117 12.49075,43 18.05146,28.35419 40.0759,-6.5921 49.31943,-22 3.77771,-6.297 9.32196,-13.24219 8.46298,-21 C 366.04761,144.65283 356.50299,132.85431 348,135.64813 342.28836,137.52478 336.90594,145.62836 335,151 m 381,-20 3.75464,19.78705 L 730,154.12964 757,157 c 0.50385,2.67139 0.99597,5.26825 0.99072,8 -0.0463,24.00781 -28.453,-1.51056 -37.35644,9.34259 -2.29871,2.80206 -0.75092,7.37036 -0.63428,10.65741 0.44818,12.62695 6.67853,41.94904 -15.97687,30.50464 -12.185,-6.15527 2.44141,-33.67932 -6.5,-42.89356 -9.08093,-9.35803 -32.94165,-1.56347 -44.45831,-5.69439 -4.38776,-1.57386 -6.01428,-10.77802 -3.1759,-14.43982 1.81201,-2.33771 6.59014,-1.53852 9.11108,-1.21759 8.29999,1.0567 16.71771,1.12726 25,2.32867 3.09198,0.44849 10.12714,1.76874 11.85181,-1.80554 1.09887,-2.27734 0.17022,-6.29858 0.14819,-8.78241 -0.0463,-5.21252 -0.10901,-13.08575 -5.06482,-16.17126 -9.8573,-6.13721 -32.44403,3.62042 -27.71759,-15.80561 2.1217,-8.72027 15.59637,1.40271 19.89349,-6.10644 3.31171,-5.787173 -4.28375,-15.346561 3.95374,-18.833377 1.87457,-0.793518 3.9248,-0.986511 5.93518,-1.064819 18.65961,-0.727112 8.05707,18.484496 19.08331,24.768556 11.96155,6.81714 28.91138,2.08221 40.85187,8.43054 4.0744,2.1662 5.89093,9.75208 2.43518,13.30554 -2.30932,2.37464 -7.37616,1.52539 -10.37036,1.47223 C 735.27094,132.82269 725.64557,128.5658 716,131 M 300,89.319458 c 14.61926,-2.956665 14.36145,7.323303 16.41205,18.680542 2.35248,13.02924 5.06256,26.04431 7.79165,39 0.96338,4.57349 1.8873,12.29541 5.40741,15.6991 2.91272,2.8164 5.75016,-1.67133 7.46296,-3.6991 3.13293,-3.70911 10.28704,-17.80664 15.91204,-15.42126 4.41993,1.87432 7.83506,7.6922 6.59259,12.42126 -2.79568,10.64081 -14.47348,23.43097 -21.22683,32 -2.64459,3.35559 -5.91095,7.54669 -10.35187,8.44446 -9.53827,1.92828 -13.99374,-9.45795 -16.33334,-16.44446 -7.069,-21.10944 -11.11765,-44.05865 -14.74073,-66 C 295.58859,105.901 288.37106,91.671326 300,89.319458 M 799,96 c 1.38599,19.64282 23.10052,33.10474 41,34.86572 5.36365,0.52771 11.8963,-2.40326 16.92133,-1.12964 4.4646,1.1316 9.21966,10.11475 14.07867,12.79175 11.15643,6.14643 23.73279,5.47217 36,5.47217 -14.37213,18.43719 -25.24817,45.50684 -1,60 -10.7041,5.37073 -16.98553,33.89484 -4,40 L 900.47687,223 913,205 c -3.80994,-1.46295 -7.75751,-2.89606 -10.98151,-5.47687 C 883.71039,184.86761 908.09698,158.52588 914,144 c -11.98016,-3.09668 -24.55945,0.77802 -37,-4.1991 -4.3847,-1.75421 -8.69647,-4.00482 -11.65741,-7.81939 -1.85748,-2.39301 -2.00281,-7.06781 -5.4259,-7.70374 -4.56708,-0.84839 -10.2815,1.84241 -14.91205,2.18982 C 836.92426,127.07385 828.81348,124.23096 822,120.10651 811.77521,113.91711 807.76099,102.95557 799,96 m -620,24 c -8.51245,-7.83099 -27.00383,-7.08069 -27.80092,8 -0.49885,9.43829 8.65227,19.17932 15.80092,24 v 1 L 138.86574,182 128,195 c -5.13802,-9.40796 -7.28132,-20.84393 -10.66666,-31 -1.21773,-3.6532 -2.05667,-9.64471 -4.94445,-12.37036 -2.94782,-2.78235 -8.74241,-2.03723 -12.38889,-1.625 -11.291565,1.27643 -27.156219,5.48059 -30.449074,17.99536 -2.604568,9.89893 6.008202,27.58679 9.40741,37 11.422569,31.63177 24.701984,80.91595 63.041664,88.74072 27.19606,5.55048 51.14992,-11.43969 71,-27.98144 6.17198,-5.14331 18.45152,-12.95874 18.91667,-21.75928 0.27007,-5.10968 -2.45781,-10.01617 -5.375,-14 C 223.5611,225.92957 219.918,220.4613 215,218.62964 c -7.24606,-2.69873 -13.55687,3.09021 -19,6.95831 -10.33569,7.34497 -22.73065,18.4502 -35,22.19446 -6.22491,1.89966 -15.07574,-9.83771 -15.52315,-15.52313 C 145.07939,227.2085 155.76128,219.23871 159,216 c 10.17984,-10.17987 20.75308,-19.92407 31,-30.00464 3.5793,-3.52118 9.07993,-7.61548 9.65277,-12.99536 0.76328,-7.16833 -8.34824,-16.30768 -13.65277,-20 v -1 c 5.70938,-4.04211 5.19296,-8.67474 4,-15 9.57222,6.39014 26.80544,6.99805 25.93518,-9 -0.48764,-8.96429 -9.17764,-20.35028 -15.9398,-25.78705 -6.35878,-5.112425 -19.40488,-1.86053 -22.71761,5.80554 -1.63791,3.79035 0.5587,8.34797 1.72223,11.98151 m 71,-18.58331 c -7.8941,1.27301 -17.42586,3.44763 -20.84259,11.58331 -2.86276,6.81665 0.90865,14.37036 2.69907,21 3.88154,14.3728 8.33537,29.3111 10.72685,44 1.55112,9.52728 -2.5903,23.50562 2.42129,31.98151 4.29396,7.26214 17.1704,10.09924 24.99538,8.74072 C 282.06052,216.62842 282.16855,203.66455 283.13428,194 285.54102,169.91455 276.0545,146.66998 269.01389,124 265.76413,113.53619 264.28821,99.112549 250,101.41669 M 184,111 c 10.45107,-6.11188 25.69516,6.49353 23.71759,18.93518 -1.25127,7.87225 -10.80154,2.11737 -13.5787,-0.93982 -1.93931,-2.13483 -3.57038,-4.55231 -5.09259,-6.99536 -2.16356,-3.47241 -3.98591,-7.05304 -5.0463,-11 m 68.97685,-1.65741 c 6.12902,-0.0302 8.1046,15.90179 9.68981,20.65741 6.07675,18.23022 15.21911,41.04462 13.02316,60.58795 -0.63498,5.65119 0.49695,18.93323 -7.69446,19.19446 -4.91717,0.1568 -13.14453,-1.72443 -15.24074,-6.71295 -2.33305,-5.55219 -0.31233,-13.18585 -0.88888,-19.06946 -1.38256,-14.1084 -4.33892,-28.38733 -8.27777,-42 -1.87694,-6.48676 -7.57138,-17.27606 -5.95835,-23.99536 1.45295,-6.05237 9.79865,-8.63471 15.34723,-8.66205 M 180,120 l -1,1 1,-1 m -12,1.81482 c 6.18132,0.71539 14.17227,12.55365 15.50462,18.18518 1.06465,4.5 -1.41372,9.13788 -6.50462,8.77777 -6.66556,-0.4715 -16.58185,-12.34076 -17.50462,-18.77777 -0.55881,-3.89801 4.63783,-8.63269 8.50462,-8.18518 M 607,133 c -3.8855,5.47522 -13.71777,21.00427 -12.09259,27.91669 1.76916,7.52484 7.59174,-1.84253 8.09259,-4.91669 h -1 l -5,6 c 1.72455,-7.72656 12.66809,-21.67401 10,-29 m -123,7 1,42 h -16 l 12,45 h 1 l -1.13428,-24 0.61112,-10.52313 L 495,191 488.07407,154 484,140 m 477,1.47687 c -9.78735,2.28442 -14.409,11.03052 -18,19.52313 -6.29974,14.89862 -12.18604,29.98492 -18.1991,45 -2.64831,6.61304 -7.28106,15.6806 -6.58331,23 0.95764,10.04559 18.47784,14.88623 26.76392,12.65741 7.42474,-1.99713 13.73901,-19.29547 17.43054,-25.65741 6.29327,-10.84583 13.44031,-20.97595 20.95831,-31 3.70752,-4.94336 9.55048,-10.83057 11,-17 C 997.85565,153.16602 973.72766,138.5061 961,141.47687 M 812,177 c -6.71564,0.45111 -16.49689,0.46313 -21.71759,5.33795 -6.31793,5.89935 -6.3241,20.59332 2.72223,24.03241 6.4234,2.44196 14.62012,-0.0901 20.99536,-1.37036 0,9.97864 -3.67798,29.74573 2.56946,37.93518 4.64355,6.08704 21.08343,6.25836 25.8009,-0.0926 C 845.33197,238.85553 844,231.69257 844,227 c 6.55725,3.29205 12.55847,-0.64758 18,-4.63428 10.50385,-7.69549 20.46735,-17.32251 16.50464,-31.36572 -4.34845,-15.41028 -24.00977,-6.83215 -32.02777,-14.62964 -5.41858,-5.26953 1.57422,-16.85773 -4.04633,-23.03241 -4.82525,-5.30102 -25.54895,-5.76532 -29.56018,0.74536 C 808.84912,160.61029 811.97607,169.93475 812,177 m 152,-25.20374 c 6.50378,-1.01574 20.65894,7.85102 18.53705,15.20374 -1.66931,5.78448 -7.42267,11.14124 -10.82868,16 -7.02441,10.02057 -13.40673,20.51617 -19.70837,31 -2.8266,4.70245 -7.81958,16.96063 -14.01849,17.36572 -11.79078,0.77051 -9.18097,-9.02514 -6.64356,-16.36572 5.55103,-16.05853 12.69611,-31.88525 20.41669,-47 2.49707,-4.88855 5.94763,-15.22021 12.24536,-16.20374 m -423,1.68061 c -21.51917,5.09936 -12.03009,38.96734 10,34.04626 24.43201,-5.45758 14.27606,-39.79895 -10,-34.04626 M 124,209 c 18.40047,-12.40833 27.84773,-37.87451 47,-49.50464 6.92378,-4.20441 20.37993,8.586 17.42593,15.50464 -2.20503,5.16443 -8.54116,9.16364 -12.42593,13.00464 -9.38486,9.27911 -18.66789,18.66327 -28,27.99536 -3.67822,3.67822 -12.2784,9.51154 -12.85648,15 -0.45301,4.30115 3.72661,10.50519 5.90278,14 15.77117,25.32764 39.02481,2.32629 55.9537,-10.37036 3.5034,-2.62756 7.71295,-7.47522 12,-8.64356 7.9561,-2.16821 16.72237,14.88898 10.91667,20.60187 C 200.96085,265.24078 167.03235,295.10138 138,282.52319 108.82189,269.88184 96.154877,225.80212 87.337967,198 c -2.371819,-7.479 -10.824158,-25.71661 -5.53241,-32.72223 3.396439,-4.49646 18.788663,-12.12347 23.625003,-7.04169 3.5512,3.73145 4.64675,10.99585 6.2361,15.76392 3.93923,11.81769 7.65873,23.47772 12.33334,35 m 728,-8 -16,-2 c 0,11.27808 1.26575,26.01031 -0.80554,36.97687 -0.91638,4.8518 -8.59247,5.268 -11.30554,1.56476 -6.33142,-8.64209 2.63195,-26.49329 -2.23151,-36.5185 -4.27179,-8.8056 -29.71722,5.87281 -26.43518,-9 2.0553,-9.31366 17.1615,-3.99121 22.56018,-8.5 5.23389,-4.37115 0.95917,-15.57202 2.43518,-21.45831 1.14349,-4.56036 12.04761,-6.25946 14.89349,-2.58795 4.69825,6.06128 -3.11877,18.22436 4.10651,23.76849 7.42542,5.69776 29.56488,-0.81927 31.625,11.75928 1.67944,10.25409 -10.66888,22.14331 -19.84259,25.08795 -3.34143,1.07257 -8.8053,-2.24286 -8.30554,-6.09723 C 843.29541,209.36066 849.90747,205.30792 852,201 M 542.15277,160.49536 c 10.66779,-3.95538 19.61621,12.45111 7.84259,16.875 -10.84668,4.07556 -17.66913,-13.23157 -7.84259,-16.875 M 617,162 l -25,49 12,2 -8,25 c 7.62012,-5.91284 20.07629,-21.45282 22,-31 l -13,-2 c 5.33997,-11.9256 12.97131,-30.04059 14,-43 h -2 m -129,3 4,24 -13,-1 v 20 h -1 l -5,-24 c 3.25476,0.0397 7.86359,1.61841 10.91669,0.50464 C 490.00272,182.28442 485.6983,169.76636 488,165 m 137,39 c 18.76752,0.0128 5.11926,11.17963 4,21 11.16229,-1.33282 32.32983,-6.72614 36,9 6.58472,-0.22778 12.36316,-3.73053 19,-3.98151 21.15271,-0.7998 37.79694,9.90595 52,23.98151 2.73437,-11.13361 -11.88489,-17.35486 -20,-20.84259 -10.76013,-4.62451 -20.21808,-7.36188 -32,-7.15277 -4.17877,0.0742 -8.99591,2.61011 -13,2.04626 -4.24176,-0.59735 -7.86652,-5.41632 -12,-7.00464 C 651.90747,218.32092 644.46234,219 637,219 c 4.51147,-8.8194 5.59961,-16.62323 -6,-19 6.62854,-11.33447 3.03973,-22.79852 4,-35 l -5.97223,6 2.81946,13 L 625,204 m -17,-18 -6,21 12,2 -9,14 h -1 l 3,-12 -11,-1 12,-24 m -82,36 16,-19 -10,18 h 6 l -9,13 13,-13 -6,-2 4.00464,-7 c 2.55908,-4.36237 4.99481,-16.43085 -3.74072,-9.43054 C 531.12994,206.68365 526.97748,215.62506 526,222 m -154,-6 10,-8 c -4.51221,1.03772 -8.08835,3.77399 -10,8 m 1,6 15,-12 c -6.35165,1.72363 -12.39987,5.84241 -15,12 m 1,14 5,-9 c -5.59601,2.53333 -12.00922,11.80151 -11,18 l 23,-16 h 1 c 3.63461,4.70984 13.8559,-2.43402 19,-1.78705 12.87384,1.6192 37.68268,16.92786 37.60187,31.78705 -0.0241,4.4184 -4.92249,7.25867 -6.60187,11 l 9,-7 -4,8 6,-8 c 4.82718,2.99194 22.74438,-13.44159 28,-17 v -1 l -21,12 9,-10 -13,8 -1,-8 h -2 v 4 h -1 l -3,-8 v 5 h -1 c -2.19147,-8.05542 -8.95764,-13.67139 -15,-19 l 3,-1 v -1 l -15,-1 9,-2 v -1 l -16,2 8,-5 v -1 l -14,4 v -1 l 3,-3 c -14.55618,2.92322 -25.09534,7.72015 -37,17 m 33,-12.66669 0.33334,0.33338 c -0.4935,0.16449 -1.10675,-0.33338 -0.33334,-0.33338 M 370,230 c -6.01334,7.74115 -12.49368,18.17596 -14,28 h -1 l 2,-18 h -1 l -4,22 h -1 l -1,-11 h -1 v 16 l -4,-2 2,21 h -1 l -4,-10 h -1 l 4,16 h -1 l -4,-7 h -1 l 8,16 -5,-3 11,18 -7,-4 c 3.21097,7.36664 12.47812,10.12402 19,14 l -12,-3 9,5 -10,16 h -1 v -5 h -1 l -1,3 h -1 L 335.71295,319 329.84723,312.37036 311,322 c -4.05383,-8.98541 -10.41241,-16.92004 -15.98611,-25 -1.89551,-2.7478 -4.28583,-7.79517 -8.01853,-8.30554 C 282.39584,288.06555 275.64856,295.81586 273,299 h -1 L 250.29167,269 239,255 c 2.13625,13.9328 13.19876,31.49536 19.86111,44 1.8895,3.54645 4.51804,11.24268 8.29166,13.04626 6.20792,2.96705 12.5629,-9.73992 18.52316,-5.50463 2.76679,1.966 4.10404,6.59228 5.73612,9.45837 5.05374,8.87488 9.72064,18.0321 14.58795,27 l 21,-12 c 3.92239,9.66815 17.38,25.91943 15,36 l -7,-8 7,17 h -1 v -4 l -6,-7 h -1 c 0.64655,4.93756 4.47845,11.98437 -1,15 l 2,5 -4,-1 3,6 -7,-2 4,6 -8,-4 3,8 -13,-4 v 1 l 11,4 c -5.59396,15.7962 -13,26.17334 -13,44 h -1 v -18 h -1 c -4.34659,17.22253 2.34259,34.41211 6,51 l -15,-24 20,38 h -1 l -17,-22 c 3.87708,14.28711 17.71259,25.44006 27,36 l -12,-6 14,14 -14,-8 19,16 -11,-5 c 3.09924,6.21844 14.39798,9.53418 21,10 v 1 l -16,5 2,2 c -10.88666,4.37982 -26.45367,7.28235 -34,17 l 22,-9 v 1 c -10.24808,2.75317 -26.06201,15.04572 -30,25 l 3,-1 -11,21 h 1 l 4,-5 -6,12 5,-4 -2,23 h 2 l 1,-5 h 1 l 4,21 h 1 v -7 h 1 c 0.92426,6.02789 4.46564,14.99359 10,18 l -2,-7 c 7.15182,8.08777 13.93167,12.65454 25,13 -8.6246,8.62463 -16.95886,16.8302 -27,23.81482 -6.17432,4.2948 -12.89813,8.93732 -20,11.50464 -19.05151,6.88708 -39.07823,1.76843 -37.93518,-22.31946 1.28711,-27.12366 23.20511,-58.26184 13.42592,-85 -5.82753,-15.93359 -17.40059,-11.5365 -29.33797,-16.47681 C 219.01062,554.56732 219.90268,547.53442 210,550 c -7.12872,-15.67261 -47.59737,-9.03619 -36,10 -6.62241,1.87799 -17.4494,2.01636 -22.78241,6.61108 -3.41516,2.94239 -2.46544,9.30555 1.84723,10.90747 6.7568,2.50971 16.93837,-4.0249 23.93518,-4.51855 l 1,8 c -5.79999,0.70825 -15.16782,1.89026 -19.84259,5.61108 -3.4502,2.74616 -3.88194,9.17841 0.92129,10.89356 C 165.62378,599.8418 176.13646,593.4657 183,593 c 1.6593,9.85437 11.13249,6.6225 18,4.33337 4.38788,-1.46264 10.64014,-2.44336 13.52315,-6.41211 1.88897,-2.60034 0.87662,-6.12878 2.9537,-8.58331 C 222.27367,576.66949 228.37357,578.5332 226,569 c 20.1389,0.24597 23.10883,18.01349 18.58797,34 -5.91857,20.92896 -17.64298,43.59595 -13.99538,66 1.91309,11.75037 7.98839,23.0108 20.40741,26.12036 4.83203,1.20984 10.04773,1.04645 15,0.86109 7.61517,-0.28498 15.15512,-3.04932 22,-6.2129 9.32687,-4.31079 18.17755,-8.97033 26,-15.76855 -1.38324,3.60864 -9.98538,22.32062 -6,23 l -5,13 5,-5 c -1.85934,6.55658 -4.59607,21.28113 -14.80093,14.93518 C 288.90082,717.26233 288.48236,712.66821 283,711 l -2,8 -12,4 c -1.21249,-5.91382 -5.89465,-10.35645 -8.43054,-2 -0.89914,2.96289 0.52554,6.16699 -0.59259,9 -1.29596,3.28369 -4.40787,5.76996 -5.97687,9 h -1 l -3,-6 c -9.80074,4.51221 -2.26549,16.32703 -2,24 h -1 v -2 h -1 c 0,39.58118 19.07864,72.05133 54,90.1991 6.35684,3.30346 13.46545,10.20984 21,9.8009 l -8,-5 v -1 l 14,4 -3,-3 v -1 c 14.77792,0 26.56592,-6.61041 39,-14 l -3,4 13,-4 c 9.87042,-4.73438 16.04959,7.02045 25,9 l -8,-9 c 11.69351,6.49731 19.89093,12.73627 19,26 -5.79843,-0.0708 -17.78558,-3.98047 -22.06946,1.34259 -3.08294,3.83081 0.0653,11.03113 -4.14813,13.76849 -6.53918,4.24836 -27.15347,-3.15771 -23.21759,10.88892 0.48318,1.72443 1.32706,3.35614 2.02313,5 1.0314,2.43579 2.07797,4.71875 3.41205,7 -10.35941,2.93774 -14.46985,4.70959 -11,16 -5.55212,1.04712 -21.39139,7.22821 -25.93982,5.47223 -3.13638,-1.21088 -3.90866,-4.77515 -6.38425,-6.72223 -2.49115,-1.95935 -7.48666,-2.40771 -8.56945,-5.88892 -1.22327,-3.93274 6.02276,-9.10394 7.28241,-12.86108 5.06628,-15.11121 -11.81247,-20.92157 -23.38889,-18 6.97742,-21.42645 -18.66226,-27.82098 -34,-26 -0.79648,-5.89551 -3.50922,-8.15485 -9,-10 5.84314,-17.94336 -12.48505,-28.92224 -28,-29.93982 -21.73595,-1.4256 -38.80489,11.07288 -41.74074,32.93982 -1.61912,12.05963 1.85018,25.73834 15.74074,28 -7.11046,22.25232 15.89893,34.50085 35,26 -1.83409,5.7276 -4.08104,11.92535 -2.50926,18 4.06358,15.70508 24.98439,9.66064 34.50926,4 l 8,14 c -6.17371,0.61151 -34.79817,8.73694 -24.65741,18.43518 3.60513,3.44782 10.02405,4.4729 14.65741,5.85651 13.45612,4.01812 28.92514,7.53643 43,7.70831 v -2 h -5 c 2.62872,-2.72858 6.68951,-2.63391 10,-4.68518 9.35699,-5.79797 20.69177,-17.13837 32,-17.31482 v 1 l -33,20 v 1 c 17.9563,-3.56934 28.71802,-22.39825 48,-23 v 1 l -37,22 v 1 c 20.06955,-3.07715 32.45935,-24.92694 54,-25 v 1 c -12.73444,5.74518 -29.5856,14.77997 -40,24 15.11285,4.92145 36.00247,-5.27643 50,3 19.35495,-17.98938 46.50998,-28.34338 69,-41.8009 8.80164,-5.26673 20.63318,-15.03736 31,-15.1991 v 1 c -23.68185,6.3623 -47.45551,26.56866 -68,39.58331 -8.49298,5.38019 -21.01868,10.25104 -27,18.41669 9.69089,-3.32013 18.3765,-10.68872 27,-16.125 14.84512,-9.3584 30.08661,-18.04675 45,-27.28705 9.65387,-5.9815 22.38901,-15.43829 34,-15.58795 v 1 c -34.52509,14.33472 -68.13528,39.10242 -99,60 v 1 c 5.31473,-1.05286 7.88943,-3.79688 12,1 l 33,3.93518 55,0.0648 v 1 l -5,4 15,-5 -2,3 18,-3 v 1 l -10,5 c 4.78418,3.64832 12.89062,1.27045 18,-1 v -1 l -13,2 v -1 c 14.82111,-4.30359 23.8009,-18.14465 40,-18 v 1 c -6.65332,2.3382 -19.59918,8.73975 -23,15 10.38623,-4.21368 20.56769,-15.39911 32,-15 v 1 c -6.62701,2.32892 -18.61279,8.74304 -22,15 9.68829,-4.39722 19.14923,-14.83069 30,-15 v 1 l -24,13 v 1 L 591,980.50928 617,970 v 1 l -13,8 25,-9 v 1 l -16,9 v 1 c 35.92944,-6.77643 70.85175,2.76923 105,-15 -1.06549,-4.36407 -4.01025,-5.45337 -8,-7 l 11,-5 c 3.94061,11.06824 19.48547,14.18622 30,12.58795 19.94971,-3.03247 46.78174,-12.14294 42,-37.58795 15.77606,0 52.46027,-11.76801 33,-33 8.22095,-1.65088 15.99457,-4.8927 21.93982,-11.01855 5.95215,-6.13288 8.0473,-13.62159 8.06018,-21.98145 0.045,-29.20245 -25.8075,-44.05054 -52,-44 -20.16162,0.0389 -40.35492,11.81146 -39.99536,34 0.1142,7.04529 3.51599,12.14545 6.99536,18 l -6,7 c -19.8501,-16.80664 -55.90503,-6.00867 -56,22 -10.44757,-1.96338 -20.62836,2.72058 -22.56482,14 -0.57141,3.32837 2.30066,8.89062 0.0278,11.52777 -4.2633,4.9466 -14.85388,3.49512 -20.46301,5.55097 -15.17944,5.56341 -27.836,21.86303 -45,21.92126 v -1 L 652,933.58795 665,927 639,944 c 12.32349,-6.42096 23.43433,-14.85559 37,-17 v -1 l -13,-2 c 3.77258,-14.78943 -16.54297,-21.94916 -27,-26 v -2 l 6,-1 c -2.11823,-10.47742 -17.0614,-16.80566 -4,-24.95374 1.9469,-1.21447 3.89032,-2.17034 6,-3.04626 l -7,8 17,-12 -4,6 c 8.38416,-3.53796 17.97504,-15.45825 21,-24 h 1 l -9,17 16,-19 -3,7 c 9.4259,-3.9776 18.84644,-18.862 23,-28 h 1 l -4,11 h 1 l 10,-17 c 37.98352,19.89374 78.05884,9.1828 113,-12.58795 C 835.38782,793.82434 851.08588,781.89301 856.93982,764 863.5528,743.78693 849.13318,720.4278 829,715.47223 816.65991,712.43481 805.54053,715.57635 794,720 l -6,-12 7,2 c -3.53259,-4.8689 -9.19629,-8.42505 -15,-10 l 6,11 c -11.6106,2.59149 -22.09503,10.77747 -32,17 v 1 c 6.7099,2.18054 11.651,-1.29858 18,-3 0.66974,13.15564 -16.89868,10.76483 -22,21 l 25,-9 -7,13 9,-4 6,4 v -1 l -3,-1 v -2 c 10.89032,-4.6673 17.05457,-15.93127 29,-19.13892 21.61664,-5.80444 43.83008,15.58142 33.75,37.13892 -4.97791,10.64587 -15.16656,18.92224 -24.75,25.33331 -24.57251,16.43854 -63.55194,33.25458 -93,19.41669 -2.78369,-1.30811 -8.09357,-3.98688 -8.77777,-7.36108 C 715.76636,800.14087 720.53918,792.73669 722,794 h 1 l 3,-15 h 1 v 6 c 7.32159,-5.92169 6.99396,-23.13965 7,-32 h 1 l 1,14 h 1 l 1,-28 h 1 l 2,20 h 2 l -1,-40 h 1 l 4,13 -2,-16 h 1 l 1,5 h 1 l -2,-20 h 1 l 3,14 h 1 l -4,-28 h 1 l 3,10 h 1 l -5,-21 h 1 l 5,11 h 1 l -10,-38 h 1 l 8,12 -10,-29 c 6.37408,1.80762 22.23016,7.30615 24.29169,-3.01855 0.82647,-4.13904 -3.60492,-8.91761 -2.08332,-12.76386 1.62342,-4.10352 10.18604,-1.64032 13.16199,-5.43054 C 782.9953,604.89661 775.47595,589.08533 775,582 l 22,-4 c 0.32135,5.81409 -3.91589,23.79047 1.21759,27.11108 5.20404,3.36634 12.61041,-3.17761 17.17133,2.10651 6.2965,7.29492 5.19702,18.33356 15.61108,22.78241 -2.58478,-4.28082 -5.60327,-7.95074 -6.56946,-13 -2.32428,-12.14648 0.30658,-25.59082 -17.43054,-20 -1.8714,-8.46204 6.42365,-23.42017 -5,-27 5.86542,9.35669 2.00714,17.52722 2,28 l 14.78241,0.88892 L 823,618 h -1 c -1.48364,-4.59424 -2.69427,-13.16016 -8.06482,-14.65741 -4.25098,-1.18512 -9.93268,2.23846 -13.71295,-0.23151 -5.88391,-3.84436 2.22436,-19.05761 -2.11115,-24.63427 -2.66516,-3.42804 -22.8891,-0.16736 -24.63421,3.74078 -3.4267,7.67389 6.4823,17.8233 3.19903,25.6991 -2.4884,5.96911 -12.03766,1.38049 -14.18054,6.4259 -2.50586,5.90002 6.9054,13.41986 -1.51849,17.76386 -6.71594,3.46325 -22.44324,-3.95917 -29.97687,-4.67127 -7.47015,-0.70612 -10.15533,7.96924 -17,8.5 -9.13263,0.70819 -16.96564,-8.34045 -25.97687,-7.79163 -7.55481,0.46009 -3.00171,13.19837 -10.04626,15.68982 -7.09534,2.50928 -17.22382,-6.95782 -24.97687,-6.42132 -8.40826,0.58185 -6.13794,8.23102 -11.34259,11.69903 C 637.87561,651.63104 629.41711,650 625,650 v -1 l 13,-5.47223 11,-12.93982 21.65741,2.50464 8.42126,-14.55554 L 708,625.31018 721.01849,614.53705 741,618.58795 749.0509,618.50464 748,604 c 3.65247,-0.24536 11.62592,0.18091 14.52313,-2.06482 7.87616,-6.10504 -7.64929,-21.47156 -2.02777,-27.45837 2.32758,-2.47876 7.47717,-1.38202 10.50464,-1.49536 C 780.05328,572.6427 788.88806,571 798,571 v -1 c -10.12305,-0.28162 -19.94385,0.81689 -30,0.99536 -3.48303,0.0618 -9.69952,-1.25403 -11.06018,3.08795 -2.35181,7.5047 8.24884,17.85407 4.15277,24.6991 -2.4577,4.10712 -10.0553,1.46405 -13.73151,4.26385 C 743.81378,605.74805 746.74866,613.25781 747,617 h -4 c 2.09778,-8.13708 -4.00885,-17.62714 -7,-25 l 9,8 c -1.49945,-4.2666 -11.5697,-14.85229 -7,-18 l -10,-23 8,7 -8,-12 5,3 -11,-13 6,3 -14,-14 9,4 v -1 l -8,-9 2,2 6,-13 h 1 l -2,7 c 7.63666,-6.0824 11.83978,-23.49878 13,-33 h 1 v 14 h 1 l 2,-16 h 1 v 9 h 2 v -18 h 1 l 1,11 h 1 l 3,-42 h 1 l 6,22 h 1 l -5,-25 h 1 l 5,10 -7,-24 h 1 l 4,8 h 1 l -8,-19 h 1 l 7,10 -8,-20 3,1 -6,-15 h 1 l 6,10 h 1 l -9,-17 7,5 -8,-11 7,4 -13,-20 11,1 v -1 l -10,-3 12,-10 -7,2 13,-12 -7,3 11,-14 -6,4 c 4.51251,-11.19769 7.2843,-21.88843 5,-34 l 4,5 h 1 c -3.15179,-14.07788 -10.1369,-26.37054 -17,-39 l 9,6 -12,-12 6,2 v -1 c -10.55328,-7.14532 -23.09174,-15.42371 -36,-17 v -1 l 9,-1 v -1 l -35,3 9,-6 v -1 l -20,9 8,-7 -1,-1 -39,29 9,-14 c -4.26874,1.93811 -10.33112,15.29614 -14,8 l -19,2 v -1 l 13,-1 v -1 l -25,-4 2,-2 c -9.98926,-3.25305 -31.95624,-4.27081 -42,-1 v 1 l 34,5 v 5 l 25,3 v 1 l -6,1 v 1 l 14,1 -3,10 5,-10 h 1 l -3,14 h 1 l 6,-14 h 1 l -4,14 h 1 c 10.4411,-17.83307 22.57001,-29.9458 42,-38 4.35547,5.96588 22.59265,-2.54791 29,-3 l -2,4 20,6 v 1 l -6,-1 v 1 c 14.15833,5.43665 20.83331,13.41284 27,27 l -3,-1 c 1.5343,5.28406 5.87268,9.61139 6.95374,15 3.55535,17.72217 -5.72669,33.80383 -11.95374,49 l 3,1 v 1 c -2.68115,0.94226 -11.62396,4.79529 -8,8 v 1 c -5.30267,0.81305 -18.26062,4.39777 -21,9 h 13 v 2 l -13,2 v 1 c 5.53259,-0.0676 12.93256,-3.43579 17,1 l -17,2 v 1 l 20,-1 -17,4 v 2 l 16.76392,2.47687 L 738.625,392 745,405 l -5,-2 4,12 h -3 c 1.40668,5.5144 6.30475,24.06702 1,27 l 2,21 h -1 l -5,-7 3,15 h -1 l -1,-3 h -1 l -1,11 -3,-1 -4,19 h -1 l -2,-2 -2,12 -3,-1 -5,12 h -1 v -5 h -1 l -5,12 h -1 l 3,-7 c -5.69269,4.13031 -13.19739,14.95807 -14,22 h -5 l 5,-8 c -6.11115,1.99396 -11.46362,11.75061 -15,17 4.15558,-1.75354 6.78729,-5.80029 11,-7.37036 7.12262,-2.65454 17.55511,0.81201 23,5.37036 -8.57819,-2.77014 -17.06042,-4.2561 -26,-2 v 1 c 7.38702,0 29.34784,-3.06714 29,8 l -29,-2 v 1 c 7.64148,0 38.56171,-2.47559 32,13 v 1 c 1.71649,2.11035 3.28241,3.22485 1,5 l 9,21 h -3 l 5,11 -4,-1 4,11 c -5.07837,-1.01978 -11.98523,-3.72522 -16.98151,-1.11108 -4.08276,2.1361 -5.22699,9.1997 -10.07867,9.62963 -13.46802,1.19324 -29.87152,-16.97192 -36.27313,2.48145 -0.77179,2.34528 -1.34717,4.55957 -1.66669,7 -8.65973,-1.9035 -20.1001,-8.19031 -27.72223,-0.71759 -3.13776,3.07623 -3.51153,8.22797 -6.6944,10.96759 -4.46911,3.8468 -10.65441,3.81702 -14.58337,8.75 l 21.84259,0.11108 L 654,640.14355 679.86108,646.36572 688.21295,631.9491 702,635 l -6,15 h 1 l 8,-14 -3,8 5,-7 c 10.5094,4.12817 12.18982,-2.40179 21,-6.17126 3.68988,-1.57874 8.1344,0.0506 12,0.17126 l -3,4 3,8 c -5.50073,1.17871 -0.78857,8.16992 0,12 l -3,1 7,24 -4,-3 2,18 h -1 l -3,-3 3,21 -3,-2 v 13 h -1 v -2 h -1 v 17 h -1 l -2,-5 h -1 v 14 c -5.81116,0.63232 -4.66223,13.97131 -5,19 h -1 v -4 h -2 l -3,22 h -1 l -1,-4 h -1 l -6,17 c -9.49255,-6.63086 -12.78992,-21.21216 -15,-32 -3.79248,-18.51184 -6.87219,-38.92017 -23,-51.12036 -31.35791,-23.72131 -59.31,-0.53516 -91,7.24072 C 563.44189,726.91943 546.5307,717.30377 542.4259,697 541.07263,690.30609 541,683.79663 541,677 h 5 v 1 l -2,1 7,2 -3,2 v 1 l 4,1 9,-1 -5,6 7,-5 -4,6 12,-6 -7,8 13,-7 -7,9 14,-8 -8,9 15,-9 -8,10 17,-8 -9,7 v 1 l 16,-9 -9,7 3,6 h 1 c 5.1665,-5.16656 10.36511,-14.12463 18,-15 l -9,11 18,-13 -8,11 12,-10 -7,10 23,-18 -15,16 24,-18 -13,14 c 9.69012,-4.08246 17.66632,-14.66626 25,-22 l -7,10 c 8.0777,-5.44177 16.5448,-13.67651 17,-24 h -1 l -7,13 h -1 l 2,-6 -9,9 1,-5 -27,14 2,-5 c -19.80017,8.22113 -38.49225,10 -60,10 v -1 l 10,-1 v -1 c -21.49896,0 -47.56891,-3.46594 -63.93982,-19.13428 C 500.42575,636.33136 511.56625,599.79919 545,591.45374 556.76917,588.51599 568.08539,588.62817 580,589 l -7,-4 v -1 c 20.30731,2.47992 40.27777,-4.6167 59,-13 v -1 h -7 v -1 l 21,-5 v -1 h -4 l 7,-3 v -1 l -3,-1 c 8.79132,-2.64722 21.71448,-4.93042 25,-15 l -19,12 1,-3 -28,13.75464 L 592,578 v 1 l 3,2 h -21 l -7,-1 6,3 v 1 c -14.67963,-0.17932 -33.63892,-1.28784 -47,6 l 2,3 c -3.59344,2.18188 -6.75665,6.10846 -10.58795,7.6991 C 512.42279,602.77039 508.62692,601.04919 506,607 l 5,2 -4,13 c -27.85919,-7.37122 -52.79303,13.93268 -73,30 -4.71765,3.75122 -20.46213,17.25903 -26.36572,9.78241 -2.54129,-3.21845 -0.64472,-9.12189 -0.0417,-12.78241 1.43897,-8.73511 3.62897,-17.19751 1.40741,-26 l 5,-2 2,-22 7,1 -11,-21 8,-1 c -3.1282,-5.92444 -8.45352,-5.59235 -14,-7.99536 C 397.65253,566.388 389.90451,561.30774 381,559 l 3,-6 c -7.42319,5.51453 -19.44891,3.99353 -29,4 v -1 l 17,-2 v -1 c -11.81766,0 -27.89063,0.0356 -39,4 v 1 l 13,-2 -12,5 v 1 l 13,-3 v 1 l -9,4 v 1 c 4.32721,-1.12439 8.53159,-4.21008 13,-4.45831 15.19888,-0.84442 34.55057,3.57495 48,10.54626 7.9473,4.11939 14.19684,11.63361 12,20.91205 4.33466,5.3457 -1.48416,15.151 -3,21 -3.22025,-1.51361 -4.56558,-1.65039 -7,1 l 4,1 c -5.3717,9.66772 -14.05557,14.64246 -24,18.60187 C 356.77393,643.24744 317.61508,647.63849 301,623 l -2,2 h -1 l -4,-20 h -1 l -1,5 h -1 l 1,-17 -3,5 h -1 l 9,-24 -2,1 v -1 l 10,-12 h -2 l 10,-8 v -1 l -7,2 c 12.08398,-10.50171 22.17328,-15 38,-15 v -1 l -14,-1 v -1 l 34,3 v -1 l -23,-6 h 8 l -2,-3 h 5 l -1,3 11,4 L 343.43054,514.73608 328,493 l -3,2 -9.84259,-50 9.30093,-31 6.54166,-12 8,-4 -3,-4 h 5 l -2,-5 5,-2 -3,-1 v -3 l 3,-1 3,-20 h 1 l 1,5 h 1 l 8,-27 h 1 l -1,8 h 1 c 1.35727,-10.31177 9.0473,-20.02557 18,-25 l -2,-4 5,-4 -18,5 -7.3287,-13.93982 L 348,270 h 1 c 0.3175,4.72705 0.54129,11.58417 5,14 l -1,-9 3,1 c -0.34735,-12.48743 5.85977,-21.45361 9.83334,-33 1.3877,-4.03241 5.35614,-8.80731 4.16666,-13 m 96,1 -3,13 c 2.62195,-3.24158 4.72461,-9.05017 3,-13 m -35,2.33331 c 0.77328,0 0.16031,0.49793 -0.33334,0.33338 L 431,233.33331 M 470,233 l -1,9 h 1 l 2,-9 h -2 m -96,3 -1,1 1,-1 m 137,7 -26,9 v -1 l 3,-3 c -7.52567,0.99048 -25.97873,8.79932 -27,17 h 1 l 9,-7 c 3.89349,5.29559 20.86548,-5.24426 26,-7 v 1 l -4,4 26,-7 v 4 l 14,0.87036 L 548,250 v 1 l -3,3 34,-6 v -2 h -14 v -1 l 8,-1 v -1 l -45,8 v -1 l 20,-6 v -1 l -27,5 v -1 l 14,-7 c -5.82391,0.39117 -20.91907,8.36945 -24,3 m -98,-1 v 2 l 9,4 -3,-4 3,-1 -9,-1 m -118,0 c 0.0282,8.30408 3.8197,21.42426 12,25 l -10,-22 c 10.76538,4.6925 9.35114,21.19092 19,26 -3.29718,-9.93866 -8.74155,-28.56726 -21,-29 m 123,1.33331 c 0.77335,0 0.16028,0.49793 -0.33334,0.33338 L 418,243.33331 m 498,0.23151 c -28.36914,8.15387 -16.03711,50.04358 11,42.68982 25.15881,-6.8429 12.30505,-49.38812 -11,-42.68982 M 413,245 l 7,6 -7,-6 m 149,1.33331 c 0.77319,0 0.16028,0.49793 -0.33331,0.33338 L 562,246.33331 M 620,251 l 11,-3 c -3.68317,-1.71191 -8.88098,-0.51569 -11,3 m -117,-3 v 1 l -6,2 6,-3 m 17,0.33331 c 0.77325,0 0.16022,0.49793 -0.33331,0.33338 L 520,248.33331 M 626,253 v 1 l 13,-4 -13,3 m 51,-4 v 1 l -4,2 4,-3 m -124,4 v 2 l 40,-2 c -9.88745,-6.51544 -28.91211,-0.74475 -40,0 m -165,0 1,3 c -16.34879,1.36426 -19.78021,21.21814 -18,34 0.71735,5.15039 3.3006,14.70923 9.06018,16.46295 C 384.19031,307.72052 389.63879,303.9953 393,302 v -1 c -3.45142,0.27631 -8.73444,3.73035 -11.86111,2.1991 -4.48407,-2.19599 -7.16095,-9.69422 -8.13425,-14.1991 -3.91199,-18.10669 10.6918,-32 27.99536,-32 v -1 l -4,-1 v -1 c 10.3418,1.36108 19.10516,9.61951 23,19 l -4,-2 6,7 -14,-2 c 2.8093,5.1037 15.49557,3.99628 21,4 l -5,-3 c -0.71414,-20.63947 -19.09247,-26.00732 -36,-24 m 530,-0.51849 c 12.59705,-4.13904 18.11414,18.88067 4,22.94439 -14.73694,4.24305 -16.82611,-18.7301 -4,-22.94439 M 391,254 l -1,1 1,-1 m 69,3 -1,1 1,-1 m 231,4 -4,4 5,-3 -1,-1 m 51,0 -1,1 1,-1 m -287,1 -1,1 1,-1 m 289,0 -1,1 1,-1 m -227,3 c -0.93268,3.19897 -0.97351,5.19733 2,7 l -2,-7 m 6,0 c -1.32013,2.96771 -1.89569,5.06744 1,7 l -1,-7 m 119,4 v 1 h -3 l 3,-1 m 209,28 c -24.32147,-15.62573 -58.54846,-18.79364 -73,13 h -1 c -2.99426,-7.36823 -7.27069,-16.27155 -16,-17 l 16,27 h 1 c 9.01794,-18.82788 28.21503,-36.80273 51,-29.98145 9.35291,2.80005 15.37225,10.36982 24,13.98145 2.43634,-5.44104 3.5473,-11.20508 7.47687,-15.93982 C 869.43372,277.26807 882.99384,277.95056 895,274 c -3.07507,-4.85321 -10.11462,-2.91522 -15,-1.78241 -13.02789,3.02087 -25.89868,10.92999 -29,24.78241 m -270,-25 -1,9 h 1 l 3,-9 h -3 m 64,1 -1,1 1,-1 m -58,1 -4,7 4,-7 m -335,2 c 3.79552,4.74921 14.34909,25.34937 21,24.30554 5.44205,-0.85412 9.48669,-7.63733 15,-9.30554 l 15.95834,24 7.17594,8.6991 L 330,314 c 5.69171,8.52594 21.33749,29.12793 19,39 h -1 v -4 h -1 l -3,9 -11.75464,-21 -5.40277,-8.11108 L 307,340 c -4.95862,-9.51691 -11.59976,-30.25482 -20.32407,-36.45837 -5.46624,-3.88691 -12.1083,6.35107 -17.61111,5.64355 C 265.90918,308.77942 264.4606,304.42938 263.24075,302 259.88696,295.3208 251.3725,283.42517 252,276 m 203,10 h 1 l 4,-10 c -4.54062,1.98615 -6.39777,5.18616 -5,10 m 7,-9 -2,8 h 1 l 1,-8 m 125,5 6,-5 -6,5 m 99,-1 c -0.69427,-3.93591 -7.12476,0.89691 -8.98151,2.43518 C 671.29889,288.17365 665.6051,295.44171 665,303 l 15,-2 v -1 h -10 c 2.68964,-7.65308 9.36652,-14.52667 16,-19 l -4,5 c 4.16467,-1.42688 11.0542,-8.10522 14,-3 12.51886,-0.86646 19.48096,8.68958 30,13 -2.54895,-6.95947 -10.70074,-12.39587 -18,-13 v -1 h 7 v -2 h -18 v -1 l 5,-1 c -5.31958,-2.56354 -11.00403,0.98669 -16,3 m 50,-3 1,10 h 1 l -2,-10 m -270,1 v 5 h 1 l -1,-5 m 75,0 c -3.01837,5.53369 -4.17163,11.72485 3,14 v -1 l -3,-13 m -142,2 v 1 c 7.49136,1.4129 15.84756,3.17834 23,0 l -23,-1 m 98,2 c -1.20624,3.70416 -2.46927,10.46722 1,13 l -1,-13 m 6,0 c -1.70712,5.34247 -4.92438,14.47028 1,18 l 1,-18 h -2 m -113,1 c 0.75159,4.52167 2.78217,7.1969 7,9 v 1 l -14,7 c 6.07959,-0.74243 19.17386,-3.44922 21,-10 l -10,-3 c 5.36447,1.74695 15.55078,2.30145 19,-3 l -23,-1 m 362,1 2,4 -2,-4 m -205,1 -1,7 h 1 l 2,-7 h -2 m 193,0 1,1 -1,-1 m -232,4 c -1.18387,4.6908 -1.72369,9.39056 3,12 l -3,-12 m 98,2 c -1.0694,9.00751 -3.0061,21.61823 5,28 l -5,-28 m 111,1 10,13 -6,-4 c 3.20227,7.1087 6.28363,12.91736 5,21 l -2,-3 -1,14 c 7.9389,-5.1925 6.46741,-20.2782 4,-28 5.19019,-4.10217 -6.21753,-11.85291 -10,-13 m -124,3 c -0.39093,4.46686 -1.28406,10.40527 3,13 l -3,-13 m 5,0 c 0.50562,5.6402 -1.85938,16.99347 5,19 l -5,-19 m -177,2 v 10 h 1 l -1,-10 m -5,1 v 13 h 1 l -1,-13 m -5,2 c -0.76263,4.95026 -1.05258,9.60095 4,12 l -4,-12 m 257,4 v 1 l 23,5 c -5.33014,-5.78064 -15.53009,-8.43262 -23,-6 m -301,14 c 6.06857,-1.64679 16.83337,-6.44055 20,-12 -7.29266,1.11816 -15.67981,6.04559 -20,12 m 64,-10 c 0,19.08545 12.08252,36.34607 30,19 l -6,8 c 5.93958,-1.39087 8.74075,-6.12067 9,-12 h -1 l -1,4 h -1 l 1,-6 c -13.14618,0.0446 -20.54721,-1.69391 -29,-13 h -2 m 150,0 c -9.9458,6.12671 -20.45923,11.68011 -32,14 -3.12927,0.62903 -12.10675,-1.25787 -13.87036,1.47687 -3.50629,5.43707 6.72827,11.77105 10.87036,12.37036 12.29041,1.77814 24.43774,-4.87225 31.27777,-14.85187 C 579.75244,318.38477 582.86938,313.29132 581,309 m 92,2 c 6.9483,4.70441 17.06305,5.00305 25,3 l -25,-3 m -34,2 c -2.70264,8.29901 -4.51123,25.65387 -1.19446,33.97687 3.81085,9.5628 8.19116,-1.16071 8.19446,-5.97687 h -1 l -2,8 c -8.72717,-11.20538 1.4234,-24.76953 -4,-36 m -205,1 c 6.23978,8.96417 14.75128,11 25,11 -9.22055,13.49689 -31.98395,4.02594 -25,-11 m 352,21 c 6.76788,5.92187 -10.35187,13.474 -13,19 9.07336,-3.54572 22.10211,-12.0614 16,-22 l 8,-4 c -2.80145,3.88239 -2.26709,5.81464 2,8 -4.07642,3.78882 -26.20801,16.112 -16,21 l -17,12 c 5.2467,-0.85425 24.92224,-9.53107 15,-15 l 21,-19 -5,-3 v -1 l 21,-17 c -8.39581,0.69489 -29.88556,12.57922 -32,21 M 578,315 c -5.40137,12.92462 -35.22906,32.25146 -42,10 16.68823,3.14746 26.87103,-5.64813 42,-10 m -111,2 -4,20 c 7.66003,-3.38159 6.39044,-12.89471 6,-20 h -2 m 214,0 14,8 c -2.67993,-4.95044 -8.60968,-7.29059 -14,-8 m -307,3.33331 c 0.77332,0 0.16025,0.49793 -0.33334,0.33338 L 374,320.33331 M 530,320 c -1.34521,7.13245 -1.6651,14.64941 6,18 l -4,-18 h -2 m -158,1 v 1 l -4,2 4,-3 m 127,1 c -4.12387,12.66364 -4.83673,30.63086 -5,44 l -3,-1 4,-37 h -1 c -1.6991,8.97662 -2.58722,17.96704 -3.74072,27 -0.56842,4.45142 0.45001,9.11383 -5.25928,9 l 5,-41 h -1 l -6,41 h -4 l 3,-29 h -1 l -3,29 h -5 l 3,-28 h -1 l -6,29 3,-24 h -1 l -4,25 h -3 l 1,-20 h -1 c -0.40695,6.05841 -0.23251,19.25098 -6,22 l 2,-22 h -1 c -1.80508,7.05737 -0.20786,21.2735 -7,25 l 2,-23 h -1 c -1.39697,7.4071 -0.0732,19.80951 -6,25 l 3,-26 h -1 l -3,15 h -1 c -1.71957,-21.4801 -28.4043,-30.89526 -46,-22.70831 -13.49448,6.27874 -17.4155,16.97516 -19.25928,30.70831 -0.85046,6.33466 -1.01404,12.17554 2.12964,18 2.79401,5.17657 7.06647,9.22589 12.12964,12.14813 6.96793,4.02161 13.19586,3.85187 21,3.85187 v 1 l -10,1 v 2 l 17,-5 c -8.2215,20.26483 -14,39.96216 -14,62 -4.0043,0.52429 -10.99628,4.39252 -14.80093,2.83331 -3.82727,-1.56848 -4.62195,-8.21911 -8.33796,-10.6759 -3.78167,-2.50018 -24.62808,-7.76587 -27.65741,-2.68054 -2.06277,3.46277 2.2974,12.24029 3.7963,15.52313 -5.19958,1.47449 -13.29688,1.18536 -17.78705,4.06482 C 337.82306,477.5213 336.07211,493.09583 336,499 h 1 c 2.30649,-6.15894 2.96942,-16.95697 7.41666,-21.78241 4.05941,-4.40466 11.61752,-1.46069 16.36575,-4.43518 C 365.63101,469.74506 360.18759,459.17773 359,455 c 15.74792,0.0534 25.08862,2.57056 32,17 l 17,-4 v 1 l -18,8 c -5.2417,-11.61841 -9.59131,-14 -22,-14 l 3.05093,15.65741 -21.04629,4.81946 L 340,509 c 7.21494,-5.74646 6.36624,-16.03003 11.75,-22.78241 7.17758,-9.00226 26.17639,4.25903 21.375,-14.21759 -0.61426,-2.36383 -1.38068,-4.67554 -2.125,-7 3.7709,0.7265 7.8418,0.19293 10.69446,3.20367 2.84732,3.00513 3.97436,8.97596 8.36572,10.25464 C 397.32553,480.57385 413.81161,467.67773 420,464 v -1 l -10,1 c 0.0187,-27.47626 10.10678,-62.03436 31,-80.86572 C 477.92261,349.85541 529.56274,374.87524 549.06482,414 557.20599,430.33264 558,448.14954 558,466 h 2 c 0.59564,-20.90857 -3.84814,-36.12054 -9,-56 7.59821,5.8302 17.60065,9.06097 27,6 v -1 h -9 v -1 c 20.3241,-3.83325 39.26288,-8.49084 44,-32 -5.09998,-5.94989 -1.54559,-18.22821 -6.72687,-26 C 593.21057,336.40643 553.62347,332.07092 542,356 h -1 l 1,-4 h -1 c -6.72076,11.54584 -6.39044,24.32556 -4,37 -10.6687,-10.68317 -5,-22.17273 -5,-36 h -2 l -3,27 h -1 l 1,-27 h -1 l -3,24 -3,-1 3,-23 h -1 l -3,21 h -3 l 3,-26 h -1 l -4,24 -3,-1 4,-27 h -1 l -4,26 -4,-1 3,-29 h -1 l -3,28 h -4 l 4,-35 h -1 l -5,34 c -3.65787,-3.35413 -2.26617,-9.3244 -1.58795,-14 1.12863,-7.7807 4.96738,-23.9873 1.58795,-31 m 185,2 13,9 c -3.17914,-4.6568 -7.34814,-8.07983 -13,-9 m -163,2 -2,12 h 1 l 1,-12 m 199,1 c -0.55457,12.57739 -13.86652,11.98773 -19,21 l 12,-6 -1,3 6,-7 h 1 v 3 h 1 c 1.49274,-4.67163 3.48901,-9.92957 0,-14 m 78,0 -1,1 1,-1 m -275,5 c 0.0533,4.13489 0.26331,6.82306 4,9 l -2,-9 h -2 m 166,2 6,7 -6,-7 m -520,3 c 1.83347,5.85724 7.58763,9.08215 12,13.04169 10.9529,9.82879 22.19603,19.53039 34,28.32867 3.47214,2.58801 11.14455,10.40741 15.84723,9.07404 C 236.20471,385.92542 240.15384,370.80786 242,366 c 6.25069,4.63074 20.48965,9.26654 24.09259,16.13892 2.61972,4.99694 -2.54263,11.51483 -0.61575,16.84259 1.20663,3.3363 4.81976,5.37304 7.52316,7.38885 6.72122,5.01172 18.41998,15.93237 27,15.62964 -6.19678,-7.62988 -18.35495,-17.03546 -20.52316,-27 -1.58573,-7.2876 6.59469,-18.45709 2.04168,-24.86108 -6.11886,-8.60639 -22.50436,-12.9574 -31.51852,-17.98615 -2.96753,-1.65552 -8.11487,-6.00775 -11.72223,-4.19903 C 232.99445,350.60278 228.15765,363.69055 226,369 l -57,-32 m 665,54 c -1.15796,-4.31024 -6.03949,-19.56146 -11.00464,-20.30554 -4.39007,-0.6579 -10.00616,9.40777 -12.41205,12.30554 -9.70617,11.69061 -27.5606,28.79407 -30.58331,44 l 39,-31 c 1.5376,4.49664 6.42908,17.72717 12.01849,18.10645 C 837.1026,414.51935 847.92633,401.05792 852,397 864.40283,384.64496 877.13239,372.85529 889.06018,360 895.36847,353.20117 903.57837,345.75586 907,337 L 886,350.29163 834,391 M 413,339.51855 c 17.60226,-0.027 34.24271,16.14734 29.65741,34.48145 -1.35992,5.43762 -6.64475,8.89264 -10.05093,13.00464 -5.97077,7.20795 -9.51596,11.98608 -19.60648,11.98608 -38.50595,0 -38.69019,-59.41272 0,-59.47217 M 714,341 l -1,1 1,-1 m -146,2.26392 c 12.17657,-1.77112 26.92187,2.32965 34.25464,12.73608 13.60199,19.30353 0.19177,46.98102 -22.25464,50.72223 -12.15314,2.02557 -26.72076,-1.7735 -34.52313,-11.72687 C 529.83466,375.04083 544.1701,346.73004 568,343.26392 M 898,345 c -7.75189,18.36975 -32.047,34.14929 -46,48 -6.16479,6.11963 -13.74249,15.07001 -22,18 L 818.35181,393.5 810,398.60645 789,416 c 8.11389,-13.3775 21.05566,-33.16309 34,-42 2.54846,4.28815 6.2066,17.31079 11.15277,18.89355 C 838.6571,394.3349 847.78021,383.61407 851,380.9259 865.84766,368.52991 881.46075,355.04279 898,345 m -214,2 c -0.66553,9.90796 -3.23022,20.04504 -1.58331,30 1.91363,11.56732 8.55377,5.72296 8.58331,-3 h -1 l -2,8 h -2 l -2,-35 m 13,0 1,1 -1,-1 m 52,0 -1,1 1,-1 m -562,3 c 8.64417,5.77057 18.0909,10.25708 27,15.60187 2.89275,1.73541 7.37286,5.6087 10.93982,5.35644 7.31151,-0.51703 8.7742,-15.82049 14.37962,-19.32867 3.07138,-1.92224 7.07782,1.67651 9.68056,3.08331 7.57083,4.0921 25.53845,9.46967 30.10648,16.76392 3.39968,5.42865 -3.08066,16.32129 -2.52314,22.52313 0.57569,6.40411 7.38794,12.51562 10.41666,18 -5.34616,-2.23425 -17.66992,-8.78467 -18.72223,-15.01849 -0.82141,-4.86597 2.95685,-11.26484 0.71298,-15.93525 C 265.73651,374.27283 247.86172,365.849 241,363 l -10,22 C 218.48181,381.35681 206.6821,368.46802 197,360.11572 193.84305,357.3924 187.6308,354.2113 187,350 m 225,0.43054 c -23.76114,4.46442 -20.1369,41.14716 4,37.29169 25.33383,-4.04669 21.85098,-42.14874 -4,-37.29169 m 155,5 c -26.9917,5.12342 -19.96735,43.87982 7,39.29169 27.54108,-4.68573 20.85193,-44.57837 -7,-39.29169 M 409,356 l -2,2 2,-2 m 132,0 -1,1 1,-1 m 202,0 v 1 l -4,1 4,-2 m -318,3 v 1 l -21,11 c 4.56094,-5.87787 13.6351,-10.87073 21,-12 m 2,4 v 1 l -6,2 6,-3 m 149,1 -1,1 1,-1 m -12,1 -2,2 2,-2 m 10,0 -1,1 1,-1 m -2,1 -1,1 1,-1 m -144,1 -1,1 1,-1 m 142,0 -1,1 1,-1 m -2,1 v 1 l -6,3 6,-4 m 8,0 -1,1 1,-1 m -162,1 v 1 l -10,5 10,-6 m 160,0 -1,1 1,-1 m 11,0 v 1 l -28,14 c 6.13684,-7.06921 18.91931,-12.97321 28,-15 m -13,1 -1,1 1,-1 m -2,1 v 1 l -12,6 12,-7 m -16,1 -1,1 1,-1 m -129,49 h -1 c -4.00616,15.70483 17.54602,12.83118 19.78241,22.02313 5.33212,21.91602 -9.58841,52.91449 5.78705,72.91205 8.51913,11.08008 43.88638,11.72107 51.81943,0.0602 C 512.62787,499.4751 510.504,466.57892 507,448 c 14.00006,0 33.40906,-0.4671 34,-19 -5.65466,5.20917 -7.84558,12.11694 -16,14.58331 -20.39001,6.16718 -56.4794,-13.58624 -54.97687,-36.57867 0.69739,-10.67188 24.84842,-9.31641 22.73615,-22 -1.98117,-11.89642 -34.35446,-13.61792 -38.82874,-2.98615 -6.12231,14.54786 23.38507,21.50086 12.5741,38.97687 C 455.36707,438.99933 434.00421,439.77222 425,421 m 153,-44 -1,1 1,-1 m 164,0 3,5 -3,-5 m -340,1 -1,1 1,-1 m 337,4 h -11 c 2.54077,-3.50061 8.66333,-3.67151 11,0 m -278,3 c 3.57227,-13.73889 28.92401,3.40668 8,0.74072 -2.70697,-0.34491 -5.26312,-0.70733 -8,-0.74072 m 246,-5 -5,15 h 1 l 4,-15 m -303,1.33331 0.33334,0.33338 c -0.49353,0.16455 -1.10678,-0.33338 -0.33334,-0.33338 M 662,381 c -1.4068,4.97284 -2.35974,8.45947 2,12 v -12 h -2 m 6,0 1,1 -1,-1 m 59,0 -1,1 1,-1 m -116,2 -5,12 h -1 l 6,-12 m 101,0 -5,13 c 5.17859,-2.38251 5.95386,-7.79077 7,-13 h -2 m -46,3 1,8 h 1 l -2,-8 m -86,2 v 1 l -5,2 5,-3 m -188,7 -1,1 1,-1 m 245.33331,0.66669 0.33338,0.66662 -0.33338,-0.66662 M 756,395 l 3,15 h 1 c -0.0178,-5.24213 -0.24097,-11.07526 -4,-15 m -628,2 -1,1 c 3.59784,7.94769 18.75238,16.60522 27,19 l 2,-9 17,8 c -4.82002,-6.05164 -19.79025,-14.87469 -20,-2 l -22,-13 v -1 l 18,7 1,-6 26,12 c -3.76813,-7.56036 -18.43054,-11.94965 -26,-15 l -2,7 -20,-8 m 634,0 1,11 h 2 c -0.003,-3.99469 0.63593,-8.62195 -3,-11 m -129.33331,1.33331 0.66662,0.33338 -0.66662,-0.33338 M 637,398 l 1,8 h 1 l -2,-8 m -307,1 v 2 h -2 l 2,-2 m 10,18 21,-18 c -7.58466,2.68604 -17.84689,10.52783 -21,18 m 10,4 23,-22 c -8.496,3.32001 -19.91901,13.31659 -23,22 m 282,-21 1,3 h 1 l -2,-3 m -251,1 -19,21 c 5.3093,-2.76123 19.20432,-14.8465 19,-21 m 24,0.33331 c 0.77335,0 0.16025,0.49793 -0.33334,0.33338 L 405,401.33331 m 237.33331,1.33338 0.33338,0.66662 -0.33338,-0.66662 M 328,404 l -2,2 v -2 h 2 m 61,0 -18,19 c 4.0322,-1.75635 19.02374,-14.51898 18,-19 m 8,3 -14,14 c 4.78851,-2.02069 13.24582,-8.72089 14,-14 m 161,1 -1,1 1,-1 m 2,1.33331 0.33331,0.33338 c -0.49353,0.16455 -1.10675,-0.33338 -0.33331,-0.33338 M 567,410 v 1 h -4 l 4,-1 m -9,1 -1,1 1,-1 m 6,2 v 1 l -5,-1 h 5 m 5,0 v 1 h -4 l 4,-1 m 34,0 c -8.15723,6.07501 -19.07764,14.42804 -23,24 6.15033,-4.14746 21.95081,-16.65552 23,-24 m 11,1 c -7.69122,6.24072 -18.61066,14.44788 -22,24 h 1 l 21,-24 m -294,1 -2,3 2,-3 m 283,24 c 9.07166,-5.04053 20.19891,-15.39752 26,-24 -9.72888,3.80188 -20.33783,15.29443 -26,24 m 35,-22 -20,21 c 5.21417,-3.51617 19.71716,-14.42737 20,-21 m 80,0 2,7 -2,-7 m -86,20 18,-17 c -7.20612,2.96295 -14.25372,10.25769 -18,17 m -315,-13 -1,1 1,-1 m 154,0 v 17 h -2 l 2,-17 m -155.33334,2.66669 -0.33332,0.66662 0.33332,-0.66662 M 466,427 c 4.97733,7.9032 1,28.43036 1,38 h -2 L 465.93982,442 466,427 m 7,0 c 3.99609,5.27509 2.11295,27.5116 0,34 h -1 l 1,-34 m 357,15 h -1 c -10.94568,9.51251 -32.6875,18.82739 -39,32 l 35,-16 c 1.13751,3.32666 4.77094,13.96777 9.06482,13.89355 4.25873,-0.0736 10.6908,-7.31384 13.93518,-9.89355 10.32349,-8.2085 20.59125,-16.48828 31,-24.58795 3.90839,-3.04132 9.66132,-5.42688 11,-10.41205 l -38,18.24072 -14.93518,5.55091 L 830,442 M 355,428 c -1.60532,4.18799 -4.53427,9.85577 0,13 v -13 m -147,2 c 5.72464,6.20837 18.69576,10.90704 27,12 l -1,-5 11,2 v -1 l -12,-4 v 4 l -25,-8 m 256,0 -2,39 h -1 l 3,-39 m 13,0 v 6 h -1 l 1,-6 m -119,1 -1,11 h 1 v -11 m 104,1 -4,41 h -1 l 3,-41 h 2 m 19,1 -1,14 h -1 v -14 h 2 m -121,2 1,7 h 1 v -7 h -2 m 97,0 c 0,12.41791 2.03503,31.66943 -3,43 h -1 l 2,-43 h 2 m 26,0 v 6 h -1 l 1,-6 m -31,2 v 8 l -5,-6 5,-2 m 34,0 c 0.99738,3.38739 1.08887,6.86047 -2,9 l 2,-9 m 387,1 v 1 l -40,30 c -6.83185,-15.14343 -11.83722,-11.34009 -25,-6 4.56519,-6.55389 14.54883,-14.08826 22,-17 l 6.15277,8.78705 L 847,450.75928 873,438 m -396,1 v 4 h -1 l 1,-4 m 12,0 v 7 h -1 l 1,-7 m 4,2 v 6 h -2 v -6 h 2 m 227,0 -6,10 v 1 c 4.44794,-1.19537 7.68127,-6.5553 6,-11 m -249,1 -1,21 h -1 c 0,-6.00647 -2.01477,-16.31616 2,-21 m 12,0 -1,7 h -1 l 2,-7 m 240,0 -5,13 1,1 c 3.8866,-3.09808 7.56445,-9.60413 4,-14 m -49,4 c 8.43732,-1.59131 13.27838,1.35962 21,4 -3.70502,-5.05432 -16.349,-10.71796 -21,-4 m 76.66669,-2.33331 -0.33338,0.66662 0.33338,-0.66662 M 499,445 l 1,9 h -1 v -9 m -22,1 v 4 h -1 l 1,-4 m 26,0 v 5 h -1 l 1,-5 m 175,2 v 1 h 6 l -6,-1 m -230,0 v 9 h -1 l 1,-9 m 4,0 -1,35 h -1 v -35 h 2 m 233,0 1,1 -1,-1 m -205,2 -1,9 h -1 v -9 h 2 m 202,0 13,5 c -2.67883,-4.62115 -8.30463,-3.815 -13,-5 m -200,2 v 6 h -1 l 1,-6 m 7,0 -1,1 1,-1 m 85,2 -5,17 -26,-7 c 6.66589,8.58392 21.78412,15.60388 32,19 l 5,-14 26,13.375 10.13892,-8.54626 L 631,471 l -2,4 c 8.24158,4.89795 20.5365,14.03058 30,15 -5.55658,-7.68091 -17.35205,-12.49152 -26,-16 v -2 l 3,-1 v -1 c -5.66315,-1.84424 -16.48889,-2.26117 -21.86108,0.88428 -3.14435,1.84106 -4.3747,7.02258 -8.15741,7.76849 -9.42267,1.85803 -24.14124,-22.69812 -30.30097,-5.65277 -0.71423,1.97644 -1.22949,3.95422 -1.68054,6 l -14,-6 v -1 c 13.05371,1.70917 11.30957,-3.47528 15,-15 l 28,13 c 9.01825,-13.24408 26.84839,-7 41,-7 l -7,8 v 1 l 9,6 -5,-5 v -1 c 2.17096,-1.80573 7.7677,-6.25012 6.02777,-9.58337 C 645.12469,458.77081 637.28345,460.04852 634,459.99536 622.86591,459.815 607.33551,454.26245 602,467 l -28,-13 m -82,1 -1,1 1,-1 m -338,1 c 4.10551,15.51678 7.82941,33.02856 16,47 h 1 l -9,-29 h 1 l 2,5 h 1 c -1.50322,-6.73486 -5.60631,-19.81329 -12,-23 m 323,0 -1,4 h -1 v -4 h 2 m 23,0 -1,1 1,-1 m 3,1 -1,1 1,-1 m 186,0 5,3 -5,-3 m -478,2 v 1 l 28,16.04626 23,12.95374 4,-13 24,7 c -3.83087,-7.88348 -22.6268,-16.75061 -31,-19 L 257,475 225,463.31946 211,459 m 123,-1 -1,2 h 2 l -1,-2 m 165,55 c -1.53735,-2.26721 -2.10846,-5.67328 -4.33795,-7.42126 C 488.28406,500.57819 485.54425,515.55121 484,519 c -5.39664,-6.62256 -5.93271,-11.92554 -13,-4 -3.28824,-4.255 -5.00385,-4.63379 -10,-3 -2.03336,-6.70044 -6.85635,-9.38263 -10,-2 -13.00027,-19.69812 12.15897,-43.16077 29,-48.65741 4.92786,-1.6084 20.26053,-4.90271 24.13428,0.14813 4.38635,5.71918 0.67639,22.74018 0,29.50928 -0.75962,7.60187 -1.51081,15.11731 -5.13428,22 m -51.33334,-52.33331 -0.33332,0.66662 0.33332,-0.66662 M 730,460 l 2,11 h 1 l -3,-11 m -399,1 v 2 l 2,-2 h -2 m -1.66666,3.66669 0.33332,0.66662 -0.33332,-0.66662 M 727,464 l 3,11 -3,-11 m -279,1 -1,1 1,-1 m 264,1 v 16 h 1 l -1,-16 m -450,1 12,7 v 1 c -9.54968,-1.2439 -10.13995,1.06848 -13,10 l -27,-15 v -1 l 25,9 3,-11 m 147,0 -1,1 1,-1 m 38,3 v 18 h -1 l 1,-18 m 112,1.33331 c 0.77325,0 0.16022,0.49793 -0.33331,0.33338 L 559,471.33331 M 409,472 c -2.29947,7.80963 2.00287,18.70807 5.00464,26 9.92905,24.11987 32.80331,46.08142 59.99536,48 l -11,-8 3,4 -11,-8 -1,3 c -14.71564,-10.46692 -27.39182,-20.28369 -35.75,-37 -3.98389,-7.96777 -3.79602,-21.67419 -9.25,-28 m 333,0 -1,1 1,-1 m -580,1 -1,1 1,-1 m 25,4 -4,53 h 2 l 2,-34 h 1 l 3,26 9,-6 -1,11 h 1 l 3,-17 -10,9 -4,-42 h -2 m 369,0 c -9.97327,30.62512 -27.05988,66.76343 -66,66 3.62296,6.58191 15.72726,0.52795 21,-1.60187 C 526.35364,535.19617 548.52722,520.396 550,502 h 1 l 1,2 4,-13 -1,7 h 2 c 0.19714,-6.31842 3.45941,-15.79742 -1,-21 m -451,6 c 2.20418,9.44464 20.66199,30.55408 31,30 -6.71402,-12.3551 -18.21071,-23.94373 -31,-30 m 109,0 -4,14 h 1 l 5,-14 h -2 m 503.33331,0.66669 0.33338,0.66662 -0.33338,-0.66662 M 706,485 l -1,8 h 1 v -8 m 3,0 v 11 h 1 l -1,-11 m -491,1 -3,9 c 3.46165,-1.83093 4.6741,-5.39819 3,-9 m 498.33331,0.66669 0.33338,0.66662 -0.33338,-0.66662 M 884,497 l -2,-10 -27,10 v 1 l 26,-8 2,10 27,-7 v 1 l -33,14 c 0,-2.88306 1.15497,-9.01398 -0.88892,-11.31018 C 872.77332,492.94 858.7038,499.30896 855,501 v 1 l 20,-4 -1,13 c 13.25189,-0.45844 28.86993,-11.4527 41,-16.72687 5.12885,-2.23004 11.35297,-3.94 15,-8.27313 l -46,11 m 28,-5 -1,1 1,-1 m -796,1 c 5.61413,4.1972 11.60767,9.25763 14,16 -4.48656,-3.02551 -14.19177,-10.22327 -14,-16 m 211,2 -1,1 1,-1 m 422,12 20,-2 -2,9 23,-4 -1,10 36,-8 v -1 l -28,1 2,-10 -23,5 1,-9 c -6.37738,0.20337 -24.50049,3.64392 -28,9 m -197.33331,-7.33331 -0.33338,0.66662 0.33338,-0.66662 M 774,500 l -1,9 23,-5 -2,10 h 7 v 1 l -10,2 1,-9 -23,4 c 0.62006,-4.15411 2.22333,-6.70465 -1,-10 l 6,-2 m -554,22 6,-5 -8,16 c 7.48544,-4.06628 15.79489,-21.87421 18,-30 -6.95473,1.67535 -13.71722,12.50427 -16,19 m 416,-19 1,6 h 1 l -2,-6 m 55,0 -4,18 c 4.32965,-2.6095 6.82373,-13.85406 4,-18 m -5,1 -8,23 c 5.75891,-4.1814 11.34564,-15.99896 8,-23 m 10,1 -5,16 h 1 c 2.29974,-4.21094 6.02161,-11.35925 4,-16 m -99,15 10,-14 c -5.43292,2.45947 -8.49512,8.39832 -10,14 m -141,-13 4,11 c -5.77817,-1.38672 -7.77304,-6.05231 -4,-11 m 37,0 c 4.02762,7.65039 3.15143,12.37915 -6,13 l 4,-13 h 2 m -119,1 1,1 -1,-1 m -42,4 -1,1 1,-1 m 4,0 3,6 -3,-6 m 141,0 4,9 -8,-1 4,-8 m -330,1 1,9 -6,-2 15,12 c -2.31433,-5.41742 -7.4294,-6.6026 -6,-13 l 9,7 -13,-13 m 216,0 1,12 h 1 l -2,-12 m 104,0 2,7 c -4.52905,-0.79034 -5.02036,-2.73395 -4,-7 h 2 m -239,1 -2,3 2,-3 m 380,0 -5,9 5,-9 m -519,1 c 2.397766,9.54932 25.73451,20.57935 35,22 -4.47908,-9.8656 -25.089546,-18.49036 -35,-22 m 112,0 -1,1 1,-1 m 167,2 c -0.97266,3.91724 -1.11887,6.25403 2,9 l -2,-9 m 243,1 -3,7 h 1 l 2,-7 m -270,1 3,3 -4,-2 1,-1 m 334,2 -12,18 c 6.5694,-4.43018 11.03851,-10.7124 14,-18 h -2 m -389,5 9,-2 c -3.05493,-1.76013 -8.13916,-2.01733 -9,2 m 72,1 c 2.80014,7.16553 9.46207,15.71405 17,18 -3.94666,-6.3324 -10.05652,-15.06799 -17,-18 m -92,8 27,-2 v -1 l -20,1 v -1 l 13,-1 c -5.59134,-4.26379 -16.98569,-2.552 -20,4 m 88,-5 3,3 -3,-3 m 197,9 4,-9 c -4.09137,1.25696 -9.30042,5.72937 -4,9 m 156,-9 -4,7 c 4.90869,-1.00574 7.26868,1.01569 10,5 l -14,-3 8,-9 m -480,10 12,-9 c -5.07886,1.02679 -9.84703,4.24408 -12,9 m 144,-5 c 1.80347,6.01416 6.05789,10.89026 12,13 l -12,-13 m 187,0 -2,4 4,-4 h -2 m 169,0 7,11 c -1.05853,-4.72815 -2.66241,-8.57361 -7,-11 m -50,15 c 5.61578,-1.32678 10.46619,-7.98279 13,-13 -5.54004,1.33459 -10.58081,7.97681 -13,13 m 58,-13 3,8 h 1 l -4,-8 m -504,7 8,-6 -8,6 m 99,-6 -1,1 1,-1 m 49,0 c 2.08752,6.96143 8.3606,13.22083 15,16 -2.40408,-5.6972 -9.34225,-13.44067 -15,-16 m 95,2 c 1.21124,3.97784 2.90958,6.03296 7,7 l -7,-7 m 361,4 v 2 l 22,-3 v 1 l -22,6 v 1 c 9.13214,2.36053 21.32867,-4.44092 29,-9 -5.88855,-4.77484 -21.59448,1.76886 -29,2 m -480,-3 -6,7 6,-7 m 34,0 16,17 c -2.2114,-7.29211 -9.26147,-13.74963 -16,-17 m 331,0 2,3 -2,-3 m -361,1 -6,7 6,-7 m 123,0 c 1.25665,3.79803 3.09329,4.66974 7,5 v -1 l -7,-4 m 195,0 -15,15 c 5.33826,-1.45227 17.09534,-8.40869 15,-15 m -471,48 c -2.24934,4.15515 -8.49463,5.40698 -13,6 l 3,-14 h -1 l -3,7 -12,-42 c 5.8306,-1.10364 17.26808,-5.40344 22.72223,-2.11108 2.78461,1.68084 3.39322,5.65075 6.43054,6.96295 2.74584,1.18622 5.93784,-0.62921 8.64816,1.03705 3.90731,2.40203 6.44489,15.70398 5.84722,20.03234 -0.54659,3.95838 -5.98528,4.00684 -8.43056,6.41669 C 212.00858,582.50049 213.29295,594.15503 206,590 m 197,-43 c -0.61725,6.68512 11.69641,16.42346 17,20 l -8,-11 15,11 c -6.30167,-9.34473 -14.62921,-14.45642 -24,-20 m -280,3 c 3.16889,6.90845 15.00343,9.59021 22,11 v -1 l -18,-8 v -1 h 16 c -5.22969,-3.44617 -14.14444,-2.47778 -20,-1 m 413,-1 v 8 h 1 l 1,-8 h -2 m -345,46 -5,1 -0.43982,-11.99536 -5.19907,-8.08338 L 180.32408,566 175,550 c 5.4155,1.37793 6.11888,7.12195 7.37038,12 2.80742,10.94263 5.32812,22.25745 8.62962,33 m 9.33333,-42.33337 0.33334,0.66674 -0.33334,-0.66674 M 543,552 l -3,5 3,-5 m 184,0 1,2 -1,-2 m -537,1 v 3 l 2,-1 v -1 l -2,-1 m 4,0 v 2 h 2 l -2,-2 m 4.33333,0.66663 0.33334,0.66674 -0.33334,-0.66674 M 417,553 c 2.37759,5.16809 12.74762,12.78357 18,15 l -4,-6 10,8 -4,-5 1,-3 8,4 c -0.53143,3.25159 0.0327,4.49817 3,6 l -3,-4 v -1 l 2,-2 -21,-12 6,5 -16,-5 m 202,11 v -1 l 11,-8 c -6.42249,2.60559 -19.52222,6.97278 -23,13 l 12,-4 c 0.53827,3.05139 4.80426,0.72864 7,-0.29163 5.07019,-2.35608 14.2002,-5.85614 17,-10.70837 l -24,11 m -433,-10 1,3 h 1 v -3 h -2 m 120,1 -1,1 1,-1 m 106,0 -1,1 1,-1 m 240,0 -1,1 1,-1 m -210,1 c 2.76251,6.32007 12.03345,11.70502 18,15 -3.23868,-7.67505 -10.97198,-11.3382 -18,-15 m 259,0 v 1 l 14,2 -14,-3 m -51,2 v 1 l 9,-1 h -9 m -51,10 19,-9 c -5.04919,-1.91003 -16.4339,4.55273 -19,9 m -165,-8.66663 c 0.77335,0 0.16025,0.49781 -0.33334,0.33326 L 434,559.33337 M 454,559 l 16,16 c -2.14963,-7.10437 -8.87195,-13.92542 -16,-16 m -237,1 4,11 -2,-11 h -2 m 378,0 -16,10 c 4.53076,-1.21716 15.19037,-4.99976 16,-10 m -385,1 3,11 h 1 l -2,-11 h -2 m 4,0 2,10 h 1 l -3,-10 m 129,84 v 1 c -23.17502,17.31067 -42.39645,40.07025 -72,46.35187 -17.38071,3.68805 -34.87126,-4.34577 -36.86574,-23.35187 -1.47578,-14.06329 1.9404,-29.7644 6.5463,-43 4.29547,-12.34363 11.27087,-27.62488 9.04167,-41 -1.17397,-7.0437 -5.38521,-13.24243 -11.72223,-16.64813 -4.5092,-2.4234 -11.545,-0.83228 -13,-6.35187 19.33035,-4.87854 30.08499,11.53967 28.93982,29 -1.48198,22.59546 -14.78085,43.10675 -14.93982,66 -0.0785,11.30444 2.35535,22.67346 13,28.68982 22.02469,12.44836 51.96725,-13.52661 67,-26.81946 7.44348,-6.58197 13.53067,-13.83484 24,-13.87036 m -20,-84 -2,5 h 1 l 1,-5 m 108,0 -1,1 1,-1 m 133,11 22,-10 c -6.12634,-2.66876 -19.388,4.30573 -22,10 m 36,-10 -8,7 8,-7 m 40,0 -1,1 1,-1 m -462,8 -18,4 c 0.87485,-6.24463 -5.28189,-6.07007 -4,0 -2.52332,-0.66772 -5.01053,-2.578 -2.36574,-5.25 5.56256,-5.61975 24.19902,-8.94873 24.36574,1.25 m 117,-7 -2,3 2,-3 m 174,1 -1,1 13,11 -12,-12 m 75,1 -13,9 c 3.66437,-1.48663 13.71027,-4.35742 13,-9 m -67,1 14,10 -14,-10 m 43,7 16,-6 c -4.16064,-1.51953 -13.62347,2.29779 -16,6 m 24,0 14,-6 c -4.19806,-1.53314 -11.67743,2.36316 -14,6 m 10,0 9,-6 -9,6 m -395,-4 -2,3 2,-3 m 331,0 c 1.52499,3.48401 3.15701,5.08643 7,5 l -7,-5 m 135,1 v 1 h -3 l 3,-1 m 174.66669,0.33337 0.66662,0.33326 -0.66662,-0.33326 M 539,574 l 4,-3 -4,3 m -440,5 c 7.37635,0 25.55737,0.79248 30,-6 -7.27998,0.005 -25.87179,-0.84937 -30,6 m 269,-6 1,1 -1,-1 m 42,1 4,3 -4,-3 m -115,1 -2,2 2,-2 m 436,1 4,6 -4,-6 m -21,2 v 14 h 1 c 1.8595,-4.74207 2.53656,-9.95947 -1,-14 m -359,1 6,3 v -1 l -6,-2 m 354,0 1,12 h 2 l -1,-12 h -2 m -496,1 -2,10 h 1 l 1,-10 m 368,0 -1,1 1,-1 m -372,1 -3,11 h 1 l 2,-11 m 109,0 5,3 v -1 l -5,-2 m 44,0 1,1 -1,-1 m -174,1 1,6 -18,5 -1,-7 18,-4 m 17,0 -4,12 h 1 l 3,-12 m -66,1 -10,4 v 1 c 2.80875,-0.15344 11.3351,-1.41016 10,-5 m 201,0 c -1.12268,5.84741 -3.86414,14.10217 -1.37036,19.91669 C 339.02658,613.16864 341.99802,594.91791 342,592 h -2 l -1,12 c -5.59088,-4.91797 -2.22351,-14.53595 -1,-21 h -2 m 15,0 c 2.92609,5.53235 9.99014,3.69263 15,2 v -1 l -15,-1 m 307,0 c -5.58258,5.16541 -10.31909,11.49194 -12,19 l 12,-19 m 66,1 v 25 h 1 c 1.43567,-5.6889 4.60754,-21.60388 -1,-25 m -413,1 2,2 -2,-2 m 391,1 v 4 h 1 l 1,-4 h -2 m -538,1 v 1 c -2.73553,2.28418 -2.89034,3.56055 -2,7 -6.42758,-1.69562 -2.45673,-6.6261 2,-8 m 150,0 v 1 h 5 l -5,-1 m 224,2 v 1 l -10,2 10,-3 m -373,1 v 3 l -2,-3 h 2 m 27,0 -1,1 1,-1 m 470,0 -10,16 h 1 l 9,-16 m -209,21 h 1 l 9,-20 c -7.34955,3.33679 -9.97455,12.50372 -10,20 m -334,-16 6,-2 c -2.84756,-1.31427 -4.51601,-0.69794 -6,2 m 297,-2 3,3 -3,-3 m -316,15 c 8.48018,-0.59833 24.78507,-6.24097 29,-14 -8.53036,2.21069 -24.88129,5.52417 -29,14 m 266,-12 -7,7 7,-7 m 100,1 c -3.11823,4.45374 -4.28165,8.66357 -3,14 h 1 l 2,-14 M 148,598 129.88426,619 107,646 c 11.68382,-3.39264 30.32568,-20.92297 35,-32 L 127,627 143.25464,607 148,598 m 140,1 v 4 h -1 l 1,-4 m 73,5 v 1 l 7,-4 -7,3 m 206,0 8,-3 c -3.52393,-1.68396 -6.90851,-0.8996 -8,3 m 152,-3 v 10 c 2.92371,-2.1344 2.92371,-7.8656 0,-10 m -151,4 v 1 l 14,-1 1,-1 c -4.14307,-3.08441 -10.5921,-0.95874 -15,1 m -53,-1 v 1 l -4,1 4,-2 m 58,4 v 1 l 7,-3 -7,2 m -401,2 -4,13 6,-13 h -2 m 26,4 4,17 c 5.27557,-2.51447 4.94917,-9.52448 2,-14 v 10 h -1 l -5,-13 m 440,0 -10,5 c 2.74982,-0.53149 11.32098,-1.448 10,-5 m 101,0 3,1 v 1 l -4,-1 1,-1 m -562,1 c -0.49553,4.71753 -5.39435,19.84412 0,21 -0.9194,4.87482 -3.67241,17.31897 1,20 l 7,-31 c -3.9288,2.3385 -4.69398,7.66284 -5,12 h -1 l 1,-10 -2,1 -1,-13 m 409,2 v 1 h 9 l -9,-1 m -177,1 1,3 -3,-2 2,-1 m -76,2 6,7 -6,-7 m 254,0 v 1 h 9 l -9,-1 m 41,1 c 3.6203,4.05011 8.61401,2.27039 13,0 h -13 m -222,3 c 1.91635,10.16089 -9.19717,37.65503 2.01852,43.09259 6.33066,3.06921 17.13825,-4.78217 21.98148,-8.23151 16.29877,-11.60778 30.82379,-25.19897 50,-31.80554 7.13574,-2.45837 26.44464,-7.56079 27,3.94446 -26.72809,-8.54065 -48.43167,13.07336 -68,27.87036 -8.75864,6.62305 -19.44839,14.57031 -31,14.11109 -16.21536,-0.6446 -6.26929,-25.65412 -5.09259,-34.98145 0.6282,-4.97974 -2.07855,-11.44525 3.09259,-14 m -279,3 -10,10 10,-10 m 272,2 -6,12 7,-6 c -0.32797,10.50824 -7.42795,22.58655 -3.79166,33 4.86447,13.93066 20.68457,7.68115 29.79166,2.71295 19.36987,-10.56683 33.91229,-28.64874 55,-36.29632 13.56976,-4.92109 25.15222,-4.46192 28,10.58337 h -8 L 523.91205,668 522,677 h 1 c 0.92444,-3.89972 1.99646,-6.02258 6,-7 l -6,10 6,-7 h 1 c -0.63159,9.40332 -1.1333,18.68945 1.12964,28 1.62457,6.68402 3.44647,13.15704 7.22681,19 30.63128,47.34448 84.61431,-19.86353 122.64355,2.30554 28.36511,16.5354 20.47369,63.05701 41,86.69446 v 1 l -24,26 3,-9 h -1 c -1.63458,6.30737 -7.0578,21.31696 -16,17 -1.86652,6.13397 -7.38593,9.4519 -13,12 l 12,-26 h -1 c -2.24579,10.06183 -10.51721,28.81024 -21,32 l 8,-19 h -1 c -2.15997,6.68866 -6.34882,18.09271 -13,21 l 9,-20 h -1 c -2.56281,9.53967 -8.84247,23.54871 -18,28 l 12,-24 h -1 c -3.28644,9.61108 -9.51392,22.37646 -19,27 l 14,-22 h -1 c -4.19214,9.2923 -11.64447,22.97583 -22,26 v -1 c 6.58569,-5.58691 11.75433,-13.01312 15,-21 -4.82001,5.67468 -7.79578,13.13385 -14,17.58331 -11.1944,8.02826 -27.42639,3.75092 -39,-0.58331 l 2,4 c -35.3653,-24.14368 -51.04138,-112.14771 3,-123 l 3,4 3,-4 v 3 h 1 c 6.73181,-3.2243 17.22046,4.12061 22.25928,8.64813 C 621.14478,781.82031 626,806.29083 626,828 h 1 c 3.53833,-13.98291 -0.10352,-38.02368 -8.01855,-50 C 616.2981,773.93976 610.97736,749.47925 605,761 l -19,-9 c 5.76868,-12.53619 20.78815,-15.90686 30,-25 -8.99017,1.20764 -13.9292,8.23181 -21,13 l 6,-8 -16,14 1,-5 -11.13428,10.11108 L 555,757 v -8 c -11.71368,7.90454 -16.07996,28.44043 -17,42 h -1 l -1,-9 h -1 l 1,26 h -1 l -3,-15 h -1 l -9,10 v 1 l 10,-7 5,24 h -1 l -1,-2 -1,4 c 4.49615,0.71094 5.52753,14.83398 7,19 h -3 l -4,-17 h -1 l 8,33 c -7.547,-1.92029 -10.14655,-20.01074 -11,-27 h -1 l 7,27 c -8.00623,-0.9978 -9.79016,-16.27655 -10,-23 h -1 l 5,23 c -11.40881,-0.0465 -13.87646,-13.36902 -16,-23 h -1 l 7,23 c -6.13647,-0.75696 -9.10876,-7.6698 -11,-13 h -1 l 7,13 -12,-2 c -1.11935,5.22369 -21.5451,0.54645 -25,-3 -4.08527,2.97577 -10.82922,0.1944 -15,-2 5.02832,11.50378 28.94897,15.07605 40,18 v -1 l -16,-6 v -1 c 14.04895,0.01 29.88654,4.31866 42,11 l -11,-11 18,9 -6,-5 v -1 l 12,3 -2,-3 c 13.31677,-3.52344 13.45905,8.87622 24,14 l -6,-9 h 1 L 571,881.74536 589,884 v 1 l -6,4 15,-6 -8,8 c 9.36383,-5.565 28.84796,-18.3924 36.1759,-5 2.15369,3.93604 -1.33886,6.11688 -1.06018,10 0.31519,4.39227 4.63172,7.73401 7.88428,10.10651 10.36298,7.5589 27.59064,0.28936 29,17.89349 L 551.00464,914.9259 463,909.00464 397,913 l -24,-1 1,3 -7,2 c -4.45786,-13.95099 6.31549,-6.29138 12.23148,-14.18982 C 381.24899,900.11664 378.22354,894.16809 378,891 c 5.27658,-0.16467 18.24661,0.56427 20.80093,-5.07874 C 400.32184,882.56134 399,876.68939 399,873 c 5.45416,0 18.60623,2.41699 22.37036,-2.21759 C 424.67499,866.71362 423,857.9317 423,853 l 29,10 -25,-23 h -1 l 3,8 c -9.08401,-2.12006 -14.74298,-12.97186 -18,-21 h -1 l 8,15 -13,-5 -7,-10 h -1 l 1,4 c -8.9382,-1.02551 -13.94809,-14.00812 -15,-22 h -1 l 7,20 c -6.854,-4.13971 -8.51105,-13.58533 -10,-21 h -1 l 5,19 h -1 c -5.01489,-9.08093 -6.78714,-15.51727 -7,-26 h -1 v 17 h -1 l -5,-30 h -2 c 0,11.23865 2.88116,37.40369 -8,44 0.26337,-3.92102 0.96497,-17.36194 5,-18 l -1,-13 h -1 c -0.64014,9.53003 -0.78928,31.31708 -11,35 l 6,-31 h -1 c -1.37265,11.2403 -2.53918,32.65002 -15,36 l 9,-26 h -1 c -1.38159,6.88 -3.97043,23.1496 -11.13889,26.19446 C 328.58237,844.71094 317.19284,839.55554 310,843 h -1 l -13,-9 4,5 C 275.12091,827.69135 248.96524,790.14606 250.01852,762 250.48338,749.57819 268.09564,716.00116 284,725 l 1,-3 c 22.16638,4.45129 43.3345,19.67639 52,41 h 1 l -9,-18 h 1 l 7,8 c -4.96509,-10.92328 -17.97333,-20.81665 -28,-27 l 1,-4 -3,2 c 3.62082,-15.50427 22.89612,-16.28992 34,-22 -10.888,-3.40527 -17.97507,3.01599 -27,8 l 3,-8 h -1 l -5,7 4,-11 -2,1 v -1 l 8,-16 -6,4 c 6.30237,-15.20392 14.90634,-28.93567 29,-38 l -7,10 12,-13 -1,4 h 1 c 2.69922,-5.09308 12.24838,-7.47412 17,-4 l 7,-4 -10,14 17,-16 -15,20 c 8.01657,-8.11572 14.39493,-21.8429 26,-25 l -4,6 12,-11 m 156,2 v 1 h 14 l -14,-1 m 0,3 v 1 c 4.14771,1.59265 11.04828,3.12378 14,-1 h -14 m 35,4 v 1 l 14,2 v -1 h -10 v -1 l 10,-3 -14,2 m -411,-1 -1,1 1,-1 m 207,3 -7,9 c 3.23828,-1.68408 7.522,-5.18475 7,-9 m 6,1 -3,5 3,-5 m -102,1 c 2.19617,4.42065 7.34647,6.73718 12,8 l -12,-8 m 403,1 -6,13 c 5.22656,-2.30725 6.8161,-7.6958 8,-13 h -2 m 149,0 c -12.54132,3.02332 -9.47809,24.92151 -3.29169,12 0.77124,-1.6109 1.39191,-3.30481 1.9491,-5 0.77277,-2.35107 1.16931,-4.54425 1.34259,-7 m -559,2 c 2.92184,5.37866 11.18933,8.12482 17,9 l -17,-9 m 64,12 11,-12 -11,12 m 17,-12 -8,12 h 1 l 7,-12 m 147,5 -4,-1 c 2.12817,-1.58691 2.70871,-1.29797 4,1 m 328,-2 -5,11 h -1 l 6,-11 m -492,1 -4,7 4,-7 m 338,1 -7,16 h 1 c 3.10199,-4.35046 8.56921,-10.46033 6,-16 m 36,2 1,12 h 1 l -2,-12 m 130,28 9,-9 -15,26 h 1 l 30,-45 c -8.9635,2.099 -21.97589,19.47711 -25,28 M 725,653 v 10 h 1 l -1,-10 m 86,5 2,16 h 1 v -6 h 1 l 1,3 h 1 c -0.59235,-4.50061 -1.94104,-10.58643 -6,-13 m -290,1 1,2 -1,-2 m 276,6 5,21 -8,-4 c 0.85571,5.55615 3.74792,10.71069 9,13 l -5,-8 7,3 -4,-16 h 1 l 11,18 -14,-27 h -2 m -430,1 c -5.40875,3.80164 -9.2468,8.53937 -11,15 h 2 l -3,11 h 1 l 11,-20 -6,4 6,-10 m 225,0 v 1 l 12,1 v -1 l -12,-1 m 236,2 v 7 h 1 l -1,-7 m -214,3 v 1 l 14,-2 -14,1 m 248,-2 -2,2 2,-2 m -113,1 1,4 h -1 v -4 m -125,1 1,1 -1,-1 m -2.33331,1.33337 0.66662,0.33326 -0.66662,-0.33326 M 315,673 l -1,1 1,-1 m 302,0 v 1 h 3 l -3,-1 m -413,25 v -1 c -16.58946,-0.51776 -16.31792,-13.745 -5,-22 -15.66283,-3.84668 -16.31493,29.9411 5,23 m 332,-24 c 1.95026,10.34033 1.52338,21.05164 5.43054,31 8.12641,20.69128 26.80469,25.82251 46.56946,19.33337 27.63025,-9.07153 58.07068,-28.01959 85,-5.90283 30.65033,25.17285 11.66034,80.20136 55,96.15283 5.78833,2.13038 11.8548,2.74714 17.99536,2.75922 C 778.13062,817.40576 812.40887,804.29675 834.98151,781 850.71411,764.7627 854.74982,741.38885 833,727.90741 823.7984,722.20386 815.18683,725.70496 806,723 l -10,6 -1,-5 10,-2 c 24.34265,-18.74432 53.28223,15.15289 48.92126,39 -2.29614,12.55621 -12.35113,22.53784 -21.92126,30.1991 -20.97363,16.79022 -44.38837,27.31292 -71,30.91662 -9.17255,1.24213 -34.70905,4.64929 -40,-5.11572 -9.58075,2.35297 -18.49072,-10.74329 -22.52783,-18 -12.01514,-21.59711 -9.38007,-55.98572 -27.86566,-73.32874 -31.63257,-29.67742 -65.44513,8.85608 -99.34723,8.16675 C 542.40582,733.25122 525.49805,700.10718 534,674 h 2 m 79,0 1,1 -1,-1 m 207,0 v 12 h 1 v -4 h 1 l 1,6 h 1 c -0.0549,-4.49225 0.0294,-11.36462 -4,-14 m -461,2 -2,3 2,-3 m 289,0 -1,1 1,-1 m -446,1 v 1 l 13,5 c -3.32294,-4.51971 -7.51756,-5.8252 -13,-6 m 562,0 c 1.41553,6.34192 4.96844,17.24158 13,15 -1.72754,-6.35022 -6.32935,-13.44214 -13,-15 m 94,19 c 7.20038,-3.40973 18.69019,-11.68335 22,-19 -8.09979,2.84644 -18.63684,11.03027 -22,19 m -174,-17 -3,16 h 1 l 2,-16 m -327,1 -1,1 1,-1 m -1,21 h 2 l 8,-20 c -7.20996,3.15149 -9.91031,12.65588 -10,20 m 195,-18.66663 c 0.77338,0 0.16016,0.49781 -0.33331,0.33326 L 553,682.33337 M 688,682 l -1,13 h 1 v -13 m 83,0 6,10 c -3.68707,-1.79169 -6.63794,-5.77271 -6,-10 m -207,2 -1,1 1,-1 m 70,0 -1,1 1,-1 m -22,3 -11,12 c -0.53589,-5.80786 5.79053,-10.42017 11,-12 m 219,3 -3,11 h 1 l 1,-4 h 1 v 4 h 1 l 1,-11 h -2 m -88,5 -1,1 1,-1 m 104,6 6,-6 -6,6 m 26,3 v -5 l -15,7 v 1 l 13,-5 -3,5 35,-8 v 1 c -10.21381,2.27972 -31.24384,7.99988 -38,16 11.76459,-1.77191 23.76129,-8.69153 35,-12.68054 4.96338,-1.76172 10.58966,-3.35938 13,-8.31946 l -40,9 m -723,10 v 1 c -7.65039,4.00684 -24.78104,11.16278 -27,20 l 26,-10 10.45833,-5.33795 -0.0833,-9.7685 L 177,698 c -5.11879,1.97949 -20.22485,6.98865 -21.32407,13.01855 -0.4539,2.48999 1.64425,5.61249 2.32407,7.98145 l -27,11 v -1 c 9.57773,-4.34705 23.61017,-9.80066 17,-21 l 24,-11 c -6.64568,-2.86816 -31.83087,8.3139 -22,17 m 159,-18 -1,1 1,-1 m 9,1 1,1 -1,-1 m 125,0 c -5.76846,7.4259 -8,14.69348 -8,24 h 1 l 7,-24 m 233,2 11,9 c -2.03436,-4.67041 -6.16785,-7.55103 -11,-9 m -358.66666,1.66663 0.33332,0.66674 -0.33332,-0.66674 M 665,700 v 1 l 21,13 c -4.32684,-7.69214 -12.28827,-12.85925 -21,-14 m -362,1 1,1 -1,-1 m 458,0 c 1.27899,5.45801 4.69446,6.91364 10,7 -1.94238,-4.4436 -5.2876,-6.27429 -10,-7 m -163,2 3,4 -3,-4 m 167,1 3,3 -4,-2 1,-1 m -429,1 -6,11 h 1 l 5,-11 m 111,1 c -3.07959,5.64594 -7.20776,18.18774 0,22 v -22 m 340,0 1,2 -1,-2 m -452,10 h 1 l 4,-7 -5,7 m 262,-6 v 1 l 3,1 -3,-2 m -236,1 c -6.0112,8.58582 -4.40631,17.49078 -2,27 h 1 l 2,-18 h -1 l -1,5 h -1 l 2,-14 m 90,2 1,12 h 1 v -12 h -2 m 338,0 c 4.28149,9.63501 -3.11731,11.84778 -8,19 l 11,-7 c 1.69641,9.15918 -4.72418,15.09351 -12,20 v -11 h -1 v 7 h -1 c -2.59222,-6.54266 -3.30383,-12.08704 -2,-19 l -7,3 c 4.73193,-6.16016 12.75787,-9.59253 20,-12 m -575,26 c -9.74561,3.14716 -25.69426,14.16687 -14,25 v 1 c -15.21622,10.63635 -3.45973,28.9895 12,29 v -2 c -13.75253,-0.43848 -23.46146,-22.10809 -7,-26 -1.48827,-3.1333 -5.00269,-5.44397 -5.59259,-9 -1.49443,-9.00867 11.66981,-14.5116 18.59259,-15 -2.03441,-13.50757 -4.20787,-23.98761 14,-24 -13.89656,-11.96729 -21.39597,10.37231 -18,21 m 72,-24 2,4 c -2.64893,-0.56763 -3.35483,-1.58777 -2,-4 m -20,5 v 8 h -2 v -8 h 2 m 597,4 v 1 l 14,1 v 1 l -11,4 v 1 l 7,2 -4,-2 v -1 l 15,-5 c -5.48145,-4.95215 -14.28198,-2.69165 -21,-2 m -504,1 v 3 h -1 l 1,-3 m 256,6 23,-3 c -6.24683,-5.46765 -18.1427,-3.23047 -23,3 m -485,-0.66663 0.33333,0.33326 C 129.8398,730.83118 129.22668,730.33337 130,730.33337 M 601,731 l 1,1 -1,-1 m -238,1 2,7 -2,-7 m 417.33331,0.66663 0.33338,0.66674 -0.33338,-0.66674 M 323,733 l 11,10 -11,-10 m 386,8 h 1 l 6,-8 -7,8 m -340,-5 c -1.01642,5.38928 -2.22238,15.58435 3,19 l -3,-19 m 284,0 -7,17 h 2 l 5,-17 m 59,8 8,-8 -8,8 m -463,-6 2,9 c -3.26961,-1.98022 -3.60541,-5.66852 -2,-9 m 42.32407,1.88892 c -9.4249,6.0332 3.29492,21.86212 12.46298,16.04626 8.62265,-5.46985 -4.0199,-21.45105 -12.46298,-16.04626 M 659,739 l -3,12 c 3.742,-2.25537 4.84473,-8.13977 3,-12 m 60,0 -5,8 5,-8 m -423.97687,2.66669 c 5.94687,-0.23835 13.10562,11.87005 4.95374,13.0509 -7.25284,1.0506 -12.90897,-12.73199 -4.95374,-13.0509 M 760,741 l -5,4 5,-4 m -486.99536,1.63428 c -9.75702,1.49096 -7.39765,19.41675 2.99072,18.18982 10.89429,-1.28675 7.23566,-19.75257 -2.99072,-18.18982 M 779,742 l -1,1 1,-1 m -115,1 -2,7 h 1 l 1,-7 m 203,1 c 6.07959,5.35181 17.99054,8.4566 26,9 -1.69202,-6.6698 -11.85236,-9.19501 -18,-10 v 1 l 6,2 -14,-2 m -593.91669,1.54163 c 7.09684,-2.14417 9.63455,11.16479 2.85651,12.54632 -6.45746,1.31622 -8.80402,-10.74939 -2.85651,-12.54632 M 809,745 l -7,10 4,-1 v 2 l 6,-5 -8,2 5,-8 m 73,2.33337 0.33331,0.33326 c -0.49359,0.16455 -1.10656,-0.33326 -0.33331,-0.33326 M 582,748 l -2,4 2,-4 m -206,2 2,14 h 1 l -3,-14 m 177,4 c -0.0207,5.07776 -0.72046,7.97021 -5,11 l 5,-11 m -202,2 c -1.78802,3.27808 -4.62741,8.33618 -1,11 l 1,-11 m 412,16 c 5.62189,-0.91541 12.30829,-4.90234 15,-10 l -7,3 6,-7 c -6.39966,1.9408 -11.78552,7.75879 -14,14 M 236,759 c 0,7.21289 -1.14195,20.74902 6,25 l -6,-25 m 118,1 -1,8 h 1 v -8 m -94.84259,1.63428 c -6.96533,2.87597 -2.20715,19.46191 5.77777,16.16198 8.06317,-3.33221 2.50327,-19.58129 -5.77777,-16.16198 M 609,761 h 1 l 2,9 c -3.49042,-1.9281 -4.74286,-5.34515 -3,-9 m -318,2.43054 C 276.15552,766.24249 271.58286,781.72131 274.47223,795 278.69809,814.42065 297.97876,837.59521 320,832.52313 333.49948,829.41388 336.95633,814.96948 334.35187,803 330.2139,783.98303 313.42395,759.18286 291,763.43054 M 260.33795,764.5 c 5.41116,-2.18011 7.93595,8.75818 3.4491,10.39355 -4.49222,1.63733 -7.9097,-8.59643 -3.4491,-10.39355 M 383,764 c 0.74896,6.27246 1.8602,12.90302 7,17 l -7,-17 m 388,1 -1,1 1,-1 m -540,1 c 0.0242,7.13977 1.13531,15.3252 7,20 l -5,-20 h -2 m 59,0.3241 C 311.04773,761.74243 327.29745,785.26868 331.34723,803 333.67258,813.18115 331.91174,826.6969 320,829.52313 299.37543,834.41669 281.70261,813.05695 277.64813,795 275.22357,784.20203 276.81924,769.19324 290,766.3241 M 666,769 l -5,8 c 2.85181,-1.99347 5.86639,-4.33551 5,-8 m 64.66669,0.66669 -0.33338,0.66662 0.33338,-0.66662 m -152.66205,1.98144 c -10.98157,3.73114 -6.47254,23.86609 4.93518,19.40277 9.89203,-3.87024 6.52362,-23.29602 -4.93518,-19.40277 m -23.86572,2.98151 c -8.57776,3.6228 -5.69959,21.59057 4.84259,17.88885 9.61547,-3.37628 6.12078,-22.51922 -4.84259,-17.88885 m 24.9259,-0.26392 c 7.63696,-1.62024 9.55365,11.87055 2.87036,13.93982 -8.06732,2.49787 -10.81122,-12.25506 -2.87036,-13.93982 M 660,781 l 7,-6 -7,6 m 69.66669,-5.33331 -0.33338,0.66662 0.33338,-0.66662 m -173.60651,0.89349 c 6.67053,-1.69299 7.97089,11.04114 1.91669,12.93982 -7.38129,2.31494 -7.95288,-11.40784 -1.91669,-12.93982 M 744,776 l -4,10 c 3.41522,-1.97058 5.62494,-6.23492 4,-10 m 5,0 -6,16 h 1 c 2.60834,-4.38892 7.36316,-10.90466 5,-16 m -356,1 c 1.11234,7.25458 5.75964,14.80286 13,17 l -13,-17 m 275,0 -6,8 c 3.24774,-1.62958 6.71552,-4.09619 6,-8 m -68.93518,5.64813 c -9.30939,3.34314 -3.76172,23.19184 6.87036,18.59723 9.10736,-3.93567 2.19305,-21.85205 -6.87036,-18.59723 M 403,784 c 1.82275,6.01062 6.72913,10.9577 13,12 l -13,-12 m 197.15741,1.56018 c 6.15894,-1.67139 9.88715,11.27985 3.75928,12.87964 -6.28925,1.64185 -9.86115,-11.22376 -3.75928,-12.87964 M 415,786 c 2.09079,4.93793 5.88672,7.60895 11,9 l -11,-9 m 152,11.56946 c -9.38525,2.8858 -13.66449,14.50012 -13.98151,23.43054 -0.70153,19.76288 11.28846,56.90686 38,47.77777 C 601.2323,865.28705 606.82111,852.03876 606.99536,842 607.36444,820.73743 593.87537,789.30566 567,797.56946 M 458,799 c 1.99756,5.62988 6.63168,11.34131 13,11 l -13,-11 m 110,1.34259 c 24.84406,-6.38599 36.13025,20.78699 36,40.65741 -0.0613,9.35046 -3.93677,22.35449 -14,25.43054 C 565.7998,873.828 555.37292,839.42932 556.01849,822 556.31152,814.08826 559.14655,802.61829 568,800.34259 M 520,801 l -3,4 3,-4 m 152,0 -7,12 c 3.66699,-2.66058 7.72491,-7.19641 7,-12 m 3,0 -8,13 c 4.40027,-2.29968 8.78992,-7.79974 8,-13 m -307,1 c 0.52942,7.88177 6.6445,23.28369 -3,27 l 3,-27 m 131,1 c 3.90665,4.62195 8.77301,4.32269 14,2 v -1 l -14,-1 m -30,1 c 2.80984,5.58435 7.91571,7.78949 14,8 v -1 l -14,-7 m -80,5 7,18 h 1 l -8,-18 m 30,4 c -4.17966,10.90405 0.30371,17.4151 6,27 h 1 c -2.97177,-11.06177 -10.50726,-15.36121 -5,-27 h -2 m -177,33 c 8.01306,-1.04919 21.55368,-4.42438 17,9 6.69678,-0.81781 13.16379,-3.13196 20,-1.52313 13.48355,3.17315 20.09119,17.41284 12,28.52313 8.17551,-1.25354 30.68262,-7.79028 27.12036,10 -1.15912,5.78882 -12.38849,12.92932 -6.89813,18.6759 C 329.08514,929.37244 352.76495,931.4292 377,936 v 1 c -28.52661,1.91602 -55.56027,0.66364 -84,-2.13428 -10.96231,-1.07843 -25.50995,-4.76867 -22,-18.86572 -8.88464,3.43573 -31.4628,15.28729 -35.65741,-1 -1.74503,-6.77576 1.7971,-13.42963 2.65741,-20 -10.06572,2.0213 -20.561,5.61389 -29.99538,-0.78705 C 201.33542,889.68811 196.21336,874.6095 207,872 c -6.09085,-2.72723 -13.1134,-3.29437 -17.43056,-9.06018 -4.35496,-5.81628 -3.76759,-13.28479 -2.36574,-19.93982 4.2974,-20.40088 20.12125,-30.93164 40.7963,-28.86572 10.43906,1.04309 30.17816,10.89142 24.19444,24.70831 C 250.66064,842.38428 244.93095,843.65961 242,846 m 268,-31 c -1.51035,4.63806 -1.64203,10.30908 3,13 l -3,-13 m -58,1 c -1.67972,5.15808 -1.28479,10.3783 3,14 l -3,-14 m 233,0 -4,11 h 1 l 3,-11 m -258,1 c -2.69852,5.13239 -3.63583,10.72998 2,14 l -2,-14 m 251,2 -13,25 h 1 c 3.95599,-5.84283 13.88428,-17.62634 12,-25 m -272,1 3,7 h 1 l -4,-7 m 109,0 c 0.0516,4.22742 0.0986,8.67786 4,11 l -2,-11 h -2 m -142,1 h 1 c 0.98004,3.46606 0.60132,5.04993 -3,6 l 2,-6 m 59,0 c -2.65744,10.52979 3.69107,18.38171 9,27 h -4 c 3.51657,7.23669 17.45978,12.97424 25,15 l -6,-4 v -1 l 28,10 v -1 c -12.91769,-7.08984 -34.43335,-12.46155 -43.52777,-24 -5.9848,-7.59314 -5.1713,-14.43982 -8.47223,-22 m 25,0 4,10 -4,-10 m 5,1 c 0.0511,4.17932 0.0418,7.90649 4,10 l -4,-10 m 360,73 c 2.32471,3.51447 5.70471,6.53339 5.91669,11 0.83172,17.52673 -26.45349,23.53827 -38.91669,18 0.67041,4.47168 2.40887,8.36188 1.73608,13 -2.47229,17.04321 -20.11096,22.6817 -34.73608,25.0741 -12.4928,2.04358 -30.38159,2.2525 -34,-13.0741 -4.13428,2.64496 -7.9519,6.12854 -13,6.84723 -4.60681,0.65582 -9.71667,-2.04675 -14,-0.43054 -6.24554,2.3565 -11.30365,6.07092 -18,7.70367 -10.34247,2.52179 -20.57501,0.99231 -31,2.01392 -25.08472,2.45813 -51.0639,3.58569 -76,-1.13428 v -1 c 17.55725,0 34.66974,-4.52765 52,-6.74072 10.20294,-1.30292 21.02795,-0.22174 31,-3.15741 8.50067,-2.50257 3.73645,-9.39118 7.62964,-15.03705 C 666.3584,929.75708 679.35382,933.13654 687,936 c -0.74475,-4.85425 0.12054,-7.46619 5,-9 -5.7984,-14.4129 2.75818,-30.66174 20,-23 0.47504,-7.4472 -0.15613,-13.62579 4.89355,-19.86572 C 728.38226,869.93768 758.19641,867.8761 767,886 h 1 c 0,-8.92078 1.23376,-13.53003 11,-13 -4.54834,-4.93738 -9.21185,-6.88599 -11.25928,-14 -5.79114,-20.1217 11.48072,-33.67566 29.25928,-36.25464 25.81335,-3.74451 56.14899,10.54492 56,40.25464 -0.0395,7.87311 -2.95526,16.4353 -9.01849,21.72223 C 837.75745,890.14941 829.6991,892.51373 822,895 m -484,-70 1,1 -1,-1 m -1,2 -4,11 h 1 l 3,-11 m 326,2 1,1 -1,-1 m -219,1 c 0.97037,6.32867 4.83838,13.21912 10,17 l -10,-17 m -151,1 3,3 -3,-3 m 73,2 -3,2 v -1 l 3,-1 m 91,0 8,16 h 1 l -9,-16 m 30,2 c 0.14529,4.55658 0.67599,8.82043 5,11 l -5,-11 m 7,0 c 0.0975,7.9826 3.64261,14.47278 8,21 h 1 l -9,-21 m 11,3 2,7 h 1 l -3,-7 m -172.66666,1.66669 0.33332,0.66662 -0.33332,-0.66662 M 650,839 l -1,4 h 1 v -4 m -182,1 1,1 -1,-1 m 1,2 8,11 -8,-11 m 211,0 -1,1 1,-1 m -141,1 7,14 c -4.73456,-1.23108 -7.70209,-9.37793 -7,-14 m 3,0 4,7 h -1 l -3,-7 m -204,1 -1,1 1,-1 m 184,0 4,10 h 1 l -5,-10 m 173,6 v 1 l 29,-5 c -4.6723,8.87115 -31.79346,7.50867 -18,22 l -13,4 16,-4 v -2 l -7,-4 c 5.48871,-4.64722 20.99359,-7.23706 24.02777,-13.30554 2.02612,-4.05231 -4.64722,-4.71356 -7.02777,-4.67133 -7.56726,0.13434 -17.1286,2.90009 -24,5.97687 m -57,-5 -1,3 1,-3 m -223,2 c 5.70511,2.42761 9.25418,18.66888 3.52316,23.11108 -5.065,3.92603 -14.0711,-2.04699 -19.37039,0.83338 -6.19568,3.36755 0.015,10.37585 -3.04629,14.58331 C 393.2121,889.5058 379.55429,888.9444 375,889 l 3,13 c -3.85925,1.72803 -10.80365,1.84485 -13.51852,5.21759 -2.70325,3.35834 0.52829,7.08606 -0.375,10.71759 C 362.76889,923.31262 348.77167,929.15894 344,928 v -1 l 16,-7 c -1.81873,-4.0072 -8.547,-11.02942 -4.37036,-15.375 2.54816,-2.65125 9.83002,-1.48035 10.56943,-5.78241 C 367.05325,893.87274 362.0686,886.61688 362,881 c 5.04181,-0.003 21.13904,1.07092 24.11111,-3.34259 2.45102,-3.63971 -0.47213,-10.82538 3.36573,-13.76849 4.79336,-3.67591 13.91635,0.94354 19.36575,-1.36579 C 415.36264,859.76013 408.30063,848.97986 418,851 v -1 l -4,-2 1,-1 m 3.66666,4.33331 0.66668,0.33338 -0.66668,-0.33338 M 631,852 l 1,1 -1,-1 m -175,5 -1,1 1,-1 m 199,4 -1,1 1,-1 m -137,4 -1,1 1,-1 m 127,1 -1,1 1,-1 m -76,7 1,1 -1,-1 m 69,20 -6,2 c 6.90948,6.88605 13.06738,9.65479 22,13 v 1 c -9.19855,-1.0921 -23.34747,-0.20667 -26.3241,-12 -0.88525,-3.50732 2.91321,-5.6731 1.8982,-9.01855 -1.45154,-4.784 -5.78626,-6.55054 -4.5741,-11.98145 5.70233,2.58893 10.93939,11.18146 13,17 M 519,877 c -1.91925,5.78516 -4.97241,10.87933 -3,17 l 7,-3 1,13 c 4.17792,-1.96417 5.04797,-5.68225 6,-10 l -6,6 1,-11 -8,2 4,-14 h -2 m -64,22 7,-8 h -1 l -5,5 9,-18 c -6.46295,2.9624 -12.15344,14.11469 -10,21 m 67,-12 5,-3 c -3.09229,-0.52197 -4.13989,-0.0809 -5,3 m -59,24 v 1 c -21.6185,9.7533 -42.75235,23.43201 -63,35.80554 -11.12183,6.79669 -21.4949,15.92963 -35,16.19446 5.55164,-7.14899 16.21188,-11.40167 24,-15.84259 15.59949,-8.89508 31.23471,-17.84412 47,-26.44446 9.09735,-4.96283 16.26007,-10.58179 27,-10.71295 m 14,0 v 1 c -20.24728,12.47253 -41.66632,22.92981 -62,35.1991 C 402.9613,954.4632 392.51404,964 378,964 395.08453,947.07013 422.2749,936.50171 443,924.58795 454.40552,918.03156 463.56232,911 477,911 m -28,1 v 1 c -22.21603,10.02283 -43.84152,24.24915 -65,36.41205 -10.61246,6.10052 -19.30844,14.57934 -32,14.58795 6.63486,-7.64282 19.22531,-12.2663 28,-17.27313 C 400.13345,935.23865 425.2236,912.742 449,912 m 60,0 v 1 L 446,949.41205 410,971 l -1,-1 v -2 c 21.46552,-14.53369 43.53137,-28.48737 66,-41.41205 C 485.82245,920.36255 496.2132,912 509,912 m 12,1 c -7.05743,6.98645 -18.39978,11.42175 -27,16.41205 -16.16815,9.38153 -32.2081,18.89587 -48,28.91205 -9.75949,6.19006 -19.08652,14.85595 -31,13.6759 5.49847,-7.50647 16.19708,-11.57733 24,-16.41205 17.74396,-10.99408 35.67432,-21.87787 54,-31.875 8.03641,-4.38403 18.45956,-13.78741 28,-10.71295 m -89,0 c -5.20157,9.13208 -23.0249,15.02252 -32,20.21295 -4.26941,2.46906 -8.2804,5.80683 -13,2.78705 12.27719,-8.3125 30.01138,-22.98981 45,-23 m -26,1 v 1 c -11.28943,6.73999 -24.60281,17.99091 -38,18 8.86597,-9.74011 25.41037,-16.62555 38,-19 m 13,0 v 1 c -8.95023,4.86371 -31.62277,26.07538 -41,18 12.02258,-8.03406 26.37408,-19 41,-19 m 110,1 c -5.47961,5.50171 -13.51978,9.02319 -20,13.33331 -17.51553,11.65003 -35.73254,22.51642 -54,32.93982 -9.00104,5.13605 -16.97177,14.51013 -28,11.72687 6.36737,-6.39301 15.36508,-10.66968 23,-15.41205 16.8548,-10.46924 33.91385,-20.5202 51,-30.59259 7.32611,-4.31879 19.26611,-14.56103 28,-11.99536 m -136,0 v 1 c -9.76239,5.08655 -20.72339,14.6098 -32,15 6.47672,-7.46063 22.05942,-15.68304 32,-16 m 147,0 c -4.21289,7.39606 -17.73773,11.69958 -25,15.85187 -17.95978,10.26867 -35.24826,21.8966 -53,32.54626 -7.11542,4.26874 -14.49731,11.46344 -23,11.60187 5.68188,-7.83118 16.73111,-12.65552 25,-17.41205 15.84933,-9.117 31.69983,-18.6264 47,-28.64349 9.13098,-5.97815 17.6026,-13.90582 29,-13.94446 m -160,2 c -6.88184,6.09259 -19.76459,13.802 -29,13 5.09814,-5.87262 21.19623,-15.27124 29,-13 m 171,-1 v 1 L 489,953.5741 461,971 c 22.56146,-11.75525 44.16965,-25.7381 66,-38.8009 9.41168,-5.63178 20.75806,-15.0542 32,-15.1991 v 1 c -22.18689,14.8114 -46.3924,26.83344 -69,41.04169 -10.37701,6.52166 -21.43799,16.94977 -34,16.95831 l 5,-4 v -1 l -14,5 c 3.79684,-7.81964 17.60825,-13.05542 25,-17.27313 18.57745,-10.60034 36.21713,-22.76013 55,-33.01392 7.95563,-4.34302 14.59735,-9.59814 24,-9.71295 m 17,1 c -3.27716,6.57526 -14.7832,10.47906 -21,14.1991 -18.25012,10.92047 -37.00192,21.15167 -55,32.4768 -6.5195,4.10236 -17.1261,13.83051 -25,12.3241 18.45532,-18.52966 48.56799,-31.06183 71,-44.39813 8.67157,-5.15546 19.74237,-14.24695 30,-14.60187 m -222,1 v 1 c -4.29959,2.91113 -8.90897,7.25745 -14,4 l 14,-5 m 10,0 v 1 l -17,7 c 4.17328,-4.80725 10.65128,-7.78033 17,-8 m 221,0 c -4.1604,7.21692 -17.86359,11.68982 -25,15.84723 -17.50238,10.19617 -34.39435,21.3869 -52,31.4259 -7.77899,4.43573 -15.767,11.40741 -25,11.72687 5.44257,-6.85522 15.5477,-10.92731 23,-15.39813 16.95123,-10.16944 34.05096,-20.03559 51,-30.20374 8.22791,-4.93609 18.1925,-13.05877 28,-13.39813 m 10,1 v 1 c -21.92639,14.63751 -46.28259,26.88342 -69,40.39813 -9.83496,5.85089 -20.19421,15.56183 -32,15.60187 7.27167,-7.30096 18.20624,-11.37378 27,-16.60187 15.75085,-9.36419 30.85278,-19.95178 47,-28.62964 8.55701,-4.59869 16.96838,-11.63916 27,-11.76849 m 10,1 c -4.95404,6.23999 -14.20374,9.55872 -21,13.60187 -17.17072,10.21496 -34.8634,19.51562 -52,29.79626 -8.61865,5.17053 -17.57831,13.46753 -28,13.60187 4.06091,-7.12952 16.99536,-12.23108 24,-16.39813 17.29767,-10.29053 34.18048,-21.44464 52,-30.82874 8.38849,-4.41754 15.21735,-9.73993 25,-9.77313 m 9,1 c -4.75732,5.97302 -14.37421,9.06445 -21,12.84259 -16.6203,9.47717 -33.70184,18.16827 -50,28.20367 -8.4071,5.17664 -17.86603,13.82312 -28,13.95374 6.8819,-6.90961 17.53027,-11.48279 26,-16.27313 14.38654,-8.13684 28.82764,-16.21906 43,-24.72687 8.86823,-5.32367 19.41638,-13.86359 30,-14 m 13,1 v 1 c -15.65393,7.10486 -31.45581,17.45111 -46,26.6759 -8.74329,5.54554 -17.26727,12.46729 -28,11.3241 v 1 h 3 c -5.42285,11.94391 -21.09259,12.94281 -32,15 3.98785,-7.36646 16.75519,-12.25226 24,-16.07874 18.18329,-9.60369 35.8728,-20.41735 54,-30.20831 8.09943,-4.37463 15.45459,-10.48083 25,-8.71295 m 17,1 v 1 L 593,949.80554 573,960 c 12.36914,-15.94067 37.72479,-19.65454 51,-35 -11.71844,7.93427 -24.2262,14.64154 -36,22.49072 -9.38843,6.25897 -18.28217,13.46955 -30,13.50928 6.52161,-5.96399 15.43402,-9.67175 23,-14.1991 16.79852,-10.05188 34.87744,-26.01245 55,-23.8009 m 9,0 c -2.78027,4.81848 -10.3161,7.15497 -15,10.04626 -9.61603,5.93586 -19.5238,11.4704 -29,17.63428 -6.20245,4.03449 -10.30084,8.28809 -18,8.31946 9.51855,-12.26697 30.63416,-20.65656 44,-28.41205 6.05518,-3.51349 10.77118,-7.49475 18,-7.58795 m 7,1 c -2.77368,5.10577 -10.07642,7.97705 -15,10.84723 -12.43451,7.24866 -28.34753,22.97381 -43,23.15277 3.95093,-5.08777 10.53711,-7.89435 16,-11.1991 11.94336,-7.22497 27.7843,-21.66284 42,-22.8009 m 7,1 c -2.39337,4.92896 -8.3941,7.65094 -13,10.39813 C 634.25171,942.40546 620.77264,954.31812 607,956 L 643,932.58795 659,925 m 25,4 -4,2 4,-2 m -406,6 -1,1 1,-1 m 8,1 c -4.85175,6.09155 -23.18753,18.17133 -31,17 v -2 c 9.91452,-4.47296 19.81702,-14.81793 31,-15 m -11,1 c -3.27887,5.68268 -16.71854,12.17181 -23,14 l -2,-3 6,-5 -4,5 23,-11 m 19,0 v 1 c -8.51071,5.24847 -22.84265,17.87518 -33,17 4.4252,-7.7691 24.16342,-17.69427 33,-18 m 7,1 v 1 c -8.849,5.91333 -22.26074,17.52643 -33,18 3.84357,-7.73663 24.50092,-18.86737 33,-19 m 7,0 c -3.34976,7.30817 -26.121,22.43744 -34,20 7.26608,-7.20032 23.87689,-18.44104 34,-20 m 13,3 c -9.31894,6.22742 -27.5611,21.73944 -39,19 5.33075,-7.27753 30.40012,-25.55811 39,-19 m 67,-2 c -2.22955,4.10425 -7.07599,5.85254 -11,8.1991 -9.40158,5.62207 -22.94208,16.31329 -34,16.8009 8.89102,-8.92682 32.3959,-24.83752 45,-25 m -52,2 v 1 l -27,17 v -1 l 16,-10 v -1 c -12.07031,5.0116 -19.35349,15.41663 -33,15 2.38306,-4.18378 7.96854,-6.4231 12,-8.95831 11.47131,-7.21387 18.45444,-12.46442 32,-12.04169 m 321,-1 c -3.21826,8.06641 -14.81995,12.74469 -23,13 5.1178,-5.62238 15.67615,-11.01251 23,-13 m -328,4 -4,2 v 1 l 5,-2 -1,-1 m 307,1 1,1 -1,-1 m 21,1 c -1.24255,4.88 -5.43939,5.44305 -10,6 l 10,-6 m 42,12 v 1 l -6,2 6,-3 m 2,2 c -5.44568,6.83728 -21.23944,15.6969 -30,16 v -1 l 30,-15 m 8,1 v 1 c -8.71576,4.5412 -17.9162,12.65112 -28,13 6.1886,-6.1264 19.2309,-13.69659 28,-14 m -19,1 v 1 l -29,14 c 6.79388,-6.73242 19.45428,-13.74365 29,-15 m 26,2 -22,9 c 4.10474,-4.50946 16.23633,-13.2851 22,-9 m -42,2 v 1 c -8.68024,5.34717 -15.59576,10 -26,10 7.39923,-7.42908 16.21637,-9.15479 26,-11 m -16,1 c -3.90131,6.84912 -13.93805,9.21295 -21,11 3.71704,-7.48169 13.69946,-9.15259 21,-11 m -73,2 v 1 l -24,10 c 5.2287,-5.74426 16.12701,-12.21246 24,-11 m 61,-1 v 1 c -8.27539,5.60303 -13.88947,9 -24,9 6.46753,-6.49359 14.9212,-9.71667 24,-10 m -51,1 v 1 c -6.78461,4.0321 -13.9502,8.89624 -22,9 5.06128,-5.83026 14.32654,-9.90106 22,-10 m 10,0 c -3.96973,7.30743 -13.47784,9.34589 -21,10 v -1 z"
       id="path1" />
  </g>
</svg>
