<?xml version="1.0" encoding="UTF-8" standalone="no"?>
<!-- Created with Inkscape (http://www.inkscape.org/) -->

<svg
   version="1.1"
   id="svg1"
   width="1024"
   height="1024"
   viewBox="0 0 1024 1024"
   sodipodi:docname="logo.svg"
   inkscape:version="1.4 (e7c3feb100, 2024-10-09)"
   xmlns:inkscape="http://www.inkscape.org/namespaces/inkscape"
   xmlns:sodipodi="http://sodipodi.sourceforge.net/DTD/sodipodi-0.dtd"
   xmlns="http://www.w3.org/2000/svg"
   xmlns:svg="http://www.w3.org/2000/svg">
  <defs
     id="defs1" />
  <sodipodi:namedview
     id="namedview1"
     pagecolor="#ffffff"
     bordercolor="#000000"
     borderopacity="0.25"
     inkscape:showpageshadow="2"
     inkscape:pageopacity="0.0"
     inkscape:pagecheckerboard="0"
     inkscape:deskcolor="#d1d1d1"
     inkscape:zoom="1.046875"
     inkscape:cx="709.73134"
     inkscape:cy="512"
     inkscape:window-width="3830"
     inkscape:window-height="2131"
     inkscape:window-x="0"
     inkscape:window-y="0"
     inkscape:window-maximized="1"
     inkscape:current-layer="g1" />
  <g
     inkscape:groupmode="layer"
     inkscape:label="Image"
     id="g1">
    <path
       style="fill:#030303;stroke:none"
       d="m 593,153 2,71 h 1 L 610.42438,179 617,156 593,153 m -54,32 17,41 h 1 l -3,-44 -15,3 m 103,8 -12,41 c 9.31946,-7.19189 21.41284,-23.14929 26,-34 l -14,-7 m -222,17 49,38 -31,-53 -18,15 m 314,-2 -36,49 c 17.64532,-6.68823 36.71063,-21.88397 52,-33 v -1 l -14,-15 h -2 M 467,308 c -9.25137,-1.17017 -28.34711,-7.90033 -36.77545,-2.82098 -5.42047,3.26666 -5.74252,13.51898 -0.16593,16.64581 C 438.2132,326.39716 454.72919,326.80865 464,327 l -3,23 c -9.79318,-0.20215 -25.78888,-7.07275 -34.89505,-3.25696 -5.70026,2.38861 -7.45889,13.67523 -1.95682,17.09259 9.04218,5.61621 24.58353,3.69141 34.85187,6.16437 l -3,22 c -9.82666,-0.0271 -28.11435,-6.9248 -36.85571,-1.82098 -5.44651,3.18005 -5.50626,13.5335 -0.0355,16.64276 8.08734,4.59631 24.62011,4.44647 33.8912,5.17822 l -3,23 c -9.26782,-0.73151 -27.53949,-7.51825 -35.8912,-2.82098 -5.31482,2.98919 -6.23972,13.2644 -0.88425,16.65661 7.53329,4.77167 24.94076,4.982 33.77545,5.16437 -0.048,17.44128 -7.66034,42.77655 19,43 -0.0837,10.11768 -6.93744,26.56439 -3.12732,35.95605 2.48059,6.11445 13.35407,7.78919 16.96295,1.89966 C 485.31836,525.90808 483.5451,510.19312 486,500 l 21,3 c -0.776,9.83228 -7.28522,26.67383 -3.14197,35.89502 2.80234,6.23694 13.52326,6.97144 16.9668,0.99622 C 525.51611,531.75085 525.60059,515.30383 526,506 l 22,3 c -2.17474,9.10974 -6.04974,24.82324 -3.68213,33.98456 1.53363,5.9342 10.73328,8.12964 15.40357,4.41205 C 566.42065,542.06396 566.35162,519.21503 567,511 l 21,3 c -0.40546,9.44482 -7.48785,27.4624 -2.97223,35.95605 3.2038,6.02601 13.16199,6.93079 16.83258,0.93519 C 606.72052,542.95245 606.92401,526.17761 607,517 l 22,3 c -2.20056,9.13739 -6.05908,24.7865 -3.68213,33.98456 1.72504,6.67547 11.70209,8.68976 16.24848,3.73688 C 647.7923,550.9389 646.86572,530.97504 648,522 c 15.94745,1.97144 25.02643,-7.71765 27,-23 10.3186,0.0854 24.04065,6.15381 33.9599,3.5517 6.58917,-1.72852 8.55188,-12.65735 3.75769,-17.11805 -7.48029,-6.9599 -28.2608,0.40534 -33.67511,-7.8673 C 676.23981,473.28412 679.89685,462.99744 680,458 c 9.87915,0.20392 25.7193,6.76562 34.95605,3.24304 6.33448,-2.41577 7.86176,-14.40454 1.8302,-17.9259 C 708.21918,438.31549 692.72968,439.22961 683,438 c 0.60175,-4.76147 0.0355,-15.96124 3.60339,-19.38196 7.33246,-7.03003 26.28577,6.43286 35.18286,1.20215 5.65412,-3.3241 5.90607,-14.42041 0.1551,-17.64502 C 713.47235,397.42657 698.55499,398.20758 689,397 l 2,-21 c 9.94452,0.0823 25.70117,6.5144 34.95605,2.95142 6.51819,-2.5094 8.31714,-14.14612 1.93519,-17.7732 C 719.80524,356.58264 703.23474,356.39642 694,356 l 1,-13 c 10.41443,0.21497 23.88855,6.25641 33.99536,3.5625 7.48987,-1.9964 9.30768,-13.40778 2.89588,-17.70447 -8.6659,-5.80719 -22.93891,-0.22192 -31.57337,-6.03625 -3.3092,-2.2284 -2.62048,-8.40546 -4.23761,-11.82178 -3.97217,-8.39166 -12.13953,-12.59143 -21.08026,-13 0.21179,-10.26038 6.99414,-26.38739 3.25696,-35.98456 -2.66089,-6.83319 -13.33454,-8.35504 -17.31867,-1.95679 C 656.07019,267.87653 656.18903,285.84192 656,295 l -21,-2 c 1.18799,-9.3924 7.78937,-29.33191 2.97223,-37.89124 -2.98755,-5.30847 -13.37225,-6.47082 -16.65509,-0.97528 C 616.36523,262.4231 616.19751,280.43195 616,290 l -21,-3 c 2.19128,-9.17902 6.47858,-25.76801 4.10651,-34.9599 -1.6399,-6.3548 -11.83606,-8.87653 -16.534,-4.38654 C 576.13373,253.80737 576.6853,276.31775 576,285 l -21,-3 c 2.25897,-9.37976 6.44232,-25.53265 4.33795,-34.99536 -1.45691,-6.55127 -12.00543,-9.52295 -16.68518,-4.57099 C 536.18225,249.28052 537.16522,270.78778 536,280 l -20,-3 c 0.45605,-10.62299 6.27045,-24.66266 3.68134,-34.99536 -1.86298,-7.43494 -13.64032,-9.13757 -17.82331,-2.89588 -5.97818,8.92041 -0.007,23.8487 -5.88504,32.57337 -2.65838,3.9461 -12.64728,3.28619 -16.95834,5.93054 C 468.4729,284.07886 467.87878,296.86536 467,308 m -58,-64 -7,17 48,11 c -10.52182,-10.07672 -27.57379,-22.35242 -41,-28 m 299,38 v 1 l 49,-7 -5,-16 -44,22 M 505,583 v -1 C 476.29013,574.14758 448.02969,558.45532 423,542.68134 361.01938,503.62048 307.15918,449.93396 269.39969,387 254.80743,362.67902 241.03419,335.18884 236.08411,307 234.17804,296.14569 231.88547,279.90643 245,276 c -12.04755,17.69897 0.18146,47.46698 7.71913,65 22.70571,52.8147 58.05358,103.15869 101.28087,141.28552 52.95309,46.70508 112.50378,87.77594 183,102.19983 26.1615,5.35278 58.5769,0.41364 85,-1.39587 56.77936,-3.88831 113.75177,-11.67334 168,-29.75611 23.43964,-7.81323 47.2854,-16.62634 68,-30.33337 3.48486,12.02112 -27.10809,20.89355 -36,24.71912 -41.61664,17.9049 -87.27527,28.16162 -132,34.55175 -134.37555,19.19898 -278.92203,9.02332 -409,-30.70605 -24.32458,-7.42944 -49.07143,-15.72913 -72,-26.8233 C 191.80058,516.41943 174.85869,504.49915 157,498 c 1.8315,88.73541 55.52103,175.2149 123,229.19983 21.53488,17.22845 49.05612,37.43079 76,44.80017 -6.16614,9.86847 -14.20435,18.72791 -21.23148,28 -2.40518,3.17358 -5.17596,8.83447 -9.78317,8.63892 -6.91153,-0.29346 -15.603,-5.266 -21.98535,-7.83954 -17.66959,-7.12488 -35.23364,-15.04566 -52,-24.10803 -10.63631,-5.74903 -24.81647,-9.41297 -30.43672,5.30865 -6.61211,17.31964 12.31654,24.18683 24.43672,30.24695 31.51245,15.75622 64.14008,29.41369 98,39.32867 118.89264,34.81464 252.49725,36.05664 370,-5.79321 27.43292,-9.77057 53.93512,-20.50305 80,-33.53546 9.6319,-4.81598 23.22913,-9.42383 23.41046,-22.24695 0.34717,-24.55084 -24.45441,-16.23108 -37.41046,-9.75305 -16.72552,8.36273 -33.50751,16.51764 -51,23.17743 -5.18494,1.974 -14.28723,7.62103 -19.91052,6.59338 C 704.20929,809.30859 701.3252,803.86493 699.11884,801 692.43292,792.3183 683.98749,783.77045 679,774 c 76.82318,-31.98456 141.63641,-95.5929 172.60034,-173 7.42499,-18.56189 12.98456,-38.19781 15.82019,-58 1.47748,-10.31787 1.24213,-20.82288 -8.42132,-27.03009 -15.25849,-9.80115 -44.52771,0.20135 -60.99921,2.94983 -48.65234,8.1181 -97.50214,18.07489 -147,18.08026 -0.28937,6.74097 -0.48969,17.36133 -4.65277,22.90588 -6.78839,9.04102 -20.50598,6.86621 -25.34338,-2.90973 C 617.84253,550.60742 620.99542,541.90997 621,535 h -11 c -0.24561,5.72095 -0.41833,13.11731 -3.70294,17.99536 -5.95142,8.83862 -19.47717,9.44965 -25.28778,-0.0108 C 576.69031,545.95276 580.84241,536.6347 581,529 l -11,-2 c -0.48932,6.19971 -0.73102,14.57739 -4.00928,19.99615 -5.74841,9.50171 -18.77563,10.25605 -25.28778,0.96064 C 531.92053,535.42084 550.60278,519.76868 530,515 c -0.23065,5.37268 -1.34784,10.65967 -1.94983,16 -1.60821,14.26697 -19.70206,27.66162 -28.88196,9.99615 -5.01516,-9.65094 3.54901,-20.99774 1.42438,-30.84802 C 499.72983,506.14819 493.21252,506.40631 490,506 c -0.69629,8.82251 -0.67746,23.49487 -5.72763,30.95984 -6.62155,9.78784 -22.21225,8.33557 -26.53009,-2.95984 -3.07941,-8.05566 1.29385,-22.8457 3.25772,-31 -20.24234,-10.79382 -23.10739,-22.19965 -19,-44 -9.14227,-1.6983 -21.78299,-0.61194 -29.99615,-5.13965 C 400.47763,447.50623 403.1882,434.04102 412,427 c -6.9776,-14.96265 -25.13586,-28.41083 -36,-41 -26.7366,-30.98193 -51.83188,-65.71771 -83,-92.42053 -12.53854,-10.74219 -28.38919,-23.96955 -46,-23.44983 -20.80455,0.61395 -36.7726,24.3634 -46.99692,39.87036 -25.96733,39.38397 -39.66412,87.23883 -43.09181,134 -0.86067,11.74146 -5.18739,33.74054 -0.30788,44.67126 2.60801,5.84223 14.08362,9.75159 19.39661,12.75312 19.79602,11.18365 40.65488,21.36377 62,29.25696 64.81982,23.96966 132.31934,39.12719 201,46.48455 21.84259,2.33985 44.01364,5.83167 66,5.83411 m -5.99615,-284.58105 c 16.28375,-4.09955 23.63781,19.38098 6.99539,23.77703 -14.99543,3.961 -22.48093,-19.87848 -6.99539,-23.77703 M 520,393 c 2.60059,2.68018 5.37183,5.29413 6.42749,9 8.9823,31.53229 -50.33835,19.54163 -31.77472,-4.89508 1.92737,-2.53717 4.51431,-3.85529 7.34723,-5.10492 -2.16873,-2.43292 -4.2634,-4.7851 -5.18134,-8 -7.09771,-24.85846 44.19605,-17.16486 29.17365,4.81097 C 524.44958,391.06781 522.43695,392.03314 520,393 m 28.00079,-19.58105 c 28.34168,-7.09076 27.26392,47.33349 5.99921,52.18676 -27.14587,6.19556 -26.06042,-47.16766 -5.99921,-52.18676 m -38.86654,3.61267 c -7.34632,4.13415 -0.36121,15.09967 6.47146,10.78552 6.78058,-4.28125 0.57465,-14.75073 -6.47146,-10.78552 M 601,402 c 2.91479,2.68604 5.55646,5.15894 6.89044,9.00385 10.72571,30.91381 -51.20892,21.39074 -31.23767,-4.89893 1.92737,-2.53717 4.51428,-3.85529 7.34723,-5.10492 -2.55634,-2.32104 -4.81067,-4.50238 -5.60492,-8.00385 -0.58661,-2.58599 -0.40893,-5.5263 0.6142,-7.98071 C 588.93677,361.2005 625.81256,393.48779 601,402 m -50.78625,-19.96759 c -7.05048,4.03589 -7.00293,21.99634 -6.02472,28.96374 0.57513,4.09668 3.94281,8.44581 8.4707,5.80939 6.86346,-3.99627 7.0072,-21.91192 6.23151,-28.80475 -0.48072,-4.2716 -4.02918,-8.62921 -8.67749,-5.96838 M 651,397 h -9 c -5.97461,-12.44012 -13.67883,-1.00232 -16,7 14.64459,-8.20331 27.1767,6.14929 22.14581,21 -6.69958,19.77637 -30.67096,9.61188 -32.85644,-7 -1.32312,-10.05713 0.83825,-24.48199 8.89581,-31.4668 C 634.90076,377.24426 649.0415,383.93402 651,397 m -59.89124,-11.21448 c -7.4729,2.73346 -2.72699,14.42694 4.78248,11.45679 7.46588,-2.95294 2.56201,-14.14325 -4.78248,-11.45679 M 355,464 c 6.72409,-3.58649 10.96463,-7.9668 14,-15 17.05624,12.27618 24.48563,39.20868 27,59 -14.53409,-7.23975 -28.51236,-21.65283 -40,-33.00385 -4.03607,-3.98809 -10.64575,-8.67443 -12.87888,-13.99615 -1.64495,-3.92004 1.2085,-8.9715 1.55018,-13 0.38333,-4.51978 -1.5275,-8.72144 -2.6713,-13 h -1 l -4,20 c -17.58206,-13.44617 -37.52438,-39.96991 -47,-60 21.86108,1.73993 43.31491,13.0462 59,28.03937 4.81104,4.59881 11.81497,10.24206 13.57022,16.96063 2.33514,8.93835 -2.81894,17.02252 -7.57022,24 m 151.1088,-65.97144 c -8.25672,4.599 -2.14692,19.5044 6.78237,14.77698 8.39801,-4.44617 2.72278,-20.07135 -6.78237,-14.77698 m 81.94906,9.00306 c -8.89429,4.71106 -2.61041,20.30267 6.80866,14.93982 8.12109,-4.62391 2.32348,-19.77686 -6.80866,-14.93982 m 42.9599,1.81561 c -9.03516,2.66565 -6.74664,21.03656 2.96375,18.3017 9.06427,-2.55292 7.09735,-21.27002 -2.96375,-18.3017 M 251,560 c 0,14.6991 3.15616,26.8924 15,36.67126 12.4754,10.30042 36.39252,10.50379 44.6821,-5.67126 3.0834,-6.01648 -1.82623,-16.86133 -9.66281,-13.58801 -5.89365,2.46179 -2.74924,7.10016 -5.28394,11.11035 -1.13653,1.79816 -3.36841,1.62829 -4.56018,0 -8.11676,-11.08978 10.66168,-21.60675 19.80939,-15.78003 9.48218,6.03967 4.41708,13.20355 6.47146,21.54321 3.46946,14.08399 21.86991,23.98804 35.54398,22.5409 9.56543,-1.01239 18.36908,-5.90509 24.90665,-12.84107 C 382.32269,599.30017 383.9585,591.55981 391,591 c 1.56979,19.7254 14.26251,39.21143 35,42.67438 7.2774,1.21527 13.914,-0.63257 21,-1.67438 -1.83792,-5.05054 -5.13666,-9.55237 -5.81482,-15 -3.77203,-30.30078 42.81937,-18.12994 25.59027,6.99615 C 464.64069,627.10937 462.29852,629.25256 459,631 v 2 c 20.71268,8.62341 40.86414,11.06384 57.90662,-7.01465 5.2575,-5.57709 8.203,-18.28357 15.09338,-20.98535 8.15527,15.53864 12.94092,29.4715 31,36.53625 15.20123,5.94678 49.00238,-0.12438 49.45679,-21.53625 0.17761,-8.37036 -11.45099,-14.64966 -16.84955,-6.89124 -2.53687,3.64588 -0.26618,7.99939 0.39276,11.89124 -6.8313,0.57751 -9.20575,-6.05054 -7.34723,-12 2.13104,-6.82202 9.40418,-10.98645 16.34723,-9.4668 10.60852,2.32196 12.23273,12.16156 18.32874,19.46295 10.0335,12.01752 26.57293,17.88984 41.67126,13.22992 9.80054,-3.02484 20.14539,-10.89489 24.63269,-20.22607 4.82636,-10.03625 2.0896,-28.11047 20.36731,-23.94141 5.85455,1.33545 17.83258,17.24451 6.85956,19.02015 -4.65027,0.75244 -2.53516,-18.56507 -14.76544,-11.76008 -18.49311,10.28974 11.23053,27.13215 20.90588,28.39197 18.52869,2.4126 35.06409,-10.39563 42.33411,-26.71063 1.71692,-3.85303 1.48205,-18.15137 5.09491,-19.83875 3.84961,-1.79797 10.05761,8.44184 12.57177,10.65357 8.57074,7.53979 20.59265,12.02344 31.99921,9.67053 11.57263,-2.38721 36.46387,-26.2633 15.9599,-34.62268 -4.15521,-1.69409 -10.83154,0.97266 -10.56946,6.15198 0.13654,2.69824 3.18939,4.9425 2.69208,7.66284 -0.5603,3.06488 -4.5033,1.21771 -5.85486,0 -12.9201,-11.64032 8.81751,-26.82629 20.66742,-17.11963 16.99829,13.92395 -1.52014,37.92786 -16.89508,42.66821 -19.97467,6.15857 -31.63995,-4.74981 -48,-13.22607 -1.16211,26.66357 -29.81787,45.43726 -55,39.98535 -7.83423,-1.6961 -18.17596,-5.50122 -22,-12.98535 h -2 c -16.0564,31.11688 -55.30988,27.63049 -77,6 -11.01764,25.20715 -44.07147,30.03833 -66,16.5332 -10.09296,-6.21594 -15.20416,-14.61255 -21,-24.5332 -9.64606,20.27673 -33.06458,31.4834 -55,27.53552 -8.08133,-1.45447 -14.14661,-7.3092 -21.71451,-9.08178 C 446.90381,634.95886 437.18484,640.27527 430,639.96063 406.44702,638.9292 395.02322,622.28967 386,603 c -14.78036,28.49158 -59.9241,24.48022 -73,-3 -25.60718,16.70972 -66.21339,8.92773 -67,-28 -14.29633,9.4472 -28.42935,17.4939 -46,10.53552 -14.03049,-5.55652 -28.41138,-27.21985 -13.81174,-40.00232 9.67699,-8.47259 29.77046,-0.88604 23.80248,13.45136 -0.83606,2.00848 -6.72,8.64136 -8.23996,3.68213 -0.83235,-2.71576 2.09567,-5.04334 2.23147,-7.66596 0.30687,-5.92621 -7.50383,-8.69421 -11.8889,-5.9768 -17.01333,10.54296 5.51418,31.45501 17.90665,32.80249 9.46719,1.02935 18.48134,-1.68634 25.99924,-7.50696 C 241.21582,567.28064 243.99892,560.53925 251,560 m 201.01544,44.74304 c -9.90387,3.85205 -4.61029,25.00904 3.97376,21.92981 12.0408,-4.31921 10.56039,-27.5827 -3.97376,-21.92981 M 672,823 c -23.16388,3.11926 -45.71625,10.58105 -69,13.71759 -61.67407,8.30804 -125.66089,8.367 -187,-3.10651 C 398.04959,830.25348 379.12363,827.55463 362,821 l 26,-36 c 17.14441,3.96625 33.65311,10.08087 51,13.5509 34.00635,6.80262 70.33786,9.73322 105,7.35962 23.16412,-1.5863 46.32745,-5.2995 69,-10.3349 8.828,-1.96063 22.09875,-9.25439 30.98535,-8.0733 4.24683,0.56445 6.59839,5.41882 8.90973,8.49768 6.32599,8.42651 15.28394,17.12024 19.10492,27 z"
       id="path1" />
  </g>
</svg>
