<?xml version="1.0" encoding="UTF-8" standalone="no"?>
<!-- Created with Inkscape (http://www.inkscape.org/) -->

<svg
   version="1.1"
   id="svg1"
   width="1024"
   height="1024"
   viewBox="0 0 1024 1024"
   sodipodi:docname="motherboard-jp.svg"
   inkscape:version="1.4 (e7c3feb100, 2024-10-09)"
   xmlns:inkscape="http://www.inkscape.org/namespaces/inkscape"
   xmlns:sodipodi="http://sodipodi.sourceforge.net/DTD/sodipodi-0.dtd"
   xmlns="http://www.w3.org/2000/svg"
   xmlns:svg="http://www.w3.org/2000/svg">
  <defs
     id="defs1" />
  <sodipodi:namedview
     id="namedview1"
     pagecolor="#ffffff"
     bordercolor="#000000"
     borderopacity="0.25"
     inkscape:showpageshadow="2"
     inkscape:pageopacity="0.0"
     inkscape:pagecheckerboard="0"
     inkscape:deskcolor="#d1d1d1"
     inkscape:zoom="1.8828125"
     inkscape:cx="512.26556"
     inkscape:cy="512"
     inkscape:window-width="1909"
     inkscape:window-height="1085"
     inkscape:window-x="1085"
     inkscape:window-y="653"
     inkscape:window-maximized="1"
     inkscape:current-layer="g1" />
  <g
     inkscape:groupmode="layer"
     inkscape:label="Image"
     id="g1">
    <path
       style="fill:#000000"
       d="m 824.81042,579.51335 c -1.47554,-1.2692 -2.42594,-2.5645 -2.11201,-2.87843 0.31394,-0.31394 0.019,-1.90307 -0.65554,-3.53141 -1.00141,-2.41764 -0.94338,-3.93659 0.31641,-8.28207 2.12121,-7.31679 2.83375,-109.95861 0.78886,-113.63536 -0.99968,-1.79744 -1.0209,-2.63447 -0.0951,-3.75 C 823.70856,446.64623 823.90969,446 823.5,446 c -3.0069,0 4.48578,-4.81834 8.79013,-5.6527 7.16101,-1.38809 15.82574,10.19328 12.56559,16.7953 -0.44612,0.90343 -1.06674,8.55343 -1.37914,17 -0.31241,8.44657 -0.7577,16.57745 -0.98954,18.06863 -0.48175,3.09858 0.96338,4.48977 2.95064,2.84049 2.01482,-1.67215 9.6446,-1.47182 13.06232,0.34297 1.65,0.87615 3.59957,1.59576 4.33239,1.59915 0.73281,0.003 4.43306,1.36705 8.22277,3.03037 8.40824,3.6904 25.60261,9.72961 30.70317,10.78393 4.57609,0.94592 7.82716,6.25481 5.93511,9.69186 -0.60554,1.1 -1.14636,2.45 -1.20182,3 -0.7533,7.47018 -8.34968,9.43557 -17.92494,4.63768 -8.6382,-4.32837 -18.80736,-8.5358 -28.06668,-11.61244 -4.4,-1.462 -9.96918,-3.75328 -12.37595,-5.09172 C 845.71727,510.09509 843.28771,509 842.72502,509 c -0.93544,0 -0.57596,23.22646 0.86285,55.75 0.255,5.76418 0.0329,9.25 -0.58933,9.25 -0.5492,0 -0.99854,0.46882 -0.99854,1.04181 0,1.68516 -3.75793,5.22583 -4.838,4.55831 -0.54515,-0.33692 -1.14893,-0.13933 -1.34173,0.43908 -0.75094,2.2528 -8.1927,1.89736 -11.00985,-0.52585 z M 289.43246,579.10928 C 289.82664,578.47148 289.43031,578 288.5,578 c -0.88992,0 -1.33992,-0.45 -1,-1 0.33992,-0.55 -0.0138,-1 -0.786,-1 -2.33211,0 -4.69277,-3.36517 -4.05948,-5.78688 C 282.97283,568.99591 283.63078,568 284.11663,568 284.60248,568 285,567.43188 285,566.7375 c 0,-1.20545 1.5759,-2.71744 10.42726,-10.00436 6.91774,-5.69505 19.42113,-26.95782 24.83486,-42.23314 2.74526,-7.746 6.34006,-22.25087 5.66764,-22.86866 -0.23637,-0.21716 -5.82976,0.3517 -12.42976,1.26412 l -12,1.65896 -0.24411,3.47279 c -1.20699,17.17085 -1.37528,18.06967 -3.27066,17.4681 -1.15488,-0.36654 -2.25714,0.083 -2.96905,1.21086 -0.84214,1.33419 -1.27138,1.45996 -1.67522,0.49083 -0.40813,-0.97945 -0.88564,-0.85529 -1.92296,0.5 -1.08719,1.42044 -1.5626,1.52658 -2.24064,0.50021 -0.47335,-0.71653 -1.44556,-1.16653 -2.16045,-1 -2.57314,0.59941 -5.39191,-6.12385 -5.39191,-12.86064 0,-7.41321 -0.31858,-7.53843 -12.18006,-4.78757 -6.03094,1.39867 -6.84528,1.39867 -8.39079,0 -0.9414,-0.85195 -2.36369,-1.549 -3.16065,-1.549 -3.13948,0 -7.64909,-7.38464 -5.84045,-9.56392 0.84703,-1.02061 0.86711,-1.43608 0.0694,-1.43608 -2.10802,0 -1.10074,-1.49801 2.63994,-3.92607 3.07028,-1.9929 5.69837,-2.57883 14.71932,-3.2817 6.03994,-0.4706 11.43994,-1.31372 12,-1.8736 0.5797,-0.57951 1.0669,-6.89865 1.13113,-14.67124 0.12478,-15.09899 0.59141,-16.15816 7.44934,-16.90893 7.29841,-0.799 14.99984,7.94012 11.97619,13.58986 -1.18721,2.21833 -1.42162,14.72983 -0.28836,15.39163 0.4125,0.24089 6.72452,-0.29244 14.0267,-1.18519 l 13.27671,-1.62318 -0.16626,-11.33846 c -0.18817,-12.83351 0.87353,-15.15083 7.16835,-15.64602 9.14364,-0.71929 13.04811,7.6287 10.74473,22.9729 -0.2734,1.82127 0.14659,1.96034 4.69977,1.55621 4.44458,-0.3945 13.91625,-0.47173 20.25,-0.16513 1.2375,0.0599 2.25,0.72882 2.25,1.48648 0,0.75765 0.59259,1.86936 1.31686,2.47045 0.76381,0.63391 1.23457,2.78983 1.12091,5.13342 -0.3453,7.12019 -5.07101,9.23407 -20.43777,9.14213 -11.78263,-0.0705 -11.42099,-0.34303 -12.80924,9.65321 -1.18338,8.52102 -4.77981,21.99127 -6.32053,23.67323 -0.47863,0.5225 -0.87023,1.59383 -0.87023,2.38074 0,1.91407 -12.43533,26.48818 -16.09718,31.8105 -1.59655,2.32051 -2.90282,4.51567 -2.90282,4.87813 0,0.36246 -2.025,2.6271 -4.5,5.03252 -2.475,2.40543 -4.5,5.06529 -4.5,5.91081 0,0.84551 -0.37285,1.5373 -0.82856,1.5373 -0.4557,0 -2.8182,1.30247 -5.25,2.89437 -4.53478,2.96856 -13.81281,5.35691 -12.48898,3.21491 z m 289.30684,-1.70331 c -0.25092,-0.25093 -2.05683,-0.5164 -4.01313,-0.58995 C 571.27253,576.68619 555.67672,562 558.99248,562 c 0.71764,0 0.59297,-0.75377 -0.34651,-2.09506 -2.57525,-3.67669 3.627,-8.63161 10.01312,-7.99939 2.63573,0.26094 2.99648,-3.179 3.79161,-36.15555 l 0.52444,-21.75 -3.23757,0.0217 c -4.39683,0.0294 -21.79114,2.60751 -29.60583,4.38798 -10.26599,2.33897 -16.99095,-1.03504 -18.75502,-9.40965 -0.35059,-1.66436 2.31381,-7.95611 3.4202,-8.07651 0.38669,-0.0421 1.60308,-0.3202 2.70308,-0.61804 1.1,-0.29784 5.6,-0.87081 10,-1.27326 23.32441,-2.1334 34.12729,-3.45673 35.25,-4.31808 1.44444,-1.10817 1.60075,-9.94396 0.29562,-16.71077 -2.39353,-12.40991 13.90241,-17.062 19.37428,-5.53089 1.46279,3.0826 1.46867,4.55365 0.0668,16.72163 l -0.54079,4.69409 6.77702,-0.43729 c 3.72737,-0.24051 10.60203,-0.70158 15.27703,-1.0246 4.675,-0.32302 9.79653,-0.56456 11.38118,-0.53676 3.24427,0.0569 9.81867,3.13953 9.59449,4.49868 -0.0806,0.4885 0.45444,1.25912 1.18892,1.71248 1.46699,0.90551 2.06228,4.89932 0.73026,4.89932 -0.45764,0 -0.62919,0.5625 -0.38121,1.25 1.27579,3.53697 -3.80074,6.5087 -12.28092,7.18908 -1.797,0.14418 -3.51837,0.51324 -3.82527,0.82014 -0.3069,0.30689 -1.82699,0.19405 -3.37797,-0.25077 -3.93717,-1.12916 -23.25158,-0.0536 -24.77348,1.37952 -1.63204,1.53687 -2.14866,11.26977 -2.44805,46.11952 -0.13534,15.75489 -0.5975,28.86245 -1.02702,29.1279 -0.42951,0.26545 -0.78093,1.54533 -0.78093,2.84417 0,1.81083 -0.69959,2.51518 -3,3.02044 -1.65,0.3624 -3,1.02501 -3,1.47247 0,0.95608 -2.59658,2.09762 -3.2607,1.4335 z m -394.29965,-1.25565 c -1.1332,-0.35768 -5.8582,-4.77795 -10.5,-9.82283 C 169.29784,561.28262 160.1,552.65553 153.5,547.15618 134.46615,531.29654 132.16197,528.40795 135.26301,524.2938 c 0.50004,-0.6634 0.61835,-1.67675 0.26291,-2.25187 -0.35545,-0.57512 0.50581,-1.48369 1.91391,-2.01905 1.40809,-0.53536 2.56017,-1.43452 2.56017,-1.99813 0,-4.54552 13.30502,1.4783 22.70527,10.27977 l 3.20526,3.0011 3.29474,-2.52505 C 181.49209,519.36409 207,489.50063 207,484.53227 c 0,-2.90889 -59.95891,2.73669 -80,7.5326 -9.52374,2.27907 -19.18462,2.89102 -22.07162,1.39809 -3.41381,-1.76535 -7.705264,-10.08608 -6.053726,-11.73761 0.61894,-0.61894 1.139486,-1.82285 1.156766,-2.67535 0.0691,-3.40984 4.68453,-5.20627 14.26956,-5.55406 5.05946,-0.18358 11.44902,-0.82457 14.19902,-1.42442 12.61194,-2.75101 63.42639,-8.04694 77.34571,-8.06104 7.73225,-0.008 11.03936,-0.42023 13.09164,-1.63254 3.32122,-1.9619 8.11304,-0.17371 13.22022,4.93347 6.15146,6.15147 6.213,9.63964 0.28559,16.18859 -2.489,2.75 -5.06944,5.95585 -5.73431,7.12412 -0.66487,1.16826 -2.06449,3.64019 -3.11028,5.49317 -3.77693,6.69217 -13.24094,17.66497 -27.82862,32.26517 l -14.86969,14.88247 2.27273,2.61753 c 1.25,1.43965 4.86434,5.32148 8.03187,8.62629 3.92701,4.0972 5.86491,6.97474 6.09157,9.04523 0.18283,1.67006 0.66516,3.57485 1.07183,4.23287 0.4302,0.69607 -0.30955,2.24535 -1.76897,3.70477 -1.37961,1.37961 -2.19134,2.52599 -1.80384,2.54752 0.3875,0.0215 -0.80961,0.69653 -2.66026,1.5 -3.59314,1.55999 -4.4691,1.62956 -7.69554,0.61118 z m 342.38944,-11.65456 c -0.23863,-0.23863 -1.89093,-0.5449 -3.67177,-0.6806 -8.00157,-0.60969 -9.36474,-8.92199 -2.78732,-16.99646 4.63639,-5.69165 15.63,-26.04167 15.63,-28.93233 0,-4.5906 11.39329,-9.20651 12.74143,-5.16209 0.21328,0.63985 1.03371,0.9155 1.82318,0.61255 0.78946,-0.30294 1.43539,0.0102 1.43539,0.69594 0,0.68571 0.74539,1.79179 1.65642,2.45795 2.49006,1.82078 1.87405,6.92597 -1.49676,12.40422 -1.63474,2.6568 -4.51506,8.15482 -6.40069,12.21781 -4.6449,10.0084 -10.29767,18.60606 -12.74344,19.38232 -1.10854,0.35184 -2.01553,1.04355 -2.01553,1.53713 0,1.03405 -3.52083,3.11364 -4.17091,2.46356 z m 96.51723,-15.25683 c -19.80924,-21.69322 -20.28959,-22.32532 -20.0611,-26.39915 0.12782,-2.2789 0.7209,-3.83152 1.46478,-3.8346 0.6875,-0.003 1.25,-0.48732 1.25,-1.07661 0,-2.61255 2.69309,-3.88042 8.66404,-4.07891 2.30131,-0.0765 26.33596,23.48812 26.33596,25.82092 0,0.66626 0.45165,1.49052 1.00367,1.83169 0.55202,0.34116 0.74983,1.63169 0.43958,2.86783 -0.31026,1.23614 -0.67783,3.02241 -0.81683,3.96949 -0.28085,1.91357 -7.02754,6.92596 -8.00572,5.94778 -0.34139,-0.34139 -0.6207,-0.0957 -0.6207,0.54596 0,2.9099 -4.00992,0.58611 -9.65368,-5.5944 z M 400.5,526.43981 c -9.40269,-3.59637 -10.65472,-4.98025 -11.96796,-13.2282 C 388.1396,510.74684 392.04291,506 394.46212,506 c 0.75417,0 1.53394,-0.48817 1.73282,-1.08483 0.24924,-0.74771 2.22696,-0.60148 6.36404,0.47055 5.39585,1.39821 7.8183,1.40484 23.97172,0.0657 9.88312,-0.81933 22.2443,-1.7049 27.4693,-1.96795 13.57517,-0.68342 21.16351,-1.50061 22.98456,-2.47521 2.80585,-1.50164 14.13977,-1.76363 18.41447,-0.42565 2.25554,0.70598 3.70837,1.3137 3.22853,1.35049 -0.47985,0.0368 -0.31225,0.7419 0.37244,1.5669 0.68469,0.825 0.85229,1.50689 0.37244,1.51531 -0.47984,0.008 -0.22638,0.42413 0.56326,0.92379 1.15092,0.72827 1.19088,1.20346 0.20144,2.39566 -0.8362,1.00756 -0.89609,1.69618 -0.1857,2.13523 C 501.50333,511.42911 501.22303,513 499.5,513 c -0.825,0 -1.5,0.78989 -1.5,1.75531 0,1.65858 -4.15383,3.6947 -9.5,4.65671 -1.1,0.19793 -3.8,0.7761 -6,1.2848 -2.2,0.50871 -8.5,1.04283 -14,1.18693 -5.5,0.14411 -15.12686,0.891 -21.39302,1.65976 -6.26616,0.76876 -11.68628,1.2165 -12.04472,0.99497 -0.35843,-0.22152 -4.00658,0.0231 -8.10698,0.54372 -19.9324,2.53055 -22.97978,2.68693 -26.45528,1.35761 z m 273,-1.8843 c -0.55,-0.21545 -2.64332,-0.66568 -4.65183,-1.00051 -6.62347,-1.10419 -11.26359,-10.08879 -8.58071,-16.61474 1.41363,-3.43858 8.26658,-5.17601 12.8366,-3.25446 3.73557,1.57069 13.58513,1.68551 26.18535,0.30525 5.06583,-0.55492 18.43559,-1.40063 29.71059,-1.87935 17.52487,-0.74408 21.47386,-1.21196 27.21033,-3.22388 C 763.50906,496.32797 771.5,497.43188 771.5,501 c 0,0.825 0.75175,1.80977 1.67056,2.18839 1.68391,0.69389 1.88487,2.33332 0.54808,4.47137 -0.39882,0.63786 -0.45052,1.87536 -0.1149,2.75 0.34281,0.89333 0.0992,1.59024 -0.55577,1.59024 -0.6413,0 -0.87036,0.47836 -0.50903,1.06301 0.86261,1.39572 -2.55804,5.14364 -4.14033,4.53646 -0.67517,-0.25909 -2.92947,0.3966 -5.00955,1.45709 -2.53168,1.29072 -5.61794,1.88658 -9.33552,1.80237 -8.84766,-0.2004 -37.67717,1.19211 -48.05354,2.32106 -10.39531,1.13101 -30.90788,1.99918 -32.5,1.37552 z M 892,481.44098 c 0,-0.85746 -0.40647,-1.3078 -0.90327,-1.00076 -0.4968,0.30704 -2.59825,-2.02891 -4.66989,-5.19099 -2.07165,-3.16207 -4.95418,-7.32423 -6.40565,-9.24923 -3.00087,-3.97991 -3.72777,-8.51488 -1.50175,-9.36909 0.81431,-0.31248 1.48056,-1.28382 1.48056,-2.15854 0,-0.87472 0.44485,-1.31547 0.98855,-0.97945 0.56686,0.35034 0.7345,-0.0511 0.39301,-0.94098 -0.45737,-1.19187 0.10651,-1.55194 2.43041,-1.55194 3.02259,0 9.16975,2.83959 9.18171,4.24135 0.009,1.03836 7.03681,10.18434 8.14546,10.60027 C 902.26777,466.26504 905,472.6606 905,474.87905 905,477.58656 898.31154,483 894.96634,483 892.94635,483 892,482.50263 892,481.44098 Z M 99.649385,469.76725 c -0.788825,-3.01648 0.817635,-4.44309 2.786325,-2.47439 2.02178,2.02177 1.97527,2.70354 -0.18571,2.72245 -1.49555,0.0131 -1.5319,0.15626 -0.25,0.98469 1.30396,0.84269 1.28653,0.97138 -0.13337,0.98469 -0.89835,0.008 -1.896112,-0.98943 -2.217245,-2.21744 z m 813.197785,-2.51629 c -2.38954,-2.59941 -7.32866,-10.16888 -7.34132,-11.25096 -0.003,-0.275 -1.03632,-1.53047 -2.29578,-2.78993 -3.60193,-3.60193 -4.69951,-7.37901 -2.59207,-8.92001 0.9548,-0.69817 1.44661,-1.55878 1.09291,-1.91248 C 900.7087,441.37537 905.56054,438 908.00336,438 c 5.22201,0 18.53644,15.44302 19.41391,22.51763 1.04622,8.4352 -8.81596,12.99285 -14.5701,6.73333 z m -540.674,0.46944 c -1.27976,-0.60203 -4.12904,-4.2729 -6.33174,-8.1575 -2.20269,-3.88459 -4.75562,-8.29652 -5.67316,-9.80427 -1.38002,-2.2677 -1.44727,-3.04524 -0.38924,-4.5 0.70347,-0.96725 1.51987,-2.45593 1.81422,-3.30819 2.08723,-6.04333 9.8913,-4.07702 15.25942,3.84475 8.00703,11.81601 9.24223,17.05377 4.62459,19.61017 -1.08749,0.60205 -2.27775,1.51132 -2.64502,2.02059 -1.00306,1.39089 -4.04262,1.52529 -6.65907,0.29445 z M 627.5,466.1443 c -1.78209,-1.0979 -4.18156,-4.24266 -5.91045,-7.74626 -1.60075,-3.24392 -3.75784,-7.12001 -4.79353,-8.61353 -3.13765,-4.52468 2.48741,-12.98625 7.98693,-12.01445 2.78495,0.49212 8.21705,4.83714 8.21705,6.57264 0,0.53269 1.02774,2.36099 2.28386,4.06291 5.37961,7.28879 6.09989,16.59439 1.28447,16.59439 -0.39115,0 -1.38619,0.675 -2.21119,1.5 -1.95291,1.95291 -3.21621,1.88738 -6.85714,-0.3557 z M 397,458.93019 C 397,458.41859 396.55514,458 396.01143,458 c -1.7322,0 -5.11424,-3.38534 -6.99319,-7 -1.00063,-1.925 -3.21409,-5.24938 -4.91879,-7.3875 -3.85747,-4.83826 -3.89028,-7.1817 -0.16163,-11.54439 4.83976,-5.66276 8.09931,-4.91645 14.98902,3.43189 8.06061,9.76711 10.72266,19.45783 5.35454,19.4922 -0.67124,0.004 -0.96006,0.68156 -0.64301,1.5078 0.31659,0.825 0.41199,1.5 0.21202,1.5 -0.19998,0 -1.82312,0.41859 -3.60699,0.93019 -2,0.5736 -3.2434,0.5736 -3.2434,0 z m 259.59609,0.33256 c -0.40549,-0.40548 -1.43975,-0.74298 -2.29837,-0.75 -0.85861,-0.007 -3.53798,-2.93775 -5.95415,-6.51275 -2.41617,-3.575 -5.1694,-7.56954 -6.1183,-8.87675 -2.53943,-3.49835 -3.40505,-8.439 -1.65092,-9.42294 0.78411,-0.43983 1.42565,-1.24615 1.42565,-1.79181 0,-4.49747 8.2563,-5.50934 12.26274,-1.5029 5.45623,5.45623 13.36675,21.54104 10.98726,22.34089 -0.6875,0.2311 -1.25,0.89282 -1.25,1.47049 0,2.32136 -6.02339,6.4263 -7.40391,5.04577 z"
       id="path1" />
  </g>
</svg>
