<?xml version="1.0" encoding="UTF-8" standalone="no"?>
<!-- Created with Inkscape (http://www.inkscape.org/) -->

<svg
   version="1.1"
   id="svg1"
   width="1024"
   height="1024"
   viewBox="0 0 1024 1024"
   sodipodi:docname="motherboard.svg"
   inkscape:version="1.4 (e7c3feb100, 2024-10-09)"
   xmlns:inkscape="http://www.inkscape.org/namespaces/inkscape"
   xmlns:sodipodi="http://sodipodi.sourceforge.net/DTD/sodipodi-0.dtd"
   xmlns="http://www.w3.org/2000/svg"
   xmlns:svg="http://www.w3.org/2000/svg">
  <defs
     id="defs1" />
  <sodipodi:namedview
     id="namedview1"
     pagecolor="#ffffff"
     bordercolor="#000000"
     borderopacity="0.25"
     inkscape:showpageshadow="2"
     inkscape:pageopacity="0.0"
     inkscape:pagecheckerboard="0"
     inkscape:deskcolor="#d1d1d1"
     inkscape:zoom="1.8828125"
     inkscape:cx="512"
     inkscape:cy="512"
     inkscape:window-width="3830"
     inkscape:window-height="2131"
     inkscape:window-x="0"
     inkscape:window-y="0"
     inkscape:window-maximized="1"
     inkscape:current-layer="g1" />
  <g
     inkscape:groupmode="layer"
     inkscape:label="Image"
     id="g1">
    <path
       style="fill:#000000"
       d="m 67.5,538.80505 c -1.1,-0.62377 -2.330609,-1.62258 -2.734687,-2.21959 -0.887148,-1.31071 -0.997838,-37.00581 -0.136969,-44.16964 1.109245,-9.23072 6.426064,-9.20715 7.811955,0.0346 0.375236,2.50224 1.07277,4.54954 1.550076,4.54954 0.933055,0 1.509054,-2.65633 5.421003,-25 6.569802,-37.52438 7.861567,-50.69866 5.188622,-52.91701 -0.77,-0.63904 -1.4,-2.77943 -1.4,-4.75642 0,-4.46698 3.572349,-7.90627 9.227247,-8.88355 C 97.668846,404.53717 99,406.41861 99,414.7329 c 0,12.8675 18.52388,76.65095 22.6441,77.97064 0.47075,0.15078 1.83332,-2.75834 3.02795,-6.4647 1.19462,-3.70636 5.09689,-15.28884 8.6717,-25.73884 14.12161,-41.28068 17.62029,-52.94673 17.00887,-56.71451 -0.50723,-3.12566 -0.22921,-3.82024 2.15418,-5.3819 5.94763,-3.89704 15.41541,-0.12471 14.02233,5.58703 -0.63331,2.59659 -0.63268,20.22638 9e-4,25.50938 0.19788,1.65 0.6433,6.375 0.98983,10.5 0.7986,9.50655 1.99263,17.40612 4.40979,29.1748 2.97891,14.5037 6.88031,43.25373 7.40576,54.57435 l 0.47573,10.24914 -3.01878,2.14956 c -4.0849,2.90871 -9.46914,1.70114 -11.80614,-2.64785 -2.15837,-4.01657 -1.61696,-16.5 0.7156,-16.5 1.29145,0 1.42373,-1.05678 0.84487,-6.75 -0.64155,-6.3097 -4.09634,-28.26215 -8.45899,-53.75 -1.03555,-6.05 -2.21649,-14.15 -2.6243,-18 l -0.74149,-7 -1.48322,3.5 c -0.81578,1.925 -3.18896,9.125 -5.27375,16 -2.08478,6.875 -5.44838,17 -7.47466,22.5 -2.02628,5.5 -5.41667,15.24715 -7.5342,21.66032 -3.42086,10.36048 -3.71661,12.01568 -2.65306,14.84805 1.14994,3.06245 1.0398,3.32262 -2.80302,6.62101 -3.21091,2.756 -4.59182,3.32788 -7,2.89894 -3.94656,-0.70294 -6.5,-3.92611 -6.5,-8.20485 0,-1.90022 -0.47527,-4.34299 -1.05615,-5.42838 -1.4541,-2.71702 -10.00767,-27.83661 -14.43612,-42.39509 -2.007609,-6.6 -3.903514,-12.675 -4.213121,-13.5 -0.309608,-0.825 -1.821824,5.475 -3.360481,14 -1.538657,8.525 -4.862426,26.18524 -7.386155,39.24498 -2.620711,13.5616 -4.318961,24.81929 -3.959877,26.25 0.987212,3.93337 -0.357354,7.33434 -3.552923,8.98683 -3.460738,1.78962 -5.793473,1.87796 -8.535173,0.32324 z m 142.80318,-5.15323 c -4.61346,-1.26617 -8.9716,-4.94487 -13.37263,-11.2878 -5.87174,-8.46258 -5.47961,-24.32301 0.92026,-37.22203 2.03309,-4.09773 2.61592,-6.18207 1.82002,-6.50892 -0.88955,-0.3653 -0.88556,-0.68417 0.0166,-1.32729 0.65309,-0.46557 1.65571,-2.07812 2.22803,-3.58345 0.57233,-1.50534 1.39858,-2.62118 1.83612,-2.47965 0.43754,0.14152 2.72143,-1.59114 5.07531,-3.85038 7.18618,-6.8972 14.73349,-7.61607 28.6731,-2.73106 8.63106,3.02467 14.2196,8.16682 18.17293,16.72133 2.42629,5.25019 2.81862,7.32243 2.76745,14.61743 -0.0681,9.7053 -2.73503,16.99249 -9.03076,24.6756 -9.33779,11.39555 -25.42095,16.73223 -39.10644,12.97622 z m 18.40184,-12.17303 c 8.77851,-3.6679 16.2785,-13.03342 17.77151,-22.19194 0.99434,-6.09963 -1.66857,-14.41222 -6.00659,-18.75024 -4.57457,-4.57457 -11.58458,-6.72622 -16.46994,-5.05527 -3.27196,1.11911 -3.63031,1.68205 -5.5,8.64013 -2.2081,8.21749 -3.17662,10.19642 -4.5691,9.33582 -0.51199,-0.31643 -0.9309,-0.0902 -0.9309,0.50275 0,0.64082 -0.98062,0.83194 -2.41783,0.47123 -1.79514,-0.45055 -2.69654,-0.0861 -3.5,1.4152 -1.59401,2.97843 -1.3158,14.52915 0.45664,18.95892 2.86514,7.16068 12.63088,10.23968 21.16621,6.6734 z m 346.59951,12.02196 c -1.17727,-0.8246 -3.03559,-2.9621 -4.1296,-4.75 -1.91326,-3.12678 -1.99299,-5.19572 -2.09074,-54.25075 -0.11511,-57.76918 -0.68455,-79.08044 -2.27982,-85.32208 -0.99277,-3.8843 -0.89275,-4.53399 0.98748,-6.41421 1.45404,-1.45405 3.23555,-2.04915 5.84115,-1.95119 6.58524,0.24756 6.51064,-0.10809 6.24646,29.78183 -0.26761,30.27926 0.0243,66.64272 0.53908,67.15752 0.18711,0.18711 2.37323,-2.50883 4.85804,-5.99098 6.56553,-9.20076 12.41606,-14.60957 19.22342,-17.77203 5.08437,-2.36203 7.14453,-2.7576 13.5,-2.59213 18.02508,0.4693 30.01599,12.57516 30.35745,30.64845 0.12952,6.85545 -0.20165,8.24224 -3.62284,15.17062 -4.92357,9.97091 -14.27078,18.81022 -26.51262,25.07203 -12.81639,6.55569 -18.22578,8.08576 -26.21758,7.41576 -6.44833,-0.54061 -6.77552,-0.45688 -9.25431,2.368 -2.89985,3.30472 -4.36603,3.58615 -7.44557,1.42916 z m 31.2443,-18.61676 c 10.69524,-3.97648 22.58124,-13.72066 26.99558,-22.13105 11.00697,-20.97098 -11.97169,-39.2117 -30.83726,-24.47897 -6.25977,4.88846 -15.10179,19.20716 -17.7491,28.74278 C 583.45811,502.4195 583.11001,508 584.27292,508 c 0.46481,0 0.59034,0.41224 0.27894,0.91608 -0.31139,0.50385 -0.12409,2.07885 0.41624,3.5 0.79994,2.10403 1.63702,2.58392 4.50715,2.58392 2.55316,0 3.52475,0.4377 3.52475,1.5879 0,1.3124 0.73736,1.46518 4.25,0.88056 2.3375,-0.38903 6.52197,-1.55204 9.29883,-2.58447 z m -319.39308,15.28795 c -3.20577,-2.65939 -3.40111,-3.22762 -4.71747,-13.7231 -0.77497,-6.17886 -1.3874,-20.47169 -1.40575,-32.80725 L 281,461.78318 l -2.25,0.55971 c -1.2375,0.30784 -5.4,0.86304 -9.25,1.23378 -3.9696,0.38226 -8.34984,1.48563 -10.11803,2.5487 C 257.66705,467.15642 255.37429,468 254.28695,468 252.1717,468 249,465.10319 249,463.17126 249,462.52707 248.59814,462 248.10699,462 c -3.19115,0 -0.7915,-7.2131 3.42325,-10.28996 1.79908,-1.31336 2.93765,-1.53 4.27619,-0.81363 1.20274,0.64368 5.89042,0.57212 13.75892,-0.21005 L 281.5,449.5 282.20062,440 c 0.38534,-5.225 0.66644,-16.97667 0.62466,-26.11482 -0.0418,-9.13815 0.31794,-17.23815 0.79938,-18 0.48144,-0.76185 1.77534,-1.46519 2.87534,-1.56297 1.1,-0.0978 3.22864,-0.42227 4.7303,-0.72107 4.60753,-0.91679 4.82771,0.79278 3.65315,28.36416 -0.58995,13.84836 -0.8673,25.38418 -0.61632,25.63516 0.25097,0.25097 6.03104,-0.34396 12.84459,-1.32207 6.81356,-0.97811 15.87578,-1.74911 20.13828,-1.71333 l 7.75,0.0651 -0.0353,-12.06507 c -0.0379,-12.93791 -1.45369,-36.04272 -2.52667,-41.23204 -0.5183,-2.50664 -0.20846,-3.54917 1.48599,-5 1.17744,-1.00816 2.23872,-1.64448 2.35839,-1.41404 0.11967,0.23044 1.21972,-0.11735 2.44455,-0.77286 1.74246,-0.93253 2.7215,-0.91491 4.5,0.081 1.25017,0.70007 2.4334,1.35823 2.62941,1.46257 0.19601,0.10435 0.51174,18.32935 0.70164,40.5 0.18989,22.17066 0.36992,40.98529 0.40007,41.81029 0.0313,0.85531 1.71662,-0.43408 3.92131,-3 5.01595,-5.83781 11.80565,-10.51741 15.75209,-10.85667 9.56385,-0.82216 19.40132,10.97097 25.3226,30.35667 4.01458,13.14335 4.86782,37.74306 1.40869,40.61388 -1.03274,0.8571 -1.36278,0.81289 -1.36278,-0.18256 0,-0.79982 -0.57424,-0.55437 -1.4682,0.62755 -1.32847,1.7564 -1.47122,1.77459 -1.5,0.19113 -0.0175,-0.9625 -0.4488,-1.75 -0.95848,-1.75 -0.50967,0 -1.13247,0.7875 -1.38399,1.75 -0.38635,1.47841 -0.47771,1.43961 -0.58864,-0.25 -0.10978,-1.67206 -0.29278,-1.75404 -1.116,-0.5 -2.15875,3.28848 -2.96418,-1.35809 -2.34007,-13.5 0.48853,-9.50445 0.26888,-13.35176 -1.05623,-18.5 -3.1753,-12.33656 -10.56857,-25 -14.59569,-25 -3.14711,0 -7.83845,4.88746 -10.87222,11.32672 -4.3575,9.24893 -8.33761,26.53662 -8.27589,35.94658 0.0602,9.1722 -0.71683,11.75775 -4.22388,14.05565 -2.35667,1.54415 -2.87693,1.55234 -6.50098,0.10228 -4.72596,-1.89096 -5.42473,-3.91301 -4.12081,-11.9246 0.52267,-3.21139 1.23596,-19.10483 1.58509,-35.31875 l 0.63478,-29.47986 -2.98017,2.12207 c -1.77118,1.26119 -5.1624,2.32684 -8.35939,2.62684 -22.51073,2.11238 -28.7558,2.84875 -29.83935,3.51842 -0.92611,0.57237 -1.22157,5.93289 -1.16514,21.13876 0.0416,11.20456 0.34514,22.40007 0.67459,24.87891 0.74498,5.6055 3.49602,11.20356 5.18688,10.55471 2.06195,-0.79124 1.5125,5.23745 -0.86247,9.46313 -1.16944,2.08074 -3.21561,4.27951 -4.54705,4.88615 -2.96053,1.34891 -2.21374,1.55767 -6.17094,-1.72507 z M 334.25,449.33772 c -0.6875,-0.27741 -1.8125,-0.27741 -2.5,0 -0.6875,0.27741 -0.125,0.50439 1.25,0.50439 1.375,0 1.9375,-0.22698 1.25,-0.50439 z m 96.74353,76.72794 c -10.25309,-3.11885 -18.46263,-11.4099 -20.96636,-21.17453 -0.61925,-2.41512 -1.38881,-5.06613 -1.71013,-5.89113 -0.85792,-2.20275 -1.1978,-10.41798 -0.45509,-11 0.35093,-0.275 1.69364,-3.65 2.9838,-7.5 3.0896,-9.21976 8.2176,-17.53544 15.16437,-24.5909 6.63608,-6.73991 11.5082,-9.0823 18.77238,-9.02526 5.81957,0.0457 9.62198,1.82485 12.7175,5.95056 3.05548,4.07234 2.84684,16.96045 -0.37973,23.45731 -4.89735,9.86105 -15.73581,17.69725 -29.12027,21.05393 -6.24317,1.56572 -6.95103,2.84794 -4.46475,8.08741 2.09483,4.41452 9.30687,9.27077 15.04626,10.13144 5.36544,0.8046 14.61495,-0.73142 20.5159,-3.40697 7.09989,-3.21917 9.31582,-3.67677 8.58525,-1.77292 -0.60029,1.56432 1.31701,2.18971 5.1342,1.67469 1.0243,-0.1382 1.07203,0.27981 0.21482,1.88152 -0.60613,1.13255 -1.53621,2.05919 -2.06686,2.05919 -0.53065,0 -0.85232,0.51464 -0.71482,1.14364 0.42528,1.94545 -7.44644,6.72904 -13.7101,8.33153 -6.17229,1.57912 -21.1576,1.9255 -25.54637,0.59049 z m 37.73564,-7.66983 c -0.33229,-0.33229 -1.1948,-0.36781 -1.91667,-0.0789 -0.79773,0.31922 -0.56078,0.55618 0.60417,0.60416 1.05416,0.0434 1.64479,-0.19293 1.3125,-0.52522 z m -35.08225,-35.56958 c 10.68779,-3.9305 18.40344,-16.83765 13.60648,-22.76165 -1.72731,-2.13312 -2.20272,-2.23643 -5.41429,-1.17652 C 434.82971,461.2014 423,476.75621 423,483.65952 c 0,2.70863 1.29041,2.60763 10.64692,-0.83327 z m 55.90558,36.78804 c -3.2431,-3.05864 -3.48845,-3.65255 -2.53977,-6.14779 0.57758,-1.51913 0.83777,-6.18306 0.57822,-10.36428 C 487.33139,498.921 486.83018,488.525 486.47715,480 c -0.35303,-8.525 -1.00616,-16.91767 -1.4514,-18.65037 -0.88837,-3.45722 0.79966,-8.02898 2.806,-7.59963 0.64254,0.1375 1.16825,-0.25248 1.16825,-0.86663 0,-0.62412 0.8817,-0.88606 1.999,-0.59388 1.09946,0.28751 2.26913,0.0857 2.59928,-0.44851 0.34858,-0.56401 1.39725,-0.25001 2.501,0.74886 1.55817,1.41013 1.91132,3.17902 1.95953,9.81515 0.0405,5.58057 0.35801,7.62909 1.02206,6.59501 0.52979,-0.825 2.64083,-4.32131 4.69119,-7.76957 4.95035,-8.32541 13.13633,-16.58334 18.71176,-18.87623 2.47978,-1.01981 4.51037,-2.35259 4.51243,-2.96174 0.002,-0.61877 2.69907,-1.38926 6.11125,-1.74591 6.8024,-0.71099 11.26908,0.72867 16.1425,5.20289 3.01308,2.76627 3.74331,7.15056 1.19098,7.15056 -0.85746,0 -1.2845,0.44417 -0.94898,0.98705 0.33552,0.54288 -0.31293,1.97774 -1.44098,3.18857 -1.12806,1.21082 -2.05791,1.77915 -2.06633,1.26294 -0.008,-0.51621 -0.39871,-0.33362 -0.8673,0.40574 -1.17262,1.85022 -6.65541,-0.96969 -7.39667,-3.80425 -0.69434,-2.65519 -3.07197,-2.56504 -9.22072,0.34959 -10.48031,4.96789 -17.70752,15.58442 -22.56022,33.14024 -1.67073,6.04424 -2.23167,10.95152 -2.32143,20.30848 -0.11289,11.76929 -0.22972,12.42854 -2.53316,14.29374 -1.32814,1.07547 -3.00123,1.73036 -3.71797,1.45532 -0.71674,-0.27504 -1.56914,-0.0697 -1.89421,0.45625 -0.98548,1.59454 -2.1687,1.10903 -5.92051,-2.42938 z m 302.76756,-3.00631 c -3.23461,-3.53001 -7.56347,-9.79846 -9.66808,-14 -2.09603,-4.18439 -4.33769,-7.5905 -4.98147,-7.56913 -0.64378,0.0214 -2.22835,2.21405 -3.52127,4.87262 -5.5114,11.3329 -18.43062,20.22847 -28.49603,19.62105 -4.92634,-0.29729 -13.39427,-3.7129 -14.81689,-5.9765 -0.36502,-0.58081 -1.78822,-2.36204 -3.16267,-3.95828 -6.58427,-7.6468 -6.48367,-23.10717 0.23701,-36.42076 9.70477,-19.22504 25.49136,-31.40825 40.58934,-31.32457 3.31477,0.0184 7.48046,-0.64579 9.30801,-1.48402 3.17173,-1.45477 3.45347,-1.40633 6.83901,1.17595 3.10519,2.36845 3.45826,3.08095 2.9278,5.90851 -0.33175,1.76841 -0.02,4.97746 0.69271,7.13122 0.83254,2.51573 1.07297,6.06132 0.67241,9.91593 -0.69779,6.71498 -0.30488,13.03849 1.18057,19 3.26325,13.09628 10.53966,25.85685 13.39362,23.48827 0.943,-0.78262 1.50034,-0.77388 1.99799,0.0313 0.3796,0.6142 1.31966,0.87517 2.08903,0.57994 0.96566,-0.37056 1.39885,0.22768 1.39885,1.93182 0,1.35774 0.45,2.46862 1,2.46862 1.30972,0 1.29634,3.69882 -0.0163,4.51008 -0.55897,0.34546 -0.79932,0.97922 -0.53411,1.40834 0.96958,1.56881 -4.46978,5.08158 -7.86859,5.08158 -2.90586,0 -4.26066,-0.9351 -9.26093,-6.39202 z m -37.78787,-11.06473 c 1.77153,-1.35122 3.50151,-2.17622 3.84439,-1.83334 0.34288,0.34288 0.62342,0.0149 0.62342,-0.72879 0,-0.74372 0.85734,-2.28122 1.9052,-3.41667 3.02512,-3.27799 8.81607,-14.70857 9.53177,-18.81445 0.35951,-2.0625 1.19577,-3.75689 1.85834,-3.76531 0.80539,-0.0102 0.74483,-0.30654 -0.18273,-0.89395 -1.0174,-0.64431 -1.24835,-2.30705 -0.86596,-6.23469 0.32373,-3.32506 0.009,-6.68323 -0.82977,-8.85605 -0.74318,-1.925 -1.2535,-4.39978 -1.13404,-5.49952 0.33091,-3.04639 -3.60155,-3.06849 -9.76122,-0.0548 -10.36801,5.0726 -22.41557,20.9961 -24.02982,31.76071 -2.27269,15.15535 8.99048,26.00237 19.04042,18.33691 z m -82.39511,14.14744 c -8.62971,-3.2765 -15.68939,-13.11403 -16.75972,-23.35436 -0.76394,-7.30905 0.82538,-15.24661 5.25074,-26.22369 2.58659,-6.41602 3.11793,-8.71373 2.25539,-9.75303 -1.16476,-1.40345 -0.79978,-2.13908 3.36651,-6.78519 0.9625,-1.07335 1.75,-2.30632 1.75,-2.73993 0,-0.43361 1.07039,-1.48973 2.37864,-2.34693 1.73489,-1.13674 5.18549,-1.58732 12.75,-1.66487 15.26162,-0.15647 21.31983,1.47657 28.78699,7.75977 10.70694,9.0093 12.50932,30.77848 3.78138,45.67157 -3.62754,6.18995 -12.80537,14.44841 -19.42457,17.47878 -6.7277,3.08005 -18.63558,4.04602 -24.13536,1.95788 z m 17.07541,-11.69273 c 6.88213,-2.60582 12.93677,-8.17758 16.73725,-15.40241 5.2801,-10.03764 3.94715,-23.13875 -2.94421,-28.93744 -5.06489,-4.26182 -12.70552,-5.70446 -18.85631,-3.56028 -4.20524,1.46595 -3.97092,3.22789 0.71,5.33869 2.48897,1.12237 3.77804,2.33024 3.63056,3.40187 -0.378,2.74661 -1.68077,6.1607 -2.35641,6.17526 -0.34835,0.008 -1.64587,0.285 -2.88337,0.61664 -1.28781,0.34512 -2.25,0.15386 -2.25,-0.44724 0,-0.57761 1.2375,-1.23767 2.75,-1.4668 2.50498,-0.37947 2.45406,-0.42994 -0.57143,-0.56642 -1.82678,-0.0824 -3.99683,0.52557 -4.82233,1.35107 -0.94449,0.9445 -2.40278,1.27454 -3.93375,0.89029 -3.6436,-0.91449 -5.75985,4.73093 -5.85115,15.60881 -0.0624,7.43753 0.22879,8.9208 2.32973,11.86653 2.18611,3.06513 8.81659,7.05726 11.81142,7.11151 0.66687,0.0121 3.59187,-0.87896 6.5,-1.98008 z m 136.47612,2.42203 c -2.1235,-2.29011 -2.41075,-3.59595 -2.55631,-11.62113 -0.0902,-4.97262 -0.34185,-9.3289 -0.55923,-9.68062 -0.21737,-0.35173 -0.67439,-5.80972 -1.01559,-12.12887 -0.76144,-14.10231 -1.24031,-16.65368 -3.27208,-17.43335 -1.40449,-0.53895 -1.37359,-0.77105 0.26184,-1.9669 1.68078,-1.22902 1.76107,-2.02988 0.85831,-8.56145 -1.00934,-7.30261 -0.0777,-11.17917 2.32906,-9.69169 0.5709,0.35284 1.32157,-0.36591 1.66813,-1.59723 0.61727,-2.19308 0.6604,-2.19915 2.11369,-0.29762 1.2947,1.694 1.48357,1.72583 1.48357,0.25 0,-2.29547 1.51683,-2.12613 3.90365,0.43582 1.77013,1.90002 1.97854,3.5271 1.95335,15.25 -0.0155,7.21768 0.0103,13.98555 0.0574,15.03972 0.10481,2.34644 1.3541,1.29441 1.78045,-1.49931 0.50852,-3.33211 7.93472,-17.50131 12.19531,-23.26867 8.56952,-11.60013 15.51821,-15.1615 29.10985,-14.91953 9.43536,0.16798 17.4313,2.72726 18.95263,6.06622 1.42133,3.11947 0.44625,6.20462 -1.961,6.20462 -1.03048,0 -2.15171,0.45 -2.49163,1 -0.35498,0.57437 0.55628,1 2.14098,1 2.14365,0 2.49177,0.26725 1.56078,1.19824 -1.75596,1.75596 -7.13173,1.23493 -11.6632,-1.13043 -7.86346,-4.1046 -17.49339,-2.07138 -24.12934,5.09456 -7.24169,7.82006 -11.79271,18.09668 -16.43724,37.11676 -2.34092,9.58639 -2.72634,12.71237 -2.02817,16.44949 0.47409,2.53766 0.60863,5.32435 0.29898,6.19265 -1.9879,5.57438 -10.36817,7.01313 -14.55418,2.49872 z M 906.5,510.60118 C 888.68808,504.96801 881.97123,491.10309 888.28414,473 c 3.4553,-9.90853 6.12451,-14.28299 11.86383,-19.44313 7.73377,-6.95333 16.04305,-10.74972 26.52395,-12.11842 7.72098,-1.00828 14.57443,1.01108 20.89005,6.15523 6.1674,5.02341 6.01107,5.18575 6.83115,-7.09368 2.12508,-31.81957 2.77034,-71.55654 1.25271,-77.14583 -0.68517,-2.52346 -0.47222,-3.52778 1.07639,-5.07639 1.06181,-1.06181 2.21956,-2.68369 2.57279,-3.60417 C 960.03235,352.75212 962,352.40761 962,354.2 c 0,0.93333 0.26667,0.93333 1.2,0 2.11471,-2.11471 4.69664,-1.30056 6.41526,2.02289 1.87225,3.62053 1.65839,12.60268 -1.19706,50.27711 -1.61479,21.3054 -2.66099,60.18594 -1.74201,64.73926 l 0.55286,2.73927 1.98766,-2.5269 c 1.50184,-1.90928 2.30756,-2.26142 3.29645,-1.44071 0.90689,0.75265 1.50778,0.76421 1.95683,0.0376 2.60354,-4.21261 3.45678,7.94975 0.90128,12.84714 -0.74742,1.43236 -1.36172,3.21298 -1.36511,3.95692 -0.003,0.74394 -1.21992,3.51185 -2.70341,6.15091 -4.1403,7.36541 -10.36473,10.06033 -14.52995,6.29086 -1.5396,-1.39332 -2.24063,-1.48487 -3.82874,-0.5 -1.06923,0.66308 -2.95656,1.76811 -4.19406,2.45561 -1.2375,0.6875 -2.925,1.74872 -3.75,2.35826 -2.65332,1.96038 -15.31954,6.31506 -21.43366,7.36895 -7.57631,1.30593 -12.06041,1.20713 -17.06634,-0.37603 z m 18.68462,-13.09247 c 4.55962,-0.92952 11.17664,-3.4514 17.56538,-6.69454 L 953,485.61092 v -6.76015 -6.76014 l -3.39325,-0.63658 c -2.65068,-0.49727 -3.51045,-1.22253 -3.92877,-3.31413 -0.68382,-3.4191 -8.31501,-11.7597 -11.99308,-13.10798 -5.31928,-1.94991 -11.8086,-1.229 -17.30271,1.92217 -10.31138,5.91415 -15.86661,14.19092 -16.90398,25.18534 -0.74136,7.85714 1.30109,11.76246 7.72691,14.7744 5.19529,2.43516 8.42751,2.5421 17.9795,0.59486 z"
       id="path1"
       sodipodi:nodetypes="sssssssssssssssssssscsssssscsssssssssssssssssssssssssssssssssssssssssssssssssssssssssssssssssssssssscssssssssscssssssssscssssssssssssssssssssssssssssscsssssssssssssssssssssssssssssssssssssssssssssssssssssssssssssssscsssssssssssssssssssssssssssssssssssssssssssssssssssssssssssssssssscssssssssssssssssssssssssssssssssssssssssssssssssssssscsssscsssssssssscccsssssss" />
  </g>
</svg>
